SplineFontDB: 3.2
FontName: SeriousShanns
FullName: Serious Shanns
FamilyName: Serious Shanns
Weight: Book
Copyright: https://github.com/kaBeech/serious-shanns/blob/main/LICENSE
Version: 4.0.0
ItalicAngle: 0
UnderlinePosition: 0
UnderlineWidth: 0
Ascent: 1638
Descent: 410
InvalidEm: 0
sfntRevision: 0x00003333
LayerCount: 2
Layer: 0 0 "Back" 1
Layer: 1 0 "Fore" 0
XUID: [1021 45 630387186 12505762]
StyleMap: 0x0040
FSType: 4
OS2Version: 3
OS2_WeightWidthSlopeOnly: 0
OS2_UseTypoMetrics: 0
CreationTime: 1532631502
ModificationTime: 315532800
PfmFamily: 81
TTFWeight: 400
TTFWidth: 5
LineGap: 0
VLineGap: 0
Panose: 0 0 0 0 0 0 0 0 0 0
OS2TypoAscent: 1255
OS2TypoAOffset: 0
OS2TypoDescent: -385
OS2TypoDOffset: 0
OS2TypoLinegap: 201
OS2WinAscent: 1593
OS2WinAOffset: 0
OS2WinDescent: 631
OS2WinDOffset: 0
HheadAscent: 1630
HheadAOffset: 0
HheadDescent: -649
HheadDOffset: 0
OS2SubXSize: 649
OS2SubYSize: 600
OS2SubXOff: 0
OS2SubYOff: 76
OS2SupXSize: 649
OS2SupYSize: 600
OS2SupXOff: 0
OS2SupYOff: 350
OS2StrikeYSize: 0
OS2StrikeYPos: 270
OS2CapHeight: 1180
OS2XHeight: 993
OS2Vendor: 'NONE'
OS2CodePages: 00000001.00000000
OS2UnicodeRanges: 00000001.00000000.00000000.00000000
MarkAttachClasses: 1
DEI: 91125
LangName: 1033 "" "" "Normal" "FontForge 2.0 : Serious Shanns : 11-6-2024" "" "Version 0.2.0"
Encoding: UnicodeBmp
UnicodeInterp: none
NameList: AGL For New Fonts
DisplaySize: -48
AntiAlias: 1
FitToEm: 0
WinInfo: 64 16 11
BeginPrivate: 8
BlueValues 39 [-82 -12 1028 1071 1450 1470 1567 1575]
OtherBlues 11 [-608 -588]
BlueScale 9 0.0291667
BlueShift 1 4
StdHW 5 [174]
StdVW 5 [197]
StemSnapH 9 [133 174]
StemSnapV 5 [197]
EndPrivate
BeginChars: 65537 96

StartChar: .notdef
Encoding: 65536 -1 0
Width: 1112
GlyphClass: 1
Flags: HW
LayerCount: 2
Fore
SplineSet
119 -549 m 1
 119 1534 l 1
 995 1534 l 1
 995 -549 l 1
 119 -549 l 1
227 -438 m 1
 885 -438 l 1
 885 1423 l 1
 227 1423 l 1
 227 -438 l 1
EndSplineSet
EndChar

StartChar: exclam
Encoding: 33 33 1
Width: 1112
GlyphClass: 2
Flags: HMW
HStem: -50 315
VStem: 389 336 473 189
LayerCount: 2
Fore
SplineSet
678 1511 m 0xa0
 678 1499 675 1409 669 1242 c 0
 665 1126 662 1025 662 939 c 0
 662 901 663 866 664 834 c 0
 665 783 666 742 666 711 c 0
 666 680 665 660 664 650 c 0
 662 637 661 619 661 595 c 0
 661 583 662 570 662 555 c 0
 659 525 647 501 627 484 c 0
 608 468 585 461 559 461 c 0
 557 461 555 461 553 461 c 0
 526 461 503 469 485 487 c 0
 470 502 462 524 462 552 c 0
 462 556 463 560 463 565 c 0
 464 585 466 606 469 625 c 0
 472 644 473 660 474 673 c 0
 475 686 476 717 477 765 c 0
 477 777 478 790 478 804 c 0
 478 846 476 895 473 952 c 0
 472 1005 471 1062 470 1121 c 0
 470 1141 470 1159 470 1177 c 0
 470 1212 470 1244 471 1270 c 0
 472 1310 474 1354 475 1405 c 0
 476 1456 477 1489 477 1505 c 0
 478 1542 489 1570 509 1589 c 0
 529 1608 553 1618 582 1618 c 0
 584 1618 586 1618 588 1618 c 0
 614 1618 635 1609 651 1593 c 0
 669 1575 678 1548 678 1511 c 0xa0
561 -49 m 0
 554 -50 547 -50 540 -50 c 0
 499 -50 465 -36 437 -8 c 0
 405 25 389 65 389 111 c 0
 389 152 407 187 443 217 c 0
 479 247 519 263 561 264 c 0
 563 264 565 264 567 264 c 0
 612 264 650 250 679 222 c 0
 710 193 725 157 725 113 c 0xc0
 725 69 710 32 680 3 c 0
 650 -26 610 -44 561 -49 c 0
EndSplineSet
EndChar

StartChar: quotedbl
Encoding: 34 34 2
Width: 1112
GlyphClass: 2
Flags: HMW
VStem: 292 208 615 212
LayerCount: 2
Fore
SplineSet
502 1511 m 0
 502 1492 502 1471 502 1444 c 0
 502 1391 502 1321 500 1236 c 0
 497 1108 492 1021 485 973 c 0
 481 946 470 925 451 911 c 0
 434 899 414 893 393 893 c 0
 391 893 389 893 387 893 c 0
 360 894 335 903 314 919 c 0
 295 933 286 952 286 976 c 0
 286 985 292 1048 292 1208 c 0
 292 1223 292 1237 292 1253 c 0
 291 1362 289 1453 285 1524 c 0
 284 1540 286 1554 294 1566 c 0
 302 1578 312 1586 324 1591 c 0
 336 1596 348 1601 361 1603 c 0
 374 1605 387 1605 399 1604 c 0
 411 1604 423 1602 434 1599 c 0
 445 1596 456 1592 466 1586 c 0
 476 1580 485 1571 492 1558 c 0
 499 1545 502 1529 502 1511 c 0
829 1511 m 0
 829 1492 830 1470 830 1443 c 0
 830 1390 829 1321 827 1236 c 0
 824 1108 820 1021 815 973 c 0
 811 946 799 925 779 911 c 0
 761 899 743 893 723 893 c 0
 721 893 719 893 717 893 c 0
 690 894 665 903 643 919 c 0
 625 932 615 950 615 972 c 0
 615 976 615 980 616 985 c 0
 619 1037 621 1101 621 1175 c 0
 621 1200 621 1226 621 1253 c 0
 620 1362 616 1453 612 1524 c 0
 612 1540 616 1554 624 1566 c 0
 632 1578 641 1586 653 1591 c 0
 665 1596 678 1601 690 1603 c 0
 702 1605 715 1605 727 1604 c 0
 739 1604 751 1602 762 1599 c 0
 773 1596 784 1592 795 1586 c 0
 806 1580 814 1570 820 1557 c 0
 826 1544 829 1529 829 1511 c 0
EndSplineSet
EndChar

StartChar: numbersign
Encoding: 35 35 3
Width: 1112
GlyphClass: 2
Flags: HMW
HStem: 393 168 911 172 1429 41G
LayerCount: 2
Fore
SplineSet
324 86 m 0
 314 57 294 33 264 15 c 0
 243 2 224 -4 205 -4 c 0
 197 -4 188 -3 180 -0 c 0
 154 5 135 23 123 52 c 0
 116 68 113 84 113 101 c 0
 113 116 116 133 121 150 c 0
 132 187 151 265 178 387 c 1
 117 387 l 2
 83 387 57 394 39 408 c 0
 13 428 12 453 12 468 c 0
 12 490 20 509 35 524 c 0
 51 540 78 550 113 553 c 0
 124 553 140 553 163 554 c 0
 186 555 202 555 213 555 c 1
 283 909 l 1
 272 909 257 909 238 908 c 0
 219 907 206 907 199 907 c 0
 196 907 194 907 191 907 c 0
 161 907 137 915 120 929 c 0
 93 952 92 977 92 992 c 0
 92 1014 101 1034 117 1050 c 0
 135 1067 162 1076 197 1077 c 0
 223 1078 262 1079 315 1079 c 1
 353 1285 374 1392 375 1399 c 0
 386 1433 403 1456 426 1470 c 0
 441 1479 457 1484 473 1484 c 0
 481 1484 490 1483 498 1481 c 0
 527 1476 548 1462 564 1440 c 0
 575 1425 581 1406 581 1384 c 0
 581 1374 580 1365 578 1354 c 2
 522 1083 l 1
 754 1083 l 1
 809 1382 l 2
 820 1417 836 1442 859 1456 c 0
 874 1465 890 1470 907 1470 c 0
 916 1470 925 1468 934 1466 c 0
 964 1461 986 1447 1001 1425 c 0
 1011 1411 1016 1394 1016 1374 c 0
 1016 1363 1015 1352 1012 1339 c 0
 997 1282 980 1198 961 1087 c 1
 983 1087 l 2
 1016 1087 1043 1078 1066 1060 c 0
 1089 1042 1101 1021 1102 1001 c 0
 1102 976 1093 956 1077 939 c 0
 1061 922 1035 912 1001 911 c 2
 928 911 l 1
 868 561 l 1
 952 561 l 2
 983 561 1006 554 1018 540 c 0
 1030 526 1037 506 1038 483 c 0
 1038 423 1009 393 952 393 c 2
 838 393 l 1
 811 237 790 133 778 78 c 0
 767 49 748 27 720 11 c 0
 702 1 683 -4 665 -4 c 0
 656 -4 646 -3 637 -0 c 0
 611 5 592 21 580 48 c 0
 573 62 570 78 570 94 c 0
 570 108 573 123 578 139 c 0
 592 194 609 278 631 391 c 1
 602 391 561 391 506 390 c 0
 451 389 411 389 385 389 c 1
 356 242 336 141 324 86 c 0
489 911 m 1
 418 561 l 1
 474 562 554 563 659 563 c 1
 681 675 703 791 723 911 c 1
 489 911 l 1
EndSplineSet
EndChar

StartChar: dollar
Encoding: 36 36 4
Width: 1112
GlyphClass: 2
Flags: HMW
HStem: -59 174 1317 162
VStem: 94 188 479 178 868 190
LayerCount: 2
Fore
SplineSet
643 -203 m 0
 640 -233 628 -256 608 -272 c 0
 588 -288 564 -297 537 -297 c 0
 511 -297 491 -287 478 -269 c 0
 467 -254 462 -234 462 -208 c 0
 462 -203 463 -196 463 -190 c 0
 465 -168 466 -142 466 -110 c 0
 466 -94 465 -77 465 -59 c 1
 459 -59 l 2
 410 -59 364 -53 321 -41 c 0
 278 -29 241 -12 210 8 c 0
 179 28 153 51 130 74 c 0
 107 97 90 123 76 150 c 0
 64 178 57 201 57 221 c 0
 57 228 58 234 59 240 c 0
 64 263 79 280 102 291 c 0
 118 298 131 302 141 305 c 0
 151 308 161 308 173 307 c 0
 185 306 196 301 207 291 c 0
 218 281 230 268 242 250 c 0
 269 208 301 175 336 151 c 0
 371 127 414 115 465 115 c 2
 473 115 l 1
 476 343 477 546 477 725 c 1
 470 725 458 726 441 729 c 0
 424 732 411 733 403 733 c 0
 354 738 309 752 268 772 c 0
 227 792 195 818 171 847 c 0
 147 876 129 907 115 939 c 0
 101 971 94 1003 94 1036 c 0
 94 1085 102 1133 117 1178 c 0
 132 1223 154 1265 185 1304 c 0
 216 1343 256 1376 305 1404 c 0
 354 1432 412 1451 479 1462 c 1
 480 1495 481 1535 481 1581 c 0
 482 1656 510 1694 565 1694 c 0
 566 1694 568 1694 569 1694 c 0
 628 1694 657 1658 657 1587 c 2
 657 1479 l 1
 687 1478 729 1470 783 1458 c 0
 837 1446 877 1434 903 1423 c 0
 929 1413 947 1398 958 1378 c 0
 967 1362 972 1345 972 1327 c 0
 972 1322 972 1318 971 1313 c 0
 970 1297 964 1284 955 1275 c 0
 946 1266 936 1260 923 1258 c 0
 910 1256 898 1256 886 1257 c 0
 874 1258 862 1261 848 1264 c 0
 836 1267 820 1272 802 1281 c 0
 784 1290 762 1298 739 1305 c 0
 716 1312 688 1316 655 1317 c 1
 654 1208 651 1063 647 883 c 1
 710 875 766 860 815 839 c 0
 864 818 904 793 933 766 c 0
 962 739 988 707 1008 672 c 0
 1028 637 1042 601 1049 567 c 0
 1056 533 1059 498 1059 461 c 0
 1059 398 1048 339 1027 283 c 0
 1006 227 976 178 938 137 c 0
 900 96 856 61 805 31 c 0
 754 1 699 -22 639 -37 c 1
 640 -119 642 -174 643 -203 c 0
283 1088 m 0
 283 1044 300 1006 335 973 c 0
 370 940 417 917 477 903 c 1
 478 997 479 1128 479 1296 c 1
 420 1278 373 1252 337 1217 c 0
 301 1182 283 1139 283 1088 c 0
868 426 m 0
 868 452 865 476 858 498 c 0
 851 520 840 542 825 566 c 0
 810 590 788 613 758 633 c 0
 728 653 690 671 645 686 c 1
 645 626 645 536 644 415 c 0
 643 294 642 207 639 152 c 1
 705 179 759 216 803 264 c 0
 847 312 868 366 868 426 c 0
EndSplineSet
EndChar

StartChar: percent
Encoding: 37 37 5
Width: 1112
GlyphClass: 2
Flags: HMW
HStem: -57 156 350 152 885 154<287 304 287 309> 1294 150
VStem: 27 147 395 144 575 147 819 182 940 147
LayerCount: 2
Fore
SplineSet
264 885 m 0xfe
 216 885 174 898 136 925 c 0
 98 952 71 985 53 1025 c 0
 35 1065 27 1109 27 1155 c 0
 27 1240 50 1309 97 1363 c 0
 144 1417 211 1444 297 1444 c 0
 331 1444 363 1438 392 1426 c 0
 421 1414 448 1397 471 1374 c 0
 494 1351 512 1319 524 1279 c 0
 534 1246 539 1209 539 1167 c 0
 539 1158 539 1149 539 1139 c 0
 535 1056 510 992 466 949 c 0
 422 906 354 885 264 885 c 0xfe
78 39 m 0
 107 98 175 221 282 409 c 0
 389 597 496 786 603 977 c 0
 710 1168 782 1304 819 1386 c 0
 835 1411 857 1427 884 1433 c 0
 892 1435 900 1435 908 1435 c 0
 926 1435 942 1430 958 1421 c 0
 972 1415 1001 1399 1001 1363 c 0xff
 1001 1344 993 1321 977 1296 c 0
 926 1213 805 1000 615 659 c 0
 425 318 299 87 238 -33 c 0
 212 -81 182 -105 149 -105 c 0
 137 -105 125 -102 113 -96 c 0
 78 -80 61 -56 61 -24 c 0
 61 -6 67 16 78 39 c 0
287 1038 m 0
 321 1038 347 1049 364 1071 c 0
 390 1104 395 1149 395 1168 c 0
 395 1210 386 1242 367 1262 c 0
 347 1284 318 1294 281 1294 c 0
 248 1294 223 1282 205 1258 c 0
 199 1250 174 1213 174 1152 c 0
 174 1118 182 1092 196 1073 c 0
 212 1053 242 1041 287 1038 c 0
811 -57 m 0
 763 -57 721 -44 684 -17 c 0
 647 10 619 43 601 83 c 0
 584 121 575 160 575 203 c 0
 575 250 578 343 645 421 c 0
 691 475 758 502 844 502 c 0
 878 502 910 496 939 485 c 0
 968 474 995 457 1019 433 c 0
 1043 409 1061 377 1073 337 c 0
 1082 307 1087 273 1087 235 c 0xfe80
 1087 222 1086 210 1085 197 c 0
 1081 114 1057 50 1013 6 c 0
 970 -36 905 -57 819 -57 c 0
 816 -57 814 -57 811 -57 c 0
834 98 m 0
 836 98 837 98 839 98 c 0
 869 98 892 109 909 130 c 0
 912 134 940 171 940 222 c 0
 940 308 903 350 829 350 c 0
 798 350 773 338 755 314 c 0
 749 306 723 270 723 211 c 0
 723 178 730 152 745 132 c 0
 761 111 792 99 834 98 c 0
EndSplineSet
EndChar

StartChar: ampersand
Encoding: 38 38 6
Width: 1112
GlyphClass: 2
Flags: HMW
HStem: -86 193 -83 43G 1321 162
VStem: 27 207 205 197 684 170
LayerCount: 2
Fore
SplineSet
1018 -72 m 0xac
 1006 -79 993 -83 980 -83 c 0x6c
 966 -83 951 -79 935 -71 c 0
 904 -55 877 -28 854 10 c 0
 851 17 843 38 830 72 c 0
 817 106 808 130 801 145 c 1
 797 140 788 129 774 111 c 0
 760 93 750 80 743 72 c 0
 736 64 726 51 711 35 c 0
 696 19 683 6 671 -3 c 0
 659 -12 644 -23 626 -35 c 0
 608 -47 589 -56 572 -62 c 0
 555 -68 535 -74 511 -79 c 0
 487 -84 463 -86 438 -86 c 0
 362 -86 291 -67 228 -27 c 0
 165 13 115 65 80 129 c 0
 45 193 27 263 27 338 c 0xb4
 27 596 133 771 346 864 c 1
 334 884 319 909 302 938 c 0
 285 967 272 986 264 998 c 0
 256 1010 248 1025 238 1043 c 0
 228 1061 221 1078 218 1092 c 0
 215 1106 212 1122 209 1142 c 0
 206 1162 205 1183 205 1206 c 0
 205 1231 208 1255 214 1279 c 0
 220 1303 232 1328 249 1353 c 0
 266 1378 285 1400 308 1419 c 0
 331 1438 361 1453 400 1465 c 0
 439 1477 483 1483 532 1483 c 0
 572 1483 611 1476 649 1464 c 0
 687 1452 722 1434 753 1410 c 0
 784 1386 808 1355 826 1316 c 0
 844 1277 854 1234 854 1186 c 0
 854 1142 849 1102 838 1064 c 0
 827 1026 813 995 796 970 c 0
 779 945 757 920 731 897 c 0
 705 874 681 856 659 842 c 0
 637 828 613 815 584 801 c 1
 609 759 650 695 709 612 c 0
 768 529 805 473 821 446 c 1
 831 465 842 488 854 513 c 0
 866 538 876 558 882 574 c 0
 888 590 894 601 899 608 c 0
 924 643 947 666 970 675 c 0
 979 678 988 680 997 680 c 0
 1011 680 1026 676 1042 668 c 0
 1065 657 1079 636 1084 607 c 0
 1085 601 1086 595 1086 588 c 0
 1086 564 1079 537 1065 508 c 0
 1058 496 1038 468 1004 426 c 0
 970 384 942 344 922 309 c 1
 937 283 957 246 984 198 c 0
 1011 150 1027 121 1032 113 c 0
 1049 86 1057 57 1057 26 c 0
 1057 19 1057 11 1056 4 c 0
 1051 -36 1038 -61 1018 -72 c 0xac
401 1171 m 0
 401 1137 410 1100 428 1059 c 0
 446 1018 468 981 494 950 c 1
 524 960 549 970 570 980 c 0
 591 990 612 1004 631 1020 c 0
 650 1036 664 1056 672 1080 c 0
 680 1104 684 1132 684 1165 c 0
 684 1216 669 1254 638 1281 c 0
 607 1308 570 1321 526 1321 c 0
 443 1321 401 1271 401 1171 c 0
233 356 m 0xb4
 233 285 253 226 291 178 c 0
 329 130 379 106 440 106 c 0
 459 106 479 109 497 113 c 0
 515 117 531 121 544 125 c 0
 557 129 571 135 585 145 c 0
 599 155 610 163 618 169 c 0
 626 175 636 185 648 198 c 0
 660 211 668 220 671 225 c 0
 674 230 681 241 692 255 c 0
 703 269 710 278 711 281 c 0
 686 334 665 376 649 406 c 0
 633 437 600 488 550 559 c 0
 500 630 464 683 444 717 c 1
 403 699 368 677 339 650 c 0
 310 623 287 594 272 562 c 0
 257 530 247 498 242 465 c 0
 237 432 233 396 233 356 c 0xb4
EndSplineSet
EndChar

StartChar: quotesingle
Encoding: 39 39 7
Width: 1112
GlyphClass: 2
Flags: HMW
HStem: 913 667
VStem: 449 218
LayerCount: 2
Fore
SplineSet
666 1491 m 0
 666 1473 666 1451 666 1426 c 0
 666 1376 666 1314 664 1238 c 0
 661 1124 656 1043 649 995 c 0
 645 966 633 946 613 932 c 0
 595 920 577 913 557 913 c 0
 555 913 553 913 551 913 c 0
 524 914 499 924 478 940 c 0
 459 955 450 974 450 998 c 0
 450 1005 455 1067 455 1186 c 0
 455 1208 455 1230 455 1253 c 0
 454 1346 452 1429 449 1501 c 0
 449 1517 452 1532 458 1544 c 0
 464 1556 473 1565 486 1570 c 0
 499 1575 512 1578 524 1580 c 0
 536 1582 549 1582 561 1581 c 0
 573 1581 585 1580 596 1577 c 0
 607 1574 618 1570 629 1564 c 0
 640 1558 648 1548 655 1536 c 0
 662 1524 666 1509 666 1491 c 0
EndSplineSet
EndChar

StartChar: parenleft
Encoding: 40 40 8
Width: 1112
GlyphClass: 2
Flags: HMW
HStem: -268 172 1501 166
VStem: 250 199
LayerCount: 2
Fore
SplineSet
860 -190 m 0
 860 -212 852 -231 834 -246 c 0
 816 -261 797 -268 778 -268 c 0
 687 -268 603 -236 529 -170 c 0
 455 -104 394 -14 347 102 c 0
 300 218 270 352 256 504 c 0
 252 545 250 591 250 642 c 0
 250 715 254 799 262 893 c 0
 276 1053 302 1184 342 1288 c 0
 360 1333 384 1378 413 1422 c 0
 442 1466 475 1507 513 1544 c 0
 551 1581 593 1610 640 1633 c 0
 687 1656 734 1667 780 1667 c 0
 835 1667 862 1640 862 1587 c 0
 862 1572 862 1540 838 1521 c 0
 822 1508 801 1501 776 1501 c 0
 741 1501 708 1490 677 1470 c 0
 646 1450 619 1422 596 1387 c 0
 573 1352 553 1312 536 1270 c 0
 519 1228 504 1182 492 1133 c 0
 474 1062 462 964 455 840 c 0
 452 778 450 722 450 671 c 0
 450 620 452 576 455 537 c 0
 462 454 476 373 499 294 c 0
 522 215 548 148 578 91 c 0
 608 34 641 -11 676 -45 c 0
 711 -79 745 -96 778 -96 c 0
 805 -96 826 -103 840 -117 c 0
 854 -131 860 -155 860 -190 c 0
EndSplineSet
EndChar

StartChar: parenright
Encoding: 41 41 9
Width: 1112
GlyphClass: 2
Flags: HMW
HStem: -268 172 1501 166
VStem: 661 203
LayerCount: 2
Fore
SplineSet
858 504 m 0
 843 352 812 218 765 102 c 0
 718 -14 658 -104 584 -170 c 0
 510 -236 427 -268 336 -268 c 0
 317 -268 299 -261 281 -246 c 0
 263 -231 254 -212 254 -190 c 0
 254 -155 261 -131 275 -117 c 0
 289 -103 310 -96 336 -96 c 0
 367 -96 400 -79 435 -45 c 0
 470 -11 502 34 532 91 c 0
 562 148 589 216 612 295 c 0
 635 374 650 455 655 537 c 0
 659 578 661 625 661 679 c 0
 661 727 659 781 656 840 c 0
 650 964 638 1062 619 1133 c 0
 608 1182 594 1228 578 1270 c 0
 562 1312 541 1351 517 1386 c 0
 493 1421 466 1450 436 1470 c 0
 406 1490 374 1501 340 1501 c 0
 314 1501 292 1508 276 1521 c 0
 260 1534 252 1554 252 1583 c 0
 252 1601 254 1615 258 1627 c 0
 262 1639 270 1648 280 1653 c 0
 290 1658 298 1662 306 1664 c 0
 314 1666 323 1667 334 1667 c 0
 380 1667 427 1656 474 1633 c 0
 521 1610 563 1581 600 1544 c 0
 637 1507 670 1466 699 1422 c 0
 728 1378 753 1333 772 1288 c 0
 812 1184 838 1053 852 893 c 0
 860 799 864 715 864 642 c 0
 864 591 862 545 858 504 c 0
EndSplineSet
EndChar

StartChar: asterisk
Encoding: 42 42 10
Width: 1112
GlyphClass: 2
Flags: HMW
HStem: 600 213 628 157
LayerCount: 2
Fore
SplineSet
449 285 m 0x40
 444 269 434 256 421 248 c 0
 408 240 394 234 378 233 c 0
 362 232 347 234 333 237 c 0
 319 240 306 245 295 250 c 0
 283 257 272 267 264 280 c 0
 256 293 251 309 248 328 c 0
 245 347 249 367 260 387 c 2
 397 610 l 1
 285 603 202 600 149 600 c 0
 116 600 91 611 72 633 c 0
 53 655 43 677 43 702 c 0
 43 714 45 727 48 740 c 0
 51 753 56 765 63 777 c 0
 70 789 81 798 95 805 c 0
 109 812 125 814 143 813 c 0x80
 206 808 299 801 422 793 c 1
 363 893 314 969 276 1022 c 0
 260 1049 252 1074 252 1100 c 0
 252 1105 252 1109 253 1114 c 0
 256 1144 269 1164 291 1174 c 0
 303 1182 319 1186 337 1187 c 0
 355 1188 374 1182 393 1171 c 0
 412 1160 427 1144 438 1122 c 0
 453 1089 493 1011 559 887 c 1
 614 980 655 1057 682 1120 c 0
 692 1142 706 1158 724 1169 c 0
 742 1180 760 1186 777 1185 c 0
 794 1184 809 1179 821 1169 c 0
 835 1162 846 1152 855 1137 c 0
 864 1122 868 1103 868 1083 c 0
 868 1063 862 1043 848 1024 c 0
 804 960 757 880 705 784 c 1
 824 784 907 792 958 807 c 0
 968 810 977 811 986 811 c 0
 1005 811 1021 805 1036 791 c 0
 1058 771 1070 748 1071 725 c 0
 1071 713 1070 700 1067 688 c 0
 1064 676 1060 663 1053 651 c 0
 1046 639 1036 630 1024 623 c 0
 1012 616 997 614 979 618 c 0
 944 624 885 628 800 628 c 0
 772 628 741 628 707 627 c 1
 844 389 l 2
 856 363 862 341 862 320 c 0
 862 315 862 310 861 306 c 0
 858 282 847 265 831 254 c 0
 817 246 800 241 779 240 c 0
 776 240 774 239 771 239 c 2
 716 252 l 2
 695 262 681 277 676 299 c 0
 658 354 622 433 567 535 c 1
 503 409 464 326 449 285 c 0x40
EndSplineSet
EndChar

StartChar: plus
Encoding: 43 43 11
Width: 1112
GlyphClass: 2
Flags: HMW
HStem: 737 162
VStem: 471 166
LayerCount: 2
Fore
SplineSet
637 512 m 0
 637 481 630 458 616 445 c 0
 602 432 584 426 559 426 c 0
 500 426 471 455 471 512 c 2
 471 731 l 1
 444 731 406 731 360 730 c 0
 314 729 282 729 264 729 c 0
 230 729 204 738 188 755 c 0
 164 780 164 806 164 823 c 0
 164 846 171 867 186 883 c 0
 201 899 224 907 255 907 c 0
 257 907 260 907 262 907 c 0
 358 904 427 903 471 903 c 1
 471 1023 467 1124 467 1132 c 0
 467 1186 496 1212 555 1212 c 0
 558 1212 560 1213 563 1213 c 0
 587 1213 607 1207 622 1196 c 0
 637 1185 644 1167 644 1140 c 0
 644 1136 643 1131 643 1126 c 0
 639 1047 637 971 637 899 c 1
 862 899 l 2
 893 899 916 893 929 879 c 0
 942 865 949 846 950 823 c 0
 950 811 949 800 946 790 c 0
 943 780 939 770 934 760 c 0
 929 750 919 743 907 738 c 0
 895 733 880 732 862 733 c 0
 841 735 805 737 755 737 c 0
 721 737 681 736 635 735 c 1
 635 698 635 655 636 604 c 0
 637 553 637 523 637 512 c 0
EndSplineSet
EndChar

StartChar: comma
Encoding: 44 44 12
Width: 1112
GlyphClass: 2
Flags: HMW
VStem: 347 419
LayerCount: 2
Fore
SplineSet
766 197 m 0
 752 130 723 26 678 -113 c 0
 633 -252 598 -338 573 -371 c 0
 551 -400 523 -420 490 -432 c 0
 470 -439 452 -443 436 -443 c 0
 425 -443 415 -441 406 -438 c 0
 392 -434 380 -426 368 -414 c 0
 356 -402 349 -387 347 -369 c 0
 345 -351 350 -332 362 -313 c 0
 391 -272 430 -182 481 -43 c 0
 532 96 562 193 573 248 c 0
 577 267 587 282 602 293 c 0
 617 304 633 309 649 309 c 0
 665 309 682 308 698 305 c 0
 720 298 738 285 752 266 c 0
 763 251 767 235 767 215 c 0
 767 209 767 203 766 197 c 0
EndSplineSet
EndChar

StartChar: hyphen
Encoding: 45 45 13
Width: 1112
GlyphClass: 2
Flags: HMW
HStem: 498 178<300 353> 514 168<778 800 778 814>
VStem: 241 631
LayerCount: 2
Fore
SplineSet
326 676 m 0xa0
 404 676 496 677 604 679 c 0
 712 681 772 682 784 682 c 0
 815 682 838 674 851 660 c 0
 864 646 871 627 872 604 c 0
 872 544 843 514 784 514 c 0x60
 766 514 698 511 579 506 c 0
 460 501 376 498 330 498 c 0
 271 498 242 527 242 586 c 0
 242 590 241 593 241 597 c 0
 241 650 270 676 326 676 c 0xa0
EndSplineSet
EndChar

StartChar: period
Encoding: 46 46 14
Width: 1112
GlyphClass: 2
Flags: HMW
HStem: -30 317
VStem: 389 336
LayerCount: 2
Fore
SplineSet
561 -29 m 0
 554 -30 547 -30 540 -30 c 0
 499 -30 465 -16 437 13 c 0
 405 46 389 86 389 131 c 0
 389 173 407 210 443 240 c 0
 479 270 519 286 561 287 c 0
 563 287 565 287 567 287 c 0
 612 287 650 273 679 245 c 0
 710 216 725 178 725 133 c 0
 725 89 710 53 680 24 c 0
 650 -5 610 -24 561 -29 c 0
EndSplineSet
EndChar

StartChar: slash
Encoding: 47 47 15
Width: 1112
GlyphClass: 2
Flags: HW
LayerCount: 2
Fore
SplineSet
1051 1384 m 0
 1016 1314 916 1143 752 871 c 0
 588 599 488 431 453 365 c 0
 431 323 395 250 346 149 c 0
 297 48 266 -13 254 -35 c 0
 232 -73 204 -100 171 -115 c 0
 154 -123 139 -126 124 -126 c 0
 109 -126 96 -123 84 -115 c 0
 64 -104 51 -79 47 -39 c 0
 46 -32 46 -25 46 -18 c 0
 46 14 54 43 70 70 c 0
 269 398 440 689 582 944 c 0
 671 1101 764 1279 864 1477 c 0
 875 1499 890 1515 909 1527 c 0
 928 1539 947 1544 965 1543 c 0
 983 1542 1000 1539 1018 1532 c 0
 1043 1520 1058 1501 1065 1475 c 0
 1067 1467 1068 1459 1068 1451 c 0
 1068 1431 1063 1408 1051 1384 c 0
EndSplineSet
EndChar

StartChar: zero
Encoding: 48 48 16
Width: 1112
GlyphClass: 2
Flags: HMW
HStem: -49 172 1305 166
VStem: 74 196 842 198
LayerCount: 2
Fore
SplineSet
512 -49 m 0
 448 -49 389 -37 335 -14 c 0
 281 9 235 41 197 82 c 0
 159 123 128 175 106 236 c 0
 85 294 76 356 76 425 c 0
 76 429 76 434 76 438 c 0
 76 452 76 486 75 540 c 0
 74 594 74 637 74 669 c 0
 74 701 75 745 77 802 c 0
 79 859 83 907 88 948 c 0
 93 989 101 1033 110 1080 c 0
 119 1127 130 1169 145 1204 c 0
 178 1290 233 1356 311 1402 c 0
 389 1448 484 1470 596 1470 c 0
 652 1470 705 1461 754 1442 c 0
 803 1423 847 1395 885 1358 c 0
 923 1321 955 1273 980 1214 c 0
 1005 1155 1021 1088 1028 1012 c 0
 1033 944 1037 866 1039 779 c 0
 1039 759 1040 739 1040 719 c 0
 1040 652 1037 585 1032 517 c 0
 1025 429 1016 361 1004 315 c 0
 992 269 978 228 963 193 c 0
 948 158 931 126 914 100 c 0
 897 74 878 53 857 35 c 0
 836 17 814 3 790 -8 c 0
 766 -19 739 -28 709 -34 c 0
 679 -40 648 -44 618 -46 c 0
 588 -48 553 -49 512 -49 c 0
276 471 m 0
 276 466 277 457 278 446 c 0
 279 435 279 428 279 424 c 1
 462 674 626 930 772 1194 c 1
 747 1229 717 1257 682 1276 c 0
 647 1295 608 1305 567 1305 c 0
 491 1305 431 1283 388 1241 c 0
 345 1199 313 1130 291 1036 c 0
 283 1002 276 962 273 916 c 0
 270 878 269 833 269 782 c 0
 269 772 269 762 269 751 c 0
 270 686 270 640 271 613 c 0
 272 586 273 539 276 471 c 0
811 344 m 0
 816 360 822 405 828 479 c 0
 834 553 839 637 842 732 c 0
 843 759 843 787 843 813 c 0
 843 879 841 944 836 1006 c 1
 690 706 518 453 320 250 c 1
 357 165 421 123 512 123 c 0
 549 123 582 126 611 132 c 0
 640 138 668 149 695 165 c 0
 722 181 745 203 763 233 c 0
 781 263 797 300 811 344 c 0
EndSplineSet
EndChar

StartChar: one
Encoding: 49 49 17
Width: 1112
GlyphClass: 2
Flags: HMW
HStem: -18 175 -10 182<133 180 133 180> 1048 43G
VStem: 459 198 479 187
LayerCount: 2
Fore
SplineSet
1055 71 m 0xb0
 1055 47 1047 26 1033 9 c 0
 1017 -9 990 -18 950 -18 c 0xb0
 932 -18 811 -17 585 -14 c 0
 359 -11 213 -10 147 -10 c 0
 117 -10 95 -2 81 14 c 0
 67 30 59 52 59 78 c 0
 59 80 59 83 59 85 c 0
 59 109 66 129 79 145 c 0
 93 163 117 172 150 172 c 0
 211 172 316 171 463 170 c 1
 463 225 462 268 461 301 c 0
 460 308 459 327 459 357 c 0x70
 459 372 460 390 460 410 c 0
 461 471 461 516 461 543 c 0
 461 570 462 620 465 694 c 0
 468 768 470 823 471 859 c 0
 472 895 475 952 479 1031 c 0
 483 1110 486 1167 487 1204 c 1
 386 1119 312 1069 266 1053 c 0
 258 1050 249 1048 241 1048 c 0
 222 1048 202 1056 183 1073 c 0
 156 1096 143 1120 143 1143 c 0
 143 1144 143 1146 143 1147 c 0
 143 1169 148 1188 158 1205 c 0
 168 1222 184 1239 209 1257 c 0
 249 1287 290 1321 334 1357 c 0
 378 1393 409 1420 428 1436 c 0
 447 1452 467 1466 487 1478 c 0
 507 1490 526 1495 541 1495 c 0
 570 1495 600 1483 631 1458 c 0
 662 1433 678 1413 678 1397 c 0
 678 1366 675 1254 667 1062 c 0x68
 659 870 655 758 655 725 c 0
 655 588 656 474 657 383 c 0
 657 332 659 259 662 162 c 1
 702 162 742 161 786 160 c 0
 830 159 866 158 894 157 c 0
 922 156 942 156 954 156 c 0
 992 156 1018 148 1032 134 c 0
 1043 122 1055 102 1055 71 c 0xb0
EndSplineSet
EndChar

StartChar: two
Encoding: 50 50 18
Width: 1112
GlyphClass: 2
Flags: HMW
HStem: -37 172 -29 186 1307 172
VStem: 80 205 803 203
LayerCount: 2
Fore
SplineSet
967 -25 m 0x78
 910 -25 838 -26 753 -29 c 0x78
 668 -32 592 -34 526 -37 c 0
 460 -40 394 -41 325 -41 c 0
 256 -41 202 -38 164 -33 c 0
 134 -30 112 -11 99 23 c 0
 86 57 80 106 80 170 c 0
 80 229 93 290 118 355 c 0
 143 420 180 483 229 542 c 0
 278 601 335 649 401 686 c 0
 547 768 642 825 684 858 c 0
 740 902 776 948 791 997 c 0
 799 1026 803 1062 803 1104 c 0
 803 1175 782 1226 740 1258 c 0
 698 1290 639 1307 563 1307 c 0
 510 1307 459 1290 411 1257 c 0
 363 1224 325 1189 299 1149 c 0
 287 1131 275 1117 264 1107 c 0
 253 1097 241 1091 229 1090 c 0
 217 1089 207 1089 197 1092 c 0
 187 1095 174 1099 158 1106 c 0
 135 1118 120 1136 115 1159 c 0
 114 1165 113 1171 113 1178 c 0
 113 1198 119 1221 131 1249 c 0
 145 1275 166 1301 193 1327 c 0
 220 1353 252 1378 287 1401 c 0
 322 1424 364 1443 412 1457 c 0
 460 1471 507 1479 555 1479 c 0
 702 1479 815 1444 891 1376 c 0
 967 1308 1006 1206 1006 1069 c 0
 1006 956 977 865 920 797 c 0
 878 746 801 690 690 629 c 0
 663 613 616 587 549 553 c 0
 490 522 441 483 401 437 c 0
 361 391 333 345 316 297 c 0
 299 249 289 197 285 141 c 1
 361 137 435 135 506 135 c 0xb8
 577 135 632 136 672 138 c 0
 712 140 757 143 809 147 c 0
 861 151 895 155 911 156 c 0
 912 156 919 156 931 157 c 0
 943 158 950 158 954 158 c 2
 975 158 l 2
 985 158 991 157 996 154 c 0
 1001 151 1007 147 1013 143 c 0
 1019 139 1024 134 1027 127 c 0
 1030 120 1033 112 1034 102 c 0
 1035 86 1035 68 1032 50 c 0
 1029 32 1023 15 1011 -1 c 0
 999 -17 985 -25 967 -25 c 0x78
EndSplineSet
EndChar

StartChar: three
Encoding: 51 51 19
Width: 1112
GlyphClass: 2
Flags: HMW
HStem: -49 172 651 205 1307 172
VStem: 776 203 821 205
LayerCount: 2
Fore
SplineSet
1026 408 m 0xe8
 1026 267 983 156 896 74 c 0
 809 -8 687 -49 530 -49 c 0
 482 -49 435 -42 387 -28 c 0
 339 -14 298 5 263 28 c 0
 228 51 197 74 170 101 c 0
 143 128 121 154 106 180 c 0
 94 204 88 226 88 246 c 0
 88 253 89 260 90 266 c 0
 95 292 110 311 135 322 c 0
 154 331 172 336 188 336 c 0
 195 336 202 335 209 333 c 0
 231 327 252 310 274 281 c 0
 304 240 343 203 389 171 c 0
 435 139 486 123 539 123 c 0
 621 123 688 147 741 193 c 0
 794 239 821 299 821 373 c 0xe8
 821 418 815 456 801 489 c 0
 787 522 765 551 735 576 c 0
 705 601 664 619 611 632 c 0
 558 645 498 651 428 651 c 0
 399 651 374 662 353 685 c 0
 332 708 322 733 322 760 c 0
 322 789 329 811 344 829 c 0
 359 847 381 856 410 856 c 0
 525 856 614 879 680 925 c 0
 744 970 776 1034 776 1119 c 0
 776 1121 776 1122 776 1124 c 0
 776 1126 776 1128 776 1130 c 0
 776 1189 755 1233 712 1262 c 0
 668 1292 603 1307 520 1307 c 0
 504 1307 488 1305 472 1302 c 0
 456 1299 444 1294 434 1291 c 0
 424 1288 414 1282 403 1274 c 0
 392 1266 384 1258 376 1253 c 0
 368 1248 360 1239 351 1227 c 0
 342 1215 336 1206 331 1201 c 0
 326 1196 319 1186 311 1171 c 0
 289 1141 268 1123 245 1118 c 0
 239 1116 232 1116 225 1116 c 0
 208 1116 190 1121 170 1131 c 0
 147 1142 133 1160 128 1185 c 0
 127 1192 126 1198 126 1205 c 0
 126 1225 131 1249 141 1274 c 0
 155 1301 173 1326 195 1349 c 0
 217 1372 241 1393 270 1413 c 0
 299 1433 334 1449 376 1461 c 0
 418 1473 462 1479 510 1479 c 0
 667 1479 785 1446 864 1380 c 0
 941 1317 979 1224 979 1102 c 0xf0
 979 1098 979 1094 979 1090 c 0
 979 1050 974 1014 964 982 c 0
 954 950 940 923 922 900 c 0
 904 877 882 858 856 841 c 0
 830 824 804 811 777 801 c 0
 750 791 722 783 692 778 c 1
 748 766 796 751 836 733 c 0
 876 715 910 693 939 665 c 0
 968 637 991 601 1005 559 c 0
 1019 517 1026 467 1026 408 c 0xe8
EndSplineSet
EndChar

StartChar: four
Encoding: 52 52 20
Width: 1112
GlyphClass: 2
Flags: HMW
HStem: -47 43G 459 165
VStem: 694 179 709 182 709 199
LayerCount: 2
Fore
SplineSet
903 113 m 0xd0
 906 98 907 84 907 70 c 0
 907 44 902 21 892 -0 c 0
 876 -31 853 -47 823 -47 c 0
 797 -47 773 -37 748 -17 c 0
 723 3 710 23 709 43 c 2
 709 123 l 1
 709 282 l 1xc8
 709 459 l 1xd0
 680 459 651 459 624 459 c 0
 421 459 277 450 193 432 c 0
 171 428 151 429 133 434 c 0
 115 439 101 449 91 463 c 0
 81 477 73 492 68 510 c 0
 63 528 59 546 59 565 c 0
 59 584 63 603 70 621 c 0
 84 659 120 721 179 808 c 0
 238 895 316 1001 411 1129 c 0
 506 1257 572 1350 612 1407 c 0
 630 1433 650 1452 673 1465 c 0
 696 1478 717 1485 737 1485 c 0
 742 1485 747 1486 752 1486 c 0
 774 1486 794 1480 812 1470 c 0
 835 1458 849 1437 854 1407 c 0
 862 1359 868 1286 873 1186 c 0xe0
 878 1086 882 1002 883 933 c 0
 884 864 886 760 889 621 c 1
 912 620 938 618 967 618 c 0
 998 618 1020 611 1033 597 c 0
 1046 583 1054 564 1055 541 c 0
 1055 481 1026 451 967 451 c 0
 940 451 914 452 891 453 c 1
 894 254 898 140 903 113 c 0xd0
694 1233 m 1xe0
 492 968 355 762 283 616 c 1
 359 621 453 624 565 624 c 0
 610 624 658 624 709 623 c 1
 709 878 704 1081 694 1233 c 1xe0
EndSplineSet
EndChar

StartChar: five
Encoding: 53 53 21
Width: 1112
GlyphClass: 2
Flags: HMW
HStem: -37 172 860 182 1268 182 1290 164
VStem: 91 191 106 180 840 205
LayerCount: 2
Fore
SplineSet
1044 606 m 0xda
 1044 505 1032 414 1007 333 c 0
 982 252 946 184 900 130 c 0
 854 76 799 35 735 6 c 0
 671 -23 600 -37 524 -37 c 0
 464 -37 409 -30 358 -18 c 0
 307 -6 265 11 231 33 c 0
 197 55 168 77 145 101 c 0
 122 125 103 150 88 176 c 0
 76 204 70 228 70 248 c 0
 70 255 71 260 72 266 c 0
 77 289 92 307 115 319 c 0
 130 326 143 331 153 334 c 0
 163 337 174 337 186 336 c 0
 198 335 210 329 221 319 c 0
 232 309 244 297 256 279 c 0
 317 185 401 136 506 135 c 0
 608 135 690 176 750 257 c 0
 810 338 840 447 840 584 c 0
 840 669 821 735 783 785 c 0
 745 835 688 860 610 860 c 0
 590 860 570 859 551 857 c 0
 532 855 516 852 502 849 c 0
 488 846 474 841 459 834 c 0
 444 827 432 821 423 817 c 0
 414 813 403 806 390 795 c 0
 377 784 369 776 365 772 c 0
 361 768 352 759 338 746 c 0
 324 733 316 726 313 723 c 0
 302 713 289 705 273 698 c 0
 257 691 240 687 221 685 c 0
 202 683 183 686 164 694 c 0
 141 704 124 725 112 758 c 0
 100 791 93 831 92 879 c 0
 91 898 91 916 91 935 c 0xda
 91 963 92 990 93 1017 c 0
 95 1061 98 1109 101 1160 c 0
 104 1211 106 1247 106 1266 c 1
 95 1284 89 1303 86 1326 c 0
 83 1349 84 1370 89 1389 c 0
 94 1408 104 1424 118 1438 c 0
 132 1452 149 1458 168 1458 c 0
 219 1458 337 1457 525 1454 c 0xd6
 713 1451 856 1450 954 1450 c 0
 972 1450 986 1442 998 1427 c 0
 1010 1412 1018 1395 1021 1376 c 0
 1024 1357 1025 1339 1022 1323 c 0
 1021 1313 1018 1305 1015 1298 c 0
 1012 1291 1006 1286 1000 1283 c 0
 994 1280 989 1277 984 1274 c 0
 979 1271 973 1270 963 1269 c 0
 953 1268 946 1268 942 1268 c 0xe6
 938 1268 931 1269 919 1270 c 0
 907 1271 900 1272 899 1272 c 0
 880 1272 846 1274 797 1278 c 0
 748 1282 704 1285 666 1287 c 0
 628 1289 574 1290 506 1290 c 0
 438 1290 366 1288 291 1284 c 1
 291 1270 290 1231 287 1165 c 0xd6
 284 1099 283 1052 282 1023 c 0
 282 1013 281 1002 281 989 c 0
 281 964 282 933 283 897 c 1
 321 939 372 974 438 1001 c 0
 504 1028 579 1042 664 1042 c 0
 724 1042 778 1032 826 1009 c 0
 874 986 915 955 946 915 c 0
 977 875 1002 830 1019 777 c 0
 1036 724 1044 667 1044 606 c 0xda
EndSplineSet
EndChar

StartChar: six
Encoding: 54 54 22
Width: 1112
GlyphClass: 2
Flags: HMW
HStem: -45 172 805 180
VStem: 65 187 848 201<466 511>
LayerCount: 2
Fore
SplineSet
1049 504 m 0
 1049 428 1036 356 1011 288 c 0
 986 220 951 162 907 114 c 0
 863 66 812 27 751 -2 c 0
 690 -31 625 -45 557 -45 c 0
 472 -45 399 -29 336 3 c 0
 273 35 221 81 181 142 c 0
 141 203 111 275 92 360 c 0
 74 439 65 527 65 624 c 0
 65 631 66 638 66 645 c 0
 67 762 78 869 100 963 c 0
 122 1057 152 1136 191 1200 c 0
 230 1264 279 1319 336 1363 c 0
 393 1407 455 1441 521 1464 c 0
 587 1487 660 1502 741 1509 c 0
 747 1510 753 1510 759 1510 c 0
 783 1510 805 1505 824 1496 c 0
 848 1484 861 1466 864 1440 c 0
 865 1424 858 1405 840 1385 c 0
 822 1365 802 1353 780 1346 c 0
 765 1342 743 1336 712 1329 c 0
 681 1322 655 1316 633 1310 c 0
 611 1304 585 1294 555 1282 c 0
 525 1270 495 1252 466 1229 c 0
 437 1206 408 1178 379 1145 c 0
 349 1110 321 1060 296 999 c 0
 271 938 255 884 248 836 c 1
 290 887 346 923 414 948 c 0
 482 973 558 985 641 985 c 0
 704 985 760 976 809 958 c 0
 858 940 901 912 937 874 c 0
 973 836 1001 786 1020 724 c 0
 1039 662 1049 589 1049 504 c 0
252 471 m 0
 255 441 260 411 270 380 c 0
 280 349 293 318 310 287 c 0
 327 256 348 228 371 205 c 0
 394 182 422 162 455 148 c 0
 488 134 522 127 559 127 c 0
 610 127 657 145 702 180 c 0
 747 215 783 260 809 314 c 0
 835 368 848 423 848 479 c 0
 848 543 842 597 831 641 c 0
 820 685 803 718 779 741 c 0
 755 764 728 781 698 791 c 0
 668 801 632 805 588 805 c 0
 520 805 455 787 395 752 c 0
 335 717 286 671 248 616 c 1
 248 557 249 509 252 471 c 0
EndSplineSet
EndChar

StartChar: seven
Encoding: 55 55 23
Width: 1112
GlyphClass: 2
Flags: HMW
HStem: -47 43G 1275 185
LayerCount: 2
Fore
SplineSet
352 53 m 0
 336 18 315 -9 288 -27 c 0
 268 -41 247 -47 227 -47 c 0
 221 -47 215 -46 209 -45 c 0
 180 -38 160 -22 148 4 c 0
 143 16 140 29 140 42 c 0
 140 57 145 73 152 90 c 0
 222 231 296 371 376 510 c 0
 456 649 521 760 574 843 c 0
 627 926 676 1005 720 1083 c 0
 764 1161 794 1225 809 1274 c 1
 744 1276 677 1277 608 1277 c 0
 550 1277 491 1277 430 1275 c 0
 296 1272 209 1264 168 1253 c 0
 152 1249 137 1250 124 1255 c 0
 111 1260 100 1269 92 1280 c 0
 84 1291 78 1303 74 1315 c 0
 70 1327 68 1340 68 1352 c 0
 68 1377 74 1396 86 1410 c 0
 98 1424 121 1435 154 1442 c 0
 205 1452 275 1457 364 1460 c 0
 409 1461 451 1462 492 1462 c 0
 533 1462 572 1461 610 1460 c 0
 685 1457 759 1455 831 1452 c 0
 903 1449 943 1448 948 1448 c 0
 962 1448 976 1445 990 1439 c 0
 1004 1433 1017 1423 1029 1409 c 0
 1038 1399 1048 1381 1048 1353 c 0
 1048 1332 1041 1307 1028 1280 c 0
 1009 1239 975 1178 925 1095 c 0
 875 1012 823 928 769 841 c 0
 715 754 649 639 572 495 c 0
 495 351 422 203 352 53 c 0
EndSplineSet
EndChar

StartChar: eight
Encoding: 56 56 24
Width: 1112
GlyphClass: 2
Flags: HW
LayerCount: 2
Fore
SplineSet
1061 418 m 0
 1061 374 1055 331 1043 287 c 0
 1031 243 1012 201 985 159 c 0
 958 117 925 80 885 49 c 0
 845 18 794 -8 733 -28 c 0
 672 -48 603 -57 528 -57 c 0
 460 -57 398 -48 342 -29 c 0
 286 -10 241 15 206 44 c 0
 171 73 142 109 118 150 c 0
 94 191 78 231 68 273 c 0
 58 315 53 357 53 401 c 0
 53 447 65 498 88 551 c 0
 111 604 145 653 189 698 c 0
 233 743 283 775 338 793 c 1
 266 827 209 872 169 927 c 0
 129 982 109 1039 109 1096 c 0
 109 1112 110 1130 113 1148 c 0
 116 1166 120 1188 128 1213 c 0
 136 1238 146 1263 159 1286 c 0
 172 1309 189 1332 212 1355 c 0
 235 1378 260 1397 289 1414 c 0
 318 1431 353 1445 396 1455 c 0
 439 1465 486 1470 537 1470 c 0
 590 1470 638 1465 681 1455 c 0
 724 1445 760 1431 789 1414 c 0
 818 1397 844 1378 867 1355 c 0
 890 1332 908 1309 920 1286 c 0
 932 1263 942 1238 950 1212 c 0
 958 1186 964 1164 967 1144 c 0
 970 1124 971 1105 971 1087 c 0
 971 1071 969 1054 965 1038 c 0
 961 1022 955 1007 948 995 c 0
 941 983 933 970 922 956 c 0
 911 942 901 932 891 922 c 0
 881 912 869 901 854 889 c 0
 839 877 827 867 818 861 c 0
 809 855 796 847 780 836 c 0
 764 825 753 817 748 813 c 1
 799 791 843 766 881 739 c 0
 919 712 949 685 972 658 c 0
 995 631 1012 603 1026 573 c 0
 1040 543 1049 517 1054 493 c 0
 1059 469 1061 444 1061 418 c 0
301 1102 m 0
 301 1057 322 1017 364 982 c 0
 406 947 473 912 569 877 c 1
 626 900 677 931 721 971 c 0
 765 1011 786 1047 786 1081 c 0
 786 1119 776 1157 754 1194 c 0
 732 1231 702 1261 663 1286 c 0
 624 1311 582 1323 537 1323 c 0
 473 1323 417 1300 371 1254 c 0
 325 1208 301 1158 301 1102 c 0
537 119 m 0
 577 119 615 124 655 136 c 0
 695 148 731 164 763 186 c 0
 795 208 821 237 841 272 c 0
 861 307 870 345 870 385 c 0
 870 407 868 427 864 447 c 0
 860 467 852 490 840 516 c 0
 828 542 810 566 788 588 c 0
 766 610 736 632 697 656 c 0
 658 680 613 702 561 721 c 1
 463 695 383 650 322 586 c 0
 261 522 229 453 229 381 c 0
 229 330 244 285 275 244 c 0
 306 203 345 172 391 151 c 0
 437 130 486 119 537 119 c 0
EndSplineSet
EndChar

StartChar: nine
Encoding: 57 57 25
Width: 1112
GlyphClass: 2
Flags: HMW
HStem: -46 43G 481 182 1341 172
VStem: 63 201 869 180
LayerCount: 2
Fore
SplineSet
324 -45 m 0
 318 -46 312 -46 306 -46 c 0
 282 -46 260 -41 241 -32 c 0
 217 -20 204 -1 201 25 c 0
 200 43 207 61 224 80 c 0
 241 99 262 112 285 119 c 0
 300 123 324 128 357 135 c 0
 390 142 420 149 447 157 c 0
 474 165 505 174 538 186 c 0
 571 198 604 216 635 238 c 0
 666 260 695 285 721 315 c 0
 755 355 785 401 812 454 c 0
 839 507 857 554 868 596 c 1
 830 552 781 522 721 506 c 0
 661 490 587 481 500 481 c 0
 440 481 383 495 328 523 c 0
 273 551 226 589 188 635 c 0
 150 681 120 735 97 796 c 0
 74 857 63 918 63 981 c 0
 63 1057 76 1129 102 1195 c 0
 128 1261 163 1318 207 1364 c 0
 251 1410 302 1447 362 1474 c 0
 422 1501 487 1513 555 1513 c 0
 723 1513 848 1450 930 1323 c 0
 1009 1200 1049 1025 1049 799 c 0
 1049 791 1049 784 1049 776 c 0
 1048 667 1034 568 1008 480 c 0
 982 392 947 317 903 256 c 0
 859 195 807 142 746 98 c 0
 685 54 620 22 550 -1 c 0
 480 -24 405 -38 324 -45 c 0
264 1006 m 0
 264 894 289 809 337 751 c 0
 385 693 457 664 553 664 c 0
 613 664 672 678 729 705 c 0
 786 732 833 769 868 817 c 0
 868 824 869 831 869 839 c 0
 869 878 866 930 860 997 c 0
 857 1027 852 1057 843 1088 c 0
 834 1119 821 1151 803 1182 c 0
 785 1213 764 1241 741 1264 c 0
 718 1287 690 1306 657 1320 c 0
 624 1334 590 1341 553 1341 c 0
 502 1341 455 1325 410 1292 c 0
 365 1259 329 1217 303 1166 c 0
 277 1115 264 1062 264 1006 c 0
EndSplineSet
EndChar

StartChar: colon
Encoding: 58 58 26
Width: 1112
GlyphClass: 2
Flags: HMW
HStem: 82 318 629 318
VStem: 423 262
LayerCount: 2
Fore
SplineSet
684 854 m 0
 684 846 685 837 685 829 c 0
 685 791 680 752 670 711 c 0
 663 684 648 662 625 648 c 0
 604 635 583 629 563 629 c 0
 561 629 559 629 557 629 c 0
 475 633 431 664 426 723 c 0
 424 748 423 776 423 810 c 0
 423 827 424 845 424 864 c 0
 424 882 429 896 439 908 c 0
 449 920 462 929 477 934 c 0
 492 939 506 943 520 944 c 0
 534 945 547 946 559 946 c 0
 571 946 584 945 597 942 c 0
 610 939 623 935 636 929 c 0
 649 923 660 913 669 900 c 0
 678 887 683 872 684 854 c 0
686 307 m 0
 689 289 691 271 691 253 c 0
 691 222 687 192 678 160 c 0
 671 133 654 112 627 99 c 0
 602 87 579 82 558 82 c 0
 556 82 553 82 551 82 c 0
 524 83 497 92 471 108 c 0
 445 124 431 145 428 174 c 0
 427 203 426 220 425 228 c 0
 424 236 425 250 427 270 c 0
 429 290 430 306 430 317 c 0
 430 333 434 348 444 360 c 0
 454 372 466 381 480 386 c 0
 494 391 508 394 522 396 c 0
 536 398 549 399 561 399 c 0
 577 399 594 397 610 392 c 0
 626 387 642 377 657 362 c 0
 672 347 682 329 686 307 c 0
EndSplineSet
EndChar

StartChar: semicolon
Encoding: 59 59 27
Width: 1112
GlyphClass: 2
Flags: HMW
HStem: 543 318
VStem: 485 262
LayerCount: 2
Fore
SplineSet
745 768 m 0
 745 760 746 751 746 743 c 0
 746 705 741 666 731 625 c 0
 724 598 710 576 687 562 c 0
 666 549 646 543 625 543 c 0
 623 543 620 543 618 543 c 0
 600 544 582 548 564 554 c 0
 546 560 529 571 513 586 c 0
 497 601 488 619 487 639 c 0
 485 664 485 692 485 726 c 0
 485 743 485 761 485 780 c 0
 485 796 490 811 500 823 c 0
 510 835 522 844 538 849 c 0
 554 854 569 857 583 859 c 0
 597 861 610 861 621 860 c 0
 633 860 645 859 657 857 c 0
 669 855 682 851 696 844 c 0
 710 837 721 827 730 814 c 0
 739 801 744 786 745 768 c 0
707 152 m 0
 704 108 659 -70 573 -383 c 0
 566 -412 552 -432 531 -445 c 0
 512 -457 493 -463 473 -463 c 0
 471 -463 469 -463 467 -463 c 0
 440 -462 415 -452 394 -436 c 0
 375 -421 366 -402 366 -378 c 0
 366 -352 383 -263 410 -129 c 0
 436 -2 456 95 471 162 c 0
 475 182 481 199 489 211 c 0
 497 223 507 232 517 236 c 0
 527 240 538 243 550 244 c 0
 562 245 572 245 580 244 c 0
 592 244 606 242 620 239 c 0
 634 236 649 230 663 224 c 0
 677 218 688 209 696 197 c 0
 704 185 708 170 707 152 c 0
EndSplineSet
EndChar

StartChar: less
Encoding: 60 60 28
Width: 1112
GlyphClass: 2
Flags: HMW
HStem: -25 43G
LayerCount: 2
Fore
SplineSet
1059 29 m 0
 1052 15 1042 4 1028 -6 c 0
 1014 -16 997 -22 974 -25 c 0
 969 -26 965 -25 960 -25 c 0
 940 -25 917 -21 891 -12 c 0
 857 -1 815 22 765 59 c 0
 715 96 661 140 603 191 c 0
 545 242 487 295 430 348 c 0
 373 401 312 456 249 513 c 0
 186 570 132 614 88 645 c 0
 70 657 58 675 53 700 c 0
 50 712 49 723 49 734 c 0
 49 746 51 759 54 771 c 0
 60 794 72 809 90 819 c 0
 168 876 260 948 364 1035 c 0
 468 1122 563 1201 650 1271 c 0
 737 1341 814 1397 881 1438 c 0
 903 1452 923 1458 941 1459 c 0
 959 1460 975 1457 989 1449 c 0
 1003 1441 1015 1432 1025 1421 c 0
 1035 1410 1044 1398 1049 1386 c 0
 1054 1376 1057 1366 1057 1356 c 0
 1057 1343 1052 1329 1043 1316 c 0
 1027 1292 997 1264 952 1231 c 0
 876 1178 759 1091 603 969 c 0
 447 847 348 770 307 737 c 1
 360 696 419 647 483 589 c 0
 547 531 604 478 655 431 c 0
 706 384 760 336 817 287 c 0
 874 238 924 199 965 170 c 0
 1009 141 1038 116 1052 95 c 0
 1061 82 1065 69 1065 56 c 0
 1065 47 1063 38 1059 29 c 0
EndSplineSet
EndChar

StartChar: equal
Encoding: 61 61 29
Width: 1112
GlyphClass: 2
Flags: HMW
HStem: 506 170 907 174
LayerCount: 2
Fore
SplineSet
262 1081 m 0
 340 1078 420 1077 503 1077 c 0
 586 1077 662 1078 734 1079 c 0
 806 1080 848 1081 862 1081 c 0
 893 1081 916 1075 929 1061 c 0
 942 1047 949 1029 950 1006 c 0
 950 994 949 982 946 972 c 0
 943 962 939 952 934 942 c 0
 929 932 919 926 907 921 c 0
 895 916 880 914 862 915 c 0
 829 916 796 917 761 917 c 0
 744 917 726 916 708 916 c 0
 654 915 579 914 483 911 c 0
 387 908 317 907 272 907 c 0
 238 907 212 916 193 932 c 0
 164 956 164 982 164 997 c 0
 164 1020 171 1041 186 1057 c 0
 201 1073 224 1081 255 1081 c 0
 257 1081 260 1081 262 1081 c 0
268 676 m 0
 304 676 342 675 382 675 c 0
 462 675 550 676 645 678 c 0
 788 681 861 682 862 682 c 0
 893 682 916 674 929 660 c 0
 942 646 949 627 950 604 c 0
 950 592 949 580 946 570 c 0
 943 560 939 551 934 541 c 0
 929 531 919 524 907 519 c 0
 895 514 880 513 862 514 c 0
 829 515 796 515 760 515 c 0
 742 515 724 515 706 515 c 0
 651 514 574 513 477 510 c 0
 380 507 309 506 264 506 c 0
 230 506 204 514 188 531 c 0
 165 555 164 582 164 599 c 0
 164 620 172 637 188 652 c 0
 206 668 233 676 268 676 c 0
EndSplineSet
EndChar

StartChar: greater
Encoding: 62 62 30
Width: 1112
GlyphClass: 2
Flags: HW
LayerCount: 2
Fore
SplineSet
233 10 m 0
 213 -2 193 -9 174 -10 c 0
 155 -11 139 -9 125 -1 c 0
 111 7 100 16 90 27 c 0
 80 38 73 49 68 61 c 0
 62 71 59 82 59 93 c 0
 59 106 64 119 72 132 c 0
 87 156 118 184 164 217 c 0
 240 270 356 357 512 479 c 0
 668 601 767 678 811 711 c 1
 758 752 698 801 632 859 c 0
 566 917 508 970 459 1017 c 0
 410 1064 356 1112 299 1161 c 0
 242 1210 191 1249 147 1278 c 0
 103 1307 74 1332 60 1353 c 0
 52 1365 48 1377 48 1390 c 0
 48 1400 50 1409 55 1419 c 0
 62 1433 72 1444 85 1454 c 0
 98 1464 116 1470 140 1473 c 0
 145 1474 150 1473 155 1473 c 0
 175 1473 198 1469 223 1460 c 0
 257 1449 299 1426 350 1390 c 0
 401 1354 455 1309 513 1257 c 0
 571 1205 629 1153 686 1100 c 0
 743 1047 803 992 866 936 c 0
 929 880 984 836 1030 803 c 0
 1046 791 1058 773 1063 748 c 0
 1065 737 1067 726 1067 715 c 0
 1067 702 1065 690 1061 677 c 0
 1054 654 1042 639 1026 629 c 0
 948 572 857 500 753 413 c 0
 649 326 553 247 466 177 c 0
 379 107 301 51 233 10 c 0
EndSplineSet
EndChar

StartChar: question
Encoding: 63 63 31
Width: 1112
GlyphClass: 2
Flags: HMW
HStem: -30 317 1307 172
VStem: 344 334 778 203
LayerCount: 2
Fore
SplineSet
621 537 m 0
 616 502 603 474 583 455 c 0
 570 442 553 436 532 436 c 0
 522 436 510 437 498 440 c 0
 460 450 434 468 422 494 c 0
 415 508 412 523 412 542 c 0
 412 559 415 577 420 598 c 0
 430 635 444 669 462 702 c 0
 480 735 500 763 522 786 c 0
 544 809 567 832 591 853 c 0
 615 874 637 894 659 912 c 0
 681 930 701 950 719 969 c 0
 737 988 751 1008 762 1031 c 0
 773 1054 778 1078 778 1104 c 0
 778 1175 758 1226 716 1258 c 0
 674 1290 615 1307 539 1307 c 0
 520 1307 500 1302 481 1293 c 0
 462 1284 445 1275 431 1264 c 0
 417 1253 402 1238 386 1220 c 0
 370 1202 358 1185 349 1172 c 0
 340 1159 329 1144 317 1126 c 0
 305 1108 294 1094 283 1084 c 0
 272 1074 260 1069 248 1068 c 0
 236 1067 225 1068 215 1070 c 0
 205 1072 193 1076 178 1083 c 0
 155 1095 140 1114 134 1137 c 0
 132 1143 132 1149 132 1156 c 0
 132 1176 139 1200 152 1227 c 0
 167 1256 185 1283 206 1310 c 0
 227 1337 254 1363 285 1390 c 0
 316 1417 353 1438 396 1454 c 0
 439 1470 484 1479 530 1479 c 0
 677 1479 790 1444 866 1376 c 0
 942 1308 981 1206 981 1069 c 0
 981 1032 976 999 964 969 c 0
 952 939 937 913 918 891 c 0
 899 869 877 848 853 829 c 0
 829 810 804 791 779 772 c 0
 754 753 731 733 710 713 c 0
 689 693 669 667 653 636 c 0
 637 605 626 572 621 537 c 0
516 -29 m 0
 509 -30 502 -30 495 -30 c 0
 454 -30 420 -16 392 13 c 0
 360 46 344 86 344 131 c 0
 344 173 361 210 396 240 c 0
 431 270 471 286 516 287 c 0
 518 287 520 287 522 287 c 0
 567 287 604 273 633 245 c 0
 663 216 678 178 678 133 c 0
 678 89 663 53 634 24 c 0
 605 -5 565 -24 516 -29 c 0
EndSplineSet
EndChar

StartChar: at
Encoding: 64 64 32
Width: 1112
GlyphClass: 2
Flags: HMW
HStem: -265 174 209 160 242 164 780 158 1255 184
VStem: 29 178 281 158 653 164 936 149
LayerCount: 2
Fore
SplineSet
981 10 m 0xdf80
 974 -9 967 -26 959 -40 c 0
 951 -54 942 -72 929 -93 c 0
 916 -114 902 -132 888 -147 c 0
 874 -162 854 -178 831 -194 c 0
 808 -210 784 -222 757 -232 c 0
 730 -242 698 -251 661 -257 c 0
 631 -262 600 -265 566 -265 c 0
 558 -265 551 -264 543 -264 c 0
 471 -264 403 -246 340 -211 c 0
 277 -176 223 -125 177 -62 c 0
 131 1 96 78 69 169 c 0
 42 260 29 359 29 467 c 0
 29 587 38 699 56 803 c 0
 74 907 101 997 135 1074 c 0
 169 1151 210 1218 256 1273 c 0
 302 1328 354 1370 410 1398 c 0
 466 1426 525 1440 586 1440 c 0
 632 1440 674 1436 711 1428 c 0
 748 1420 783 1409 818 1392 c 0
 853 1375 883 1352 910 1323 c 0
 937 1294 961 1258 984 1215 c 0
 1007 1172 1025 1122 1039 1065 c 0
 1053 1008 1065 940 1073 862 c 0
 1081 784 1085 697 1085 600 c 0
 1085 551 1082 504 1074 460 c 0
 1066 416 1055 374 1041 335 c 0
 1027 296 1006 266 978 243 c 0
 950 220 918 209 881 209 c 0xdf80
 783 209 727 266 715 381 c 1
 684 288 624 242 537 242 c 0
 456 242 393 266 348 317 c 0
 303 368 281 445 281 549 c 0
 281 601 286 648 298 692 c 0
 310 736 325 773 345 804 c 0
 365 835 388 861 415 882 c 0
 442 903 471 918 502 927 c 0
 529 935 557 938 585 938 c 0
 589 938 594 938 598 938 c 0
 631 937 663 929 696 915 c 0
 727 903 753 886 772 866 c 0
 791 846 796 827 786 811 c 0
 781 800 775 791 768 784 c 0
 761 777 753 773 743 770 c 0
 733 767 725 765 717 764 c 0
 709 763 698 763 686 765 c 0
 674 767 664 769 657 770 c 0
 650 771 641 774 627 778 c 0
 609 781 591 781 574 780 c 0
 557 779 540 773 524 763 c 0
 508 753 493 740 481 724 c 0
 469 708 459 688 451 662 c 0
 443 636 438 606 438 573 c 0
 438 555 439 539 441 523 c 0
 443 507 448 490 454 470 c 0
 460 450 469 435 482 423 c 0
 495 411 511 405 530 405 c 0xbf80
 574 405 605 423 623 456 c 0
 641 489 650 545 653 623 c 0
 653 645 672 662 707 676 c 0
 729 685 749 689 767 689 c 0
 780 689 792 687 803 682 c 0
 821 675 828 661 825 641 c 0
 820 593 817 552 817 518 c 0
 817 501 818 485 819 472 c 0
 823 432 830 404 840 390 c 0
 850 376 863 369 881 369 c 0
 892 369 901 377 909 395 c 0
 917 413 924 436 927 465 c 0
 930 494 933 519 934 541 c 0
 935 563 936 584 936 604 c 0
 936 674 933 738 927 797 c 0
 921 856 913 905 904 947 c 0
 895 989 883 1027 868 1060 c 0
 853 1093 839 1121 825 1142 c 0
 811 1163 795 1181 776 1196 c 0
 757 1211 740 1222 726 1230 c 0
 712 1238 695 1243 677 1247 c 0
 659 1251 645 1253 635 1254 c 0
 625 1255 614 1255 600 1255 c 0
 545 1255 494 1238 447 1204 c 0
 400 1170 359 1123 323 1062 c 0
 287 1001 258 926 238 836 c 0
 218 746 207 647 207 541 c 0
 207 448 213 364 227 290 c 0
 241 216 260 156 283 110 c 0
 306 64 333 25 364 -6 c 0
 395 -37 425 -60 456 -72 c 0
 487 -84 518 -90 551 -90 c 0
 586 -90 619 -87 649 -80 c 0
 679 -73 704 -65 724 -55 c 0
 744 -45 762 -32 780 -16 c 0
 798 0 811 15 821 29 c 0
 831 43 842 60 854 82 c 0
 859 92 864 99 868 104 c 0
 872 109 878 116 883 124 c 0
 888 132 893 137 897 140 c 0
 901 143 906 147 912 150 c 0
 918 153 925 154 931 154 c 0
 937 154 943 153 950 150 c 0
 961 146 970 140 978 134 c 0
 986 128 991 120 995 110 c 0
 999 100 1000 86 997 69 c 0
 994 52 989 32 981 10 c 0xdf80
EndSplineSet
EndChar

StartChar: A
Encoding: 65 65 33
Width: 1112
GlyphClass: 2
Flags: HMW
HStem: -11 43G 514 166
VStem: 11 185
LayerCount: 2
Fore
SplineSet
197 84 m 2
 183 42 164 14 139 0 c 0
 125 -8 112 -11 98 -11 c 0
 87 -11 75 -9 63 -4 c 0
 28 12 11 44 11 92 c 0
 11 110 13 130 18 152 c 0
 26 196 66 302 137 471 c 1
 112 487 100 507 100 530 c 0
 99 549 108 568 126 585 c 0
 144 602 169 615 199 625 c 1
 367 1015 496 1276 586 1407 c 0
 606 1434 624 1454 640 1466 c 0
 656 1478 673 1485 692 1485 c 0
 697 1485 701 1486 706 1486 c 0
 727 1486 746 1480 763 1470 c 0
 784 1458 797 1437 801 1407 c 0
 830 1238 877 998 945 687 c 0
 1013 376 1059 198 1085 152 c 0
 1096 130 1103 110 1103 92 c 0
 1103 88 1102 85 1102 81 c 0
 1099 60 1092 42 1081 28 c 0
 1070 14 1057 3 1042 -4 c 0
 1030 -9 1019 -12 1007 -12 c 2
 965 -1 l 2
 939 12 917 40 901 84 c 0
 883 126 850 270 799 514 c 1
 624 507 468 493 330 471 c 1
 197 84 l 2
651 1233 m 1
 591 1142 506 947 395 651 c 1
 534 667 658 677 766 680 c 1
 651 1233 l 1
EndSplineSet
EndChar

StartChar: B
Encoding: 66 66 34
Width: 1112
GlyphClass: 2
Flags: HMW
HStem: -47 43G 608 147 1290 162
VStem: 61 198 786 184 856 201
LayerCount: 2
Fore
SplineSet
453 -29 m 0xf4
 430 -30 404 -32 375 -35 c 0
 346 -38 323 -40 305 -41 c 2
 252 -45 l 2
 234 -46 218 -47 204 -47 c 0
 190 -47 176 -46 164 -43 c 2
 156 -43 l 2
 129 -43 106 -33 89 -15 c 0
 73 2 65 25 65 54 c 0
 65 69 70 99 70 278 c 0
 70 312 70 349 70 389 c 0
 69 550 65 716 61 887 c 0
 58 978 57 1040 57 1071 c 0
 57 1102 58 1145 60 1198 c 0
 62 1251 63 1289 63 1309 c 0
 64 1346 75 1374 93 1392 c 0
 111 1410 135 1419 164 1419 c 2
 174 1419 l 2
 196 1426 219 1432 242 1437 c 0
 265 1442 286 1445 306 1447 c 0
 326 1449 348 1450 371 1451 c 0
 394 1452 412 1452 425 1452 c 2
 467 1452 l 1
 489 1452 l 2
 582 1452 664 1435 736 1401 c 0
 808 1367 864 1317 906 1252 c 0
 952 1180 971 1100 971 1017 c 0xf8
 971 941 954 877 919 822 c 0
 883 765 832 724 768 698 c 1
 814 683 859 661 902 632 c 0
 945 603 982 570 1012 534 c 0
 1042 498 1057 463 1057 432 c 0
 1057 380 1044 329 1018 278 c 0
 992 227 954 179 904 137 c 0
 854 95 791 59 712 29 c 0
 633 -1 547 -21 453 -29 c 0xf4
485 1290 m 0
 411 1290 340 1282 270 1264 c 1
 270 1238 269 1196 266 1139 c 0
 263 1082 261 1020 260 956 c 0
 259 924 259 892 259 859 c 0
 259 826 259 793 260 760 c 1
 324 757 385 756 442 756 c 0
 483 756 521 759 555 766 c 0
 589 773 617 782 640 793 c 0
 663 804 683 817 701 833 c 0
 719 849 733 865 743 881 c 0
 753 897 761 915 768 935 c 0
 775 955 779 972 782 988 c 0
 785 1004 786 1020 786 1038 c 0
 786 1073 779 1107 765 1137 c 0
 751 1167 733 1191 712 1209 c 0
 691 1227 666 1243 639 1256 c 0
 612 1269 585 1278 559 1283 c 0
 533 1288 508 1290 485 1290 c 0
457 608 m 1
 357 608 293 607 264 606 c 1
 269 386 273 230 276 137 c 1
 291 137 316 138 351 139 c 0
 386 140 412 141 430 141 c 0
 493 144 552 155 607 174 c 0
 662 193 707 216 741 243 c 0
 775 270 803 298 824 327 c 0
 845 356 856 383 856 408 c 0xf4
 856 426 849 443 834 461 c 0
 819 479 796 497 765 516 c 0
 734 535 692 553 639 569 c 0
 586 585 525 598 457 608 c 1
EndSplineSet
EndChar

StartChar: C
Encoding: 67 67 35
Width: 1112
GlyphClass: 2
Flags: HMW
HStem: -64 185 1062 455 1294 166
VStem: 29 207 875 211
LayerCount: 2
Fore
SplineSet
1028 131 m 0xb8
 915 1 743 -64 511 -64 c 0
 504 -64 496 -63 489 -63 c 0
 433 -63 381 -54 330 -35 c 0
 279 -16 237 10 202 41 c 0
 167 72 136 109 109 151 c 0
 82 193 61 237 48 284 c 0
 35 331 29 378 29 426 c 0
 29 526 39 622 59 715 c 0
 79 808 107 892 142 967 c 0
 177 1042 218 1110 264 1173 c 0
 310 1236 360 1288 413 1330 c 0
 466 1372 519 1403 574 1426 c 0
 629 1449 682 1460 733 1460 c 0xb8
 784 1460 830 1455 872 1444 c 1
 877 1464 888 1481 903 1494 c 0
 918 1507 936 1515 956 1516 c 0
 961 1517 966 1517 971 1517 c 0
 988 1517 1005 1511 1023 1500 c 0
 1046 1486 1060 1465 1065 1438 c 0
 1069 1418 1073 1397 1077 1377 c 0
 1081 1357 1083 1338 1084 1319 c 0
 1085 1300 1085 1284 1085 1272 c 2
 1085 1229 l 1
 1085 1198 l 2
 1085 1169 1075 1140 1053 1111 c 0
 1031 1082 1009 1066 987 1063 c 0
 982 1062 978 1062 973 1062 c 0xd8
 953 1062 932 1068 912 1082 c 0
 887 1099 875 1122 875 1151 c 0
 875 1162 876 1191 877 1237 c 0
 876 1238 869 1242 857 1250 c 0
 845 1258 838 1264 833 1267 c 0
 828 1270 820 1275 809 1280 c 0
 798 1285 787 1289 777 1291 c 0
 767 1293 758 1294 748 1294 c 0
 706 1294 659 1280 611 1253 c 0
 563 1226 516 1188 472 1137 c 0
 428 1086 387 1029 351 963 c 0
 315 897 286 823 266 740 c 0
 246 657 236 575 236 492 c 0
 236 432 247 372 270 315 c 0
 293 258 327 211 370 175 c 0
 413 139 459 121 510 121 c 0
 554 121 597 125 640 134 c 0
 683 143 721 155 754 169 c 0
 787 183 815 198 839 212 c 0
 863 226 885 242 905 258 c 0
 923 270 938 280 951 287 c 0
 964 294 978 297 993 297 c 0
 1008 297 1023 293 1038 283 c 0
 1061 265 1073 244 1073 221 c 0
 1073 195 1058 164 1028 131 c 0xb8
EndSplineSet
EndChar

StartChar: D
Encoding: 68 68 36
Width: 1112
GlyphClass: 2
Flags: HMW
HStem: -63 176 1421 41G
VStem: 25 202 35 209 893 197
LayerCount: 2
Fore
SplineSet
229 713 m 0xe8
 230 654 234 565 237 447 c 0
 240 329 243 240 244 180 c 1
 300 155 359 138 420 128 c 0
 481 118 551 113 629 113 c 0
 667 113 703 126 737 151 c 0
 771 176 799 209 821 249 c 0
 843 289 860 334 873 382 c 0
 886 430 893 478 893 524 c 0
 893 781 788 977 578 1112 c 0
 503 1160 395 1209 256 1260 c 1
 254 1262 l 1
 252 1262 l 1
 250 1262 l 1
 248 1264 l 1
 246 1264 l 1
 244 1264 l 1
 244 1266 l 1xd8
 242 1266 l 1
 240 1266 l 1
 238 1268 l 1
 236 1268 l 1
 233 1268 l 1
 231 1270 l 1
 229 1270 l 1
 227 1270 l 1
 227 1272 l 1
 225 1196 225 1118 225 1039 c 0
 225 933 226 825 229 713 c 0xe8
631 -63 m 0
 563 -63 496 -60 431 -54 c 0
 366 -48 314 -41 276 -33 c 0
 238 -25 205 -17 176 -10 c 0
 147 -3 130 0 125 0 c 0
 98 0 75 10 57 28 c 0
 42 44 34 65 34 92 c 0
 34 96 35 100 35 104 c 0xd8
 38 153 39 232 39 338 c 0
 39 373 39 412 39 454 c 0
 38 621 34 802 29 997 c 0
 28 1073 27 1124 26 1148 c 0
 26 1154 25 1160 25 1168 c 0xe8
 25 1191 26 1222 28 1260 c 0
 30 1311 31 1341 31 1352 c 0
 32 1389 42 1417 61 1435 c 0
 80 1453 104 1462 133 1462 c 0
 151 1462 174 1461 201 1458 c 0
 228 1455 263 1450 306 1442 c 0
 349 1434 393 1422 438 1408 c 0
 483 1394 532 1374 585 1348 c 0
 638 1322 687 1291 734 1257 c 0
 781 1223 826 1180 870 1129 c 0
 914 1078 952 1023 984 962 c 0
 1016 901 1042 828 1061 744 c 0
 1080 660 1090 570 1090 473 c 0
 1090 425 1083 377 1070 328 c 0
 1057 279 1038 230 1011 183 c 0
 984 136 953 94 918 57 c 0
 883 20 840 -9 790 -31 c 0
 740 -53 687 -63 631 -63 c 0
EndSplineSet
EndChar

StartChar: E
Encoding: 69 69 37
Width: 1112
GlyphClass: 2
Flags: HMW
HStem: -36 175 -13 186 639 176 680 166 1260 170
VStem: 51 200
LayerCount: 2
Fore
SplineSet
958 -12 m 0x4c
 954 -12 949 -12 942 -12 c 0
 912 -12 857 -14 780 -19 c 0
 686 -25 583 -31 470 -36 c 0
 409 -39 356 -40 309 -40 c 0
 269 -40 235 -39 205 -37 c 0
 174 -36 142 -20 111 9 c 0
 80 38 60 75 55 117 c 0
 51 152 49 216 49 308 c 0
 49 400 50 498 51 602 c 0
 51 637 52 673 52 710 c 0
 52 785 51 866 49 952 c 0
 48 1034 47 1088 46 1115 c 0
 46 1122 46 1129 46 1137 c 0
 46 1162 46 1194 48 1233 c 0
 50 1285 51 1317 51 1329 c 0
 52 1366 63 1394 82 1413 c 0
 101 1432 125 1442 154 1442 c 0
 156 1442 157 1442 159 1442 c 0
 192 1442 218 1430 236 1407 c 1
 314 1418 405 1424 509 1427 c 0
 561 1428 611 1430 657 1430 c 0
 703 1430 746 1428 786 1427 c 0
 867 1424 931 1420 979 1415 c 0
 1012 1411 1035 1403 1047 1391 c 0
 1059 1379 1066 1361 1067 1339 c 0
 1067 1327 1066 1316 1063 1305 c 0
 1060 1294 1056 1284 1050 1275 c 0
 1044 1266 1034 1258 1022 1253 c 0
 1010 1248 995 1246 979 1249 c 0
 884 1256 790 1260 694 1260 c 0
 660 1260 625 1259 591 1258 c 0
 461 1255 349 1247 256 1233 c 1
 251 1091 248 952 248 815 c 1xac
 348 815 483 820 655 830 c 0
 827 840 924 846 946 846 c 0
 977 846 1000 839 1013 825 c 0
 1026 811 1032 793 1032 768 c 0
 1032 709 1005 680 950 680 c 0
 949 680 947 680 946 680 c 0x1c
 921 680 816 673 630 659 c 0
 444 645 317 639 250 639 c 1
 250 609 250 569 251 521 c 0
 252 473 252 431 253 396 c 0
 254 361 254 326 255 289 c 0
 256 252 257 222 259 198 c 0
 261 174 264 157 268 147 c 0
 289 141 334 139 403 139 c 0xac
 452 139 515 140 589 143 c 0
 767 150 881 159 932 170 c 0
 951 173 967 174 981 173 c 0
 995 172 1007 170 1017 165 c 0
 1027 160 1035 154 1041 149 c 0
 1047 144 1053 137 1056 128 c 0
 1059 119 1062 111 1064 104 c 0
 1066 97 1067 91 1067 84 c 0
 1067 58 1057 34 1039 14 c 0
 1023 -4 1001 -13 971 -13 c 0
 967 -13 962 -12 958 -12 c 0x4c
EndSplineSet
EndChar

StartChar: F
Encoding: 70 70 38
Width: 1112
GlyphClass: 2
Flags: HMW
HStem: -43 43G 661 173 1273 173 1422 41G
VStem: 55 211 60 192
LayerCount: 2
Fore
SplineSet
266 49 m 0xe8
 263 20 250 -2 226 -19 c 0
 204 -35 179 -43 152 -43 c 0
 150 -43 147 -43 145 -43 c 0
 118 -43 96 -33 78 -15 c 0
 63 1 55 22 55 49 c 0xe8
 55 53 55 57 55 61 c 0
 58 106 60 182 60 289 c 0
 60 325 59 365 59 407 c 0
 58 577 54 752 49 932 c 0
 46 1023 45 1085 45 1116 c 0
 45 1147 46 1190 48 1243 c 0
 50 1296 51 1333 51 1352 c 0
 52 1389 63 1417 82 1435 c 0
 101 1453 125 1462 154 1462 c 0
 158 1462 161 1463 164 1463 c 0xd4
 196 1463 221 1450 238 1427 c 1
 372 1437 507 1443 644 1446 c 0
 678 1447 711 1447 742 1447 c 0
 836 1447 915 1444 981 1438 c 0
 1012 1435 1035 1427 1048 1414 c 0
 1061 1401 1067 1383 1067 1360 c 0
 1067 1334 1059 1312 1044 1294 c 0
 1029 1276 1006 1268 973 1268 c 0
 897 1272 817 1273 736 1273 c 0
 584 1273 424 1266 256 1253 c 1
 256 1230 255 1193 254 1142 c 0
 253 1091 251 1038 250 985 c 0
 249 958 249 932 249 905 c 0
 249 878 249 850 250 823 c 1
 312 830 380 834 454 834 c 0
 466 834 479 834 492 834 c 0
 581 833 661 828 733 822 c 0
 805 816 862 810 903 803 c 0
 936 798 959 788 971 776 c 0
 983 764 990 747 991 725 c 0
 991 713 990 701 988 691 c 0
 986 681 982 672 977 662 c 0
 972 652 962 645 950 640 c 0
 938 635 922 634 903 635 c 0
 861 642 803 647 729 652 c 0
 655 657 572 659 480 660 c 0
 474 660 468 661 462 661 c 0
 378 661 308 656 252 647 c 1xe4
 260 285 265 86 266 49 c 0xe8
EndSplineSet
EndChar

StartChar: G
Encoding: 71 71 39
Width: 1112
GlyphClass: 2
Flags: HMW
HStem: -64 184 569 168 1317 166
VStem: 27 205
LayerCount: 2
Fore
SplineSet
1026 500 m 0
 1023 471 1014 437 1000 399 c 0
 986 361 968 321 947 278 c 0
 926 235 898 193 865 153 c 0
 832 113 797 76 760 43 c 0
 723 10 680 -16 631 -36 c 0
 585 -55 540 -64 495 -64 c 0
 492 -64 488 -63 485 -63 c 0
 429 -63 377 -54 327 -35 c 0
 277 -16 234 10 199 41 c 0
 164 72 132 109 105 151 c 0
 78 193 59 237 46 284 c 0
 33 331 27 378 27 426 c 0
 27 527 36 625 56 721 c 0
 76 817 104 903 139 979 c 0
 174 1055 216 1126 262 1189 c 0
 308 1252 358 1306 411 1349 c 0
 464 1392 516 1425 571 1448 c 0
 626 1471 678 1483 729 1483 c 0
 786 1483 851 1470 921 1443 c 0
 991 1416 1037 1393 1059 1374 c 0
 1079 1354 1089 1330 1089 1302 c 0
 1089 1288 1086 1273 1081 1257 c 0
 1076 1239 1062 1227 1042 1219 c 0
 1032 1215 1022 1212 1011 1212 c 0
 1000 1212 989 1215 977 1219 c 0
 969 1222 950 1231 921 1249 c 0
 892 1267 861 1282 830 1296 c 0
 799 1310 771 1317 745 1317 c 0
 703 1317 657 1303 609 1275 c 0
 561 1247 514 1207 470 1154 c 0
 426 1101 385 1042 349 975 c 0
 313 908 284 833 263 748 c 0
 242 663 231 578 231 492 c 0
 231 432 243 372 266 315 c 0
 289 258 323 211 366 175 c 0
 409 139 456 121 508 121 c 0
 541 121 574 132 609 153 c 0
 644 174 675 200 702 233 c 0
 729 266 755 303 779 344 c 0
 803 385 824 425 841 463 c 0
 858 501 871 536 881 569 c 1
 795 565 711 558 628 547 c 0
 545 536 488 522 457 504 c 0
 446 498 435 495 424 495 c 0
 412 495 401 499 390 506 c 0
 369 520 357 538 354 561 c 0
 353 567 353 574 353 580 c 0
 353 623 378 657 430 682 c 0
 468 701 552 716 681 726 c 0
 773 733 851 737 914 737 c 0
 939 737 962 736 983 735 c 0
 1017 734 1041 728 1054 718 c 0
 1067 708 1076 692 1081 670 c 0
 1082 663 1082 657 1082 651 c 0
 1082 612 1067 586 1036 575 c 0
 1036 571 1034 561 1031 543 c 0
 1028 525 1026 511 1026 500 c 0
EndSplineSet
EndChar

StartChar: H
Encoding: 72 72 40
Width: 1112
GlyphClass: 2
Flags: HMW
HStem: -43 43G 639 176 1421 41G
VStem: 82 201 842 204
LayerCount: 2
Fore
SplineSet
1032 49 m 0
 1029 20 1016 -2 992 -19 c 0
 970 -35 946 -43 920 -43 c 0
 918 -43 915 -43 913 -43 c 0
 886 -43 864 -33 846 -15 c 0
 831 1 823 22 823 49 c 0
 823 53 823 57 823 61 c 0
 835 234 842 426 842 637 c 0
 842 658 842 679 842 700 c 1
 819 699 735 689 591 669 c 0
 447 649 344 639 283 639 c 1
 283 635 283 627 282 617 c 0
 281 607 281 600 281 596 c 0
 277 528 274 449 274 358 c 0
 274 267 277 164 281 49 c 0
 278 20 265 -2 240 -19 c 0
 217 -35 192 -43 166 -43 c 0
 164 -43 162 -43 160 -43 c 0
 133 -43 110 -33 92 -15 c 0
 77 1 69 22 69 49 c 0
 69 53 70 57 70 61 c 0
 71 80 72 112 73 154 c 0
 74 196 74 253 74 324 c 0
 74 395 75 459 76 516 c 0
 76 562 77 629 80 716 c 0
 83 803 84 866 85 908 c 0
 85 922 85 939 85 957 c 0
 85 994 85 1040 84 1096 c 0
 83 1157 82 1196 82 1213 c 0
 82 1230 83 1254 84 1284 c 0
 85 1314 87 1337 88 1352 c 0
 89 1389 100 1417 118 1435 c 0
 136 1453 159 1462 188 1462 c 0
 190 1462 193 1462 195 1462 c 0
 222 1462 245 1455 263 1439 c 0
 283 1422 293 1395 293 1358 c 0
 293 1344 291 1315 288 1270 c 0
 285 1225 283 1183 283 1145 c 0
 283 1110 284 1055 285 982 c 0
 286 909 287 853 287 815 c 1
 358 815 431 819 506 827 c 0
 581 835 650 844 711 852 c 0
 772 860 815 865 840 868 c 1
 840 878 839 892 838 910 c 0
 837 928 836 942 836 952 c 0
 835 1037 834 1093 834 1120 c 0
 834 1147 835 1190 837 1247 c 0
 839 1304 841 1340 842 1352 c 0
 842 1389 851 1417 871 1435 c 0
 891 1453 915 1462 942 1462 c 0
 944 1462 947 1462 949 1462 c 0
 976 1462 999 1455 1017 1439 c 0
 1037 1422 1047 1395 1047 1358 c 0
 1047 1332 1045 1279 1044 1198 c 0
 1043 1117 1042 1047 1041 986 c 0
 1041 974 1041 960 1041 946 c 0
 1041 889 1042 815 1044 723 c 0
 1045 691 1046 656 1046 617 c 0
 1046 540 1044 450 1040 346 c 0
 1035 190 1032 91 1032 49 c 0
EndSplineSet
EndChar

StartChar: I
Encoding: 73 73 41
Width: 1112
GlyphClass: 2
Flags: HMW
HStem: -29 164 -13 160 1253 182 1280 175
VStem: 444 209 461 206
LayerCount: 2
Fore
SplineSet
983 -23 m 0x68
 948 -18 889 -14 808 -13 c 0
 792 -13 776 -13 760 -13 c 0x68
 696 -13 633 -14 572 -16 c 0
 496 -19 416 -22 329 -25 c 0
 242 -28 181 -29 147 -29 c 0
 112 -29 86 -22 70 -8 c 0
 46 12 45 36 45 51 c 0
 45 73 52 92 66 108 c 0
 81 125 106 134 141 135 c 0
 198 138 299 141 444 145 c 1x88
 455 316 461 495 461 681 c 0
 461 749 460 817 459 887 c 0
 458 936 457 982 456 1026 c 0
 455 1070 455 1101 455 1120 c 0
 455 1139 456 1169 459 1209 c 0
 462 1249 463 1273 463 1280 c 0
 401 1281 345 1282 295 1282 c 0
 245 1282 202 1281 164 1280 c 0
 130 1280 103 1288 85 1303 c 0
 58 1325 57 1350 57 1365 c 0
 57 1387 65 1407 81 1423 c 0
 98 1441 125 1450 162 1450 c 0
 276 1453 381 1455 479 1455 c 0x94
 675 1455 840 1449 973 1436 c 0
 1033 1431 1064 1403 1067 1352 c 0
 1067 1340 1065 1328 1062 1316 c 0
 1059 1304 1052 1293 1044 1282 c 0
 1036 1271 1026 1262 1012 1256 c 0
 998 1250 984 1249 969 1253 c 0
 928 1260 828 1268 668 1276 c 1
 668 1265 667 1235 666 1184 c 0
 665 1133 664 1093 664 1063 c 2
 664 934 l 2
 664 878 665 823 666 768 c 0
 667 736 667 701 667 663 c 0x24
 667 588 666 502 662 406 c 0
 657 261 653 174 653 147 c 1
 712 147 780 147 858 146 c 0
 936 145 978 145 983 145 c 0
 1014 145 1037 138 1050 124 c 0
 1063 110 1069 91 1069 68 c 0
 1069 56 1068 44 1067 34 c 0
 1066 24 1062 13 1055 3 c 0
 1048 -7 1039 -14 1027 -19 c 0
 1015 -24 1001 -26 983 -23 c 0x68
EndSplineSet
EndChar

StartChar: J
Encoding: 74 74 42
Width: 1112
GlyphClass: 2
Flags: HMW
HStem: -72 207 1280 170
VStem: 39 182 578 193
LayerCount: 2
Fore
SplineSet
764 440 m 0
 753 317 737 217 715 141 c 0
 693 65 666 10 635 -23 c 0
 604 -56 566 -72 524 -72 c 0
 478 -72 432 -63 387 -47 c 0
 342 -31 302 -9 269 18 c 0
 236 45 205 76 176 108 c 0
 147 140 123 172 104 204 c 0
 85 236 70 265 59 290 c 0
 48 315 42 335 41 350 c 0
 38 362 38 377 39 394 c 0
 40 411 43 427 48 442 c 0
 53 457 61 470 73 482 c 0
 85 494 101 501 121 504 c 0
 128 505 135 506 142 506 c 0
 163 506 180 499 194 486 c 0
 212 469 221 448 221 422 c 0
 221 407 224 389 229 368 c 0
 234 347 244 322 257 294 c 0
 270 266 286 240 305 217 c 0
 324 194 351 175 386 159 c 0
 421 143 458 135 498 135 c 0
 547 135 575 254 582 492 c 0
 582 522 581 618 578 780 c 0
 577 861 575 944 575 1027 c 0
 575 1110 577 1193 578 1278 c 1
 486 1280 400 1282 321 1282 c 0
 268 1282 219 1281 172 1280 c 0
 138 1280 112 1288 94 1303 c 0
 68 1325 67 1350 67 1365 c 0
 67 1387 75 1407 91 1423 c 0
 108 1441 135 1450 170 1450 c 0
 284 1453 389 1455 487 1455 c 0
 683 1455 847 1449 979 1436 c 0
 1039 1431 1071 1403 1075 1352 c 0
 1075 1340 1073 1328 1069 1316 c 0
 1065 1304 1060 1293 1053 1282 c 0
 1046 1271 1036 1262 1022 1256 c 0
 1008 1250 993 1249 975 1253 c 0
 927 1260 854 1267 756 1272 c 1
 756 1232 757 1173 760 1092 c 0
 763 1011 765 937 767 871 c 0
 769 805 770 731 770 650 c 0
 770 569 768 499 764 440 c 0
EndSplineSet
EndChar

StartChar: K
Encoding: 75 75 43
Width: 1112
GlyphClass: 2
Flags: HMW
HStem: -43 43G 1421 41G
VStem: 59 195
LayerCount: 2
Fore
SplineSet
270 49 m 0
 267 20 254 -2 230 -19 c 0
 208 -35 183 -43 156 -43 c 0
 154 -43 152 -43 150 -43 c 0
 123 -43 100 -33 82 -15 c 0
 67 1 59 22 59 49 c 0
 59 53 59 57 59 61 c 0
 62 106 64 182 64 289 c 0
 64 325 63 365 63 407 c 0
 62 577 58 752 53 932 c 0
 50 1019 49 1078 49 1109 c 0
 49 1140 50 1184 52 1242 c 0
 54 1300 55 1337 55 1352 c 0
 56 1389 67 1417 86 1435 c 0
 105 1453 129 1462 158 1462 c 0
 160 1462 162 1462 164 1462 c 0
 191 1462 214 1455 232 1439 c 0
 252 1422 262 1395 262 1358 c 0
 262 1325 261 1254 258 1143 c 0
 255 1032 254 940 254 868 c 1
 303 916 377 988 475 1085 c 0
 573 1182 652 1259 711 1316 c 0
 770 1373 807 1407 823 1421 c 0
 842 1439 861 1451 879 1457 c 0
 897 1463 912 1464 925 1461 c 0
 938 1458 950 1451 961 1440 c 0
 976 1423 984 1405 984 1385 c 0
 984 1359 970 1328 944 1296 c 0
 924 1271 851 1197 727 1072 c 0
 603 947 492 838 395 745 c 1
 441 696 521 619 632 515 c 0
 743 411 840 319 922 240 c 0
 1004 161 1049 110 1059 90 c 0
 1063 77 1065 65 1065 53 c 0
 1065 41 1063 30 1059 20 c 0
 1051 0 1038 -16 1022 -27 c 0
 1005 -38 988 -44 971 -44 c 0
 942 -44 914 -27 885 8 c 0
 871 26 822 74 738 150 c 0
 654 226 564 310 467 402 c 0
 370 494 299 568 254 623 c 1
 254 582 l 2
 254 559 259 381 270 49 c 0
EndSplineSet
EndChar

StartChar: L
Encoding: 76 76 44
Width: 1112
GlyphClass: 2
Flags: HMW
HStem: -31 178
VStem: 49 211 110 188
LayerCount: 2
Fore
SplineSet
977 20 m 0xc0
 884 2 743 -10 555 -18 c 0
 367 -26 228 -31 139 -31 c 0
 112 -31 90 -21 72 -3 c 0
 57 13 49 34 49 61 c 0
 49 65 49 70 49 74 c 0xc0
 49 85 57 163 73 308 c 0
 89 453 99 594 106 729 c 0
 108 766 110 821 110 895 c 0
 110 944 110 1001 109 1067 c 0
 106 1231 104 1319 104 1333 c 0
 105 1370 116 1398 136 1417 c 0
 156 1436 180 1446 207 1446 c 0
 209 1446 211 1446 213 1446 c 0
 240 1446 264 1438 282 1422 c 0
 302 1405 311 1378 311 1341 c 0
 311 1301 310 1248 307 1180 c 0
 304 1112 301 1026 298 922 c 0xa0
 295 818 292 727 289 651 c 0
 288 594 282 510 273 401 c 0
 264 292 260 207 260 147 c 1
 270 147 280 147 290 147 c 0
 398 147 521 154 660 167 c 0
 812 181 914 195 965 209 c 0
 981 213 996 212 1009 207 c 0
 1022 202 1031 193 1039 182 c 0
 1047 171 1053 159 1058 146 c 0
 1063 133 1065 122 1065 111 c 0
 1065 86 1059 66 1047 51 c 0
 1035 36 1011 25 977 20 c 0xc0
EndSplineSet
EndChar

StartChar: M
Encoding: 77 77 45
Width: 1112
GlyphClass: 2
Flags: HMW
HStem: -20 43G<86 100>
VStem: 12 170 446 215
LayerCount: 2
Fore
SplineSet
182 121 m 0
 182 118 182 115 182 112 c 0
 182 72 174 41 156 17 c 0
 137 -8 113 -20 86 -20 c 0
 37 -19 12 31 12 131 c 0
 12 147 14 175 18 215 c 0
 22 255 28 307 34 371 c 0
 40 435 45 491 49 539 c 0
 50 555 52 580 55 614 c 0
 63 715 70 794 75 851 c 0
 80 908 86 978 96 1063 c 0
 106 1148 114 1215 122 1263 c 0
 130 1311 139 1345 150 1364 c 0
 164 1393 184 1413 212 1426 c 0
 235 1437 257 1443 279 1443 c 0
 284 1443 288 1442 293 1442 c 0
 354 1442 393 1417 408 1366 c 0
 424 1306 442 1207 461 1068 c 0
 480 929 499 771 519 594 c 0
 539 417 553 299 561 242 c 1
 575 435 590 608 608 762 c 0
 620 875 637 989 658 1104 c 0
 679 1219 699 1306 715 1366 c 0
 720 1386 732 1403 749 1416 c 0
 766 1429 784 1437 803 1440 c 0
 816 1442 827 1442 838 1442 c 0
 843 1442 849 1442 854 1442 c 2
 862 1442 l 1
 890 1442 l 2
 898 1442 908 1440 921 1437 c 0
 934 1434 944 1428 952 1423 c 0
 960 1418 968 1410 975 1398 c 0
 982 1386 986 1372 989 1356 c 0
 994 1315 1010 1115 1036 756 c 0
 1062 397 1082 193 1094 147 c 0
 1099 124 1102 104 1102 85 c 0
 1102 39 1085 8 1051 -8 c 0
 1039 -13 1027 -16 1015 -16 c 2
 973 -5 l 2
 947 8 927 36 915 80 c 0
 886 171 862 570 840 1276 c 1
 800 1078 774 897 762 735 c 0
 750 579 733 432 712 292 c 0
 691 152 674 66 662 35 c 0
 647 2 608 -14 547 -14 c 0
 544 -14 540 -15 537 -15 c 0
 514 -15 495 -10 480 -2 c 0
 463 8 451 21 446 39 c 0
 430 105 403 254 365 490 c 0
 327 726 291 951 260 1167 c 1
 256 1123 252 1075 249 1020 c 0
 246 965 243 918 240 878 c 0
 237 838 232 777 226 698 c 0
 220 619 216 559 213 518 c 0
 210 461 206 402 201 341 c 0
 196 280 190 233 187 198 c 0
 184 163 182 137 182 121 c 0
EndSplineSet
EndChar

StartChar: N
Encoding: 78 78 46
Width: 1112
GlyphClass: 2
Flags: HMW
HStem: -29 43G
VStem: 53 169 871 190 891 170
LayerCount: 2
Fore
SplineSet
909 -29 m 0xd0
 906 -29 903 -29 900 -29 c 0
 878 -29 860 -24 845 -15 c 0
 828 -5 816 9 809 27 c 0
 797 54 764 114 711 207 c 0
 658 300 603 397 546 497 c 0
 489 597 430 710 368 834 c 0
 306 958 258 1064 227 1151 c 1
 234 1032 237 919 237 813 c 0
 237 787 237 761 237 735 c 0
 235 607 231 476 227 343 c 0
 224 243 223 173 223 132 c 0
 223 115 223 92 223 92 c 0
 223 53 215 23 197 4 c 0
 179 -15 157 -25 132 -25 c 0
 130 -25 129 -25 127 -25 c 0
 98 -25 79 -13 69 10 c 0
 59 33 53 68 53 113 c 0
 53 140 55 246 59 430 c 0
 63 614 67 775 68 913 c 0
 68 947 68 982 68 1016 c 0
 68 1117 66 1216 63 1311 c 0
 63 1315 63 1318 63 1322 c 0
 63 1344 67 1364 74 1380 c 0
 82 1399 94 1413 109 1422 c 0
 124 1431 140 1438 156 1441 c 0
 172 1444 190 1445 209 1442 c 0
 268 1442 304 1417 319 1366 c 0
 348 1276 427 1110 557 868 c 0
 687 626 797 432 887 283 c 1
 891 369 892 480 892 617 c 0
 892 686 892 761 891 843 c 0xd0
 888 1088 882 1249 872 1327 c 0
 871 1333 871 1340 871 1346 c 0
 871 1371 878 1392 892 1410 c 0
 909 1433 931 1444 958 1444 c 0
 973 1444 986 1442 997 1439 c 0
 1008 1436 1017 1431 1023 1426 c 0
 1029 1421 1034 1414 1038 1403 c 0
 1042 1392 1046 1382 1048 1373 c 0
 1050 1364 1052 1350 1055 1331 c 0
 1058 1309 1060 1199 1061 1002 c 0xe0
 1061 966 1061 930 1061 894 c 0
 1061 730 1059 562 1054 389 c 0
 1048 177 1037 56 1022 23 c 0
 1008 -11 970 -29 909 -29 c 0xd0
EndSplineSet
EndChar

StartChar: O
Encoding: 79 79 47
Width: 1112
GlyphClass: 2
Flags: HMW
HStem: -49 172 1305 166
VStem: 55 197 861 197
LayerCount: 2
Fore
SplineSet
489 -49 m 0
 404 -48 329 -22 262 28 c 0
 195 78 144 144 108 228 c 0
 73 309 55 398 55 493 c 0
 55 497 55 500 55 504 c 2
 55 539 l 2
 55 600 55 649 56 686 c 0
 57 723 60 773 65 834 c 0
 70 895 77 954 89 1009 c 0
 101 1064 115 1116 133 1165 c 0
 167 1254 228 1327 315 1384 c 0
 402 1441 500 1470 606 1470 c 0
 661 1470 713 1460 764 1439 c 0
 815 1418 859 1388 899 1348 c 0
 939 1308 971 1257 998 1196 c 0
 1025 1135 1042 1065 1049 989 c 0
 1054 921 1057 848 1058 770 c 0
 1058 760 1058 751 1058 741 c 0
 1058 673 1056 604 1052 534 c 0
 1047 454 1038 390 1024 344 c 0
 1006 280 984 224 958 178 c 0
 932 132 903 94 872 65 c 0
 841 36 805 12 764 -5 c 0
 723 -22 681 -34 638 -40 c 0
 595 -46 545 -49 489 -49 c 0
489 123 m 0
 526 123 561 127 594 136 c 0
 627 145 659 159 690 179 c 0
 721 199 749 225 774 258 c 0
 799 291 817 329 831 373 c 0
 836 391 843 432 848 496 c 0
 853 560 858 636 861 725 c 0
 862 751 863 777 863 803 c 0
 863 865 860 926 854 987 c 0
 846 1077 817 1152 767 1213 c 0
 717 1274 656 1305 584 1305 c 0
 510 1305 448 1278 398 1224 c 0
 348 1170 313 1094 291 997 c 0
 266 887 253 761 253 617 c 0
 253 591 253 564 254 537 c 0
 255 493 259 453 265 416 c 0
 271 379 280 342 291 305 c 0
 302 268 316 237 334 210 c 0
 352 183 373 162 400 146 c 0
 427 130 456 123 489 123 c 0
EndSplineSet
EndChar

StartChar: P
Encoding: 80 80 48
Width: 1112
GlyphClass: 2
Flags: HMW
HStem: -39 43G 471 168 1290 166
VStem: 96 193 106 210 852 188
LayerCount: 2
Fore
SplineSet
316 45 m 0xec
 316 19 305 -2 282 -17 c 0
 260 -31 235 -39 208 -39 c 0
 206 -39 203 -39 201 -39 c 0
 172 -39 148 -30 130 -13 c 0
 114 2 106 22 106 49 c 0xec
 106 53 106 57 106 61 c 0
 107 83 109 116 109 159 c 0
 109 202 109 255 108 318 c 0
 107 381 105 444 104 503 c 0
 103 562 101 635 99 721 c 0
 97 807 96 879 96 936 c 0
 96 966 96 998 96 1034 c 0xf4
 96 1106 96 1191 98 1288 c 0
 91 1295 87 1298 86 1298 c 0
 75 1314 72 1332 75 1349 c 0
 78 1366 85 1381 97 1395 c 0
 109 1409 121 1416 135 1419 c 0
 184 1430 256 1439 351 1446 c 0
 446 1453 513 1456 551 1456 c 0
 644 1456 727 1440 800 1407 c 0
 873 1374 931 1324 974 1258 c 0
 1017 1192 1039 1113 1040 1022 c 0
 1040 946 1027 874 1002 806 c 0
 977 738 943 680 900 631 c 0
 857 582 804 543 741 514 c 0
 678 485 611 471 537 471 c 0
 431 471 346 479 285 494 c 1
 288 437 291 382 295 329 c 0
 299 276 303 222 307 165 c 0
 312 101 316 50 316 45 c 0xec
551 1290 m 0
 503 1290 417 1285 293 1274 c 1
 293 1247 292 1196 289 1122 c 0xf4
 286 1048 284 973 283 895 c 0
 282 817 281 742 281 668 c 1
 333 649 394 639 463 639 c 0
 468 639 472 639 477 639 c 0
 517 639 553 642 585 647 c 0
 617 652 645 660 669 670 c 0
 693 680 714 692 733 708 c 0
 752 724 768 739 781 755 c 0
 794 771 805 789 814 810 c 0
 823 831 830 850 835 867 c 0
 840 884 843 904 846 927 c 0
 849 950 850 968 851 982 c 0
 852 996 852 1014 852 1034 c 0
 852 1072 844 1107 830 1138 c 0
 816 1169 798 1193 777 1211 c 0
 756 1229 732 1245 705 1257 c 0
 678 1269 651 1278 626 1283 c 0
 601 1288 576 1290 551 1290 c 0
EndSplineSet
EndChar

StartChar: Q
Encoding: 81 81 49
Width: 1112
GlyphClass: 2
Flags: HMW
HStem: -50 172 1305 166
VStem: 47 196 467 150 862 191
LayerCount: 2
Fore
SplineSet
1020 -422 m 0
 1005 -431 990 -436 974 -436 c 0
 966 -436 958 -434 950 -432 c 0
 925 -425 904 -410 885 -385 c 0
 866 -360 832 -315 786 -248 c 0
 740 -181 695 -113 651 -43 c 1
 623 -47 593 -50 560 -50 c 0
 552 -50 543 -49 535 -49 c 0
 475 -49 419 -39 367 -20 c 0
 315 -1 270 25 232 59 c 0
 194 93 162 134 135 181 c 0
 108 228 88 279 74 333 c 0
 60 387 52 444 49 504 c 0
 48 539 47 573 47 606 c 0
 47 825 74 1009 129 1157 c 0
 164 1247 225 1322 311 1381 c 0
 397 1440 494 1470 600 1470 c 0
 656 1470 709 1461 757 1442 c 0
 805 1423 849 1395 889 1358 c 0
 929 1321 961 1271 988 1208 c 0
 1015 1145 1032 1072 1042 989 c 0
 1049 916 1054 830 1054 732 c 0
 1054 704 1054 674 1053 644 c 0
 1050 508 1041 405 1026 334 c 0
 997 187 930 81 825 18 c 1
 852 -22 881 -61 912 -102 c 0
 943 -143 972 -182 1000 -217 c 0
 1028 -252 1047 -277 1057 -289 c 0
 1067 -304 1070 -320 1067 -338 c 0
 1064 -356 1059 -372 1050 -388 c 0
 1041 -404 1031 -415 1020 -422 c 0
248 537 m 0
 252 459 267 389 292 327 c 0
 317 265 351 215 393 178 c 0
 435 141 483 123 535 123 c 2
 555 123 l 1
 522 184 499 232 485 266 c 0
 473 299 467 330 467 355 c 0
 467 391 479 418 504 438 c 0
 516 448 530 454 544 456 c 0
 558 458 572 453 585 443 c 0
 598 433 608 417 616 397 c 0
 641 329 677 255 723 174 c 1
 782 214 821 278 840 365 c 0
 844 385 848 426 853 488 c 0
 858 550 861 628 862 721 c 0
 862 731 862 742 862 752 c 0
 862 834 858 912 848 987 c 0
 837 1084 807 1162 759 1219 c 0
 711 1276 650 1305 578 1305 c 0
 503 1305 440 1278 390 1225 c 0
 340 1172 305 1097 283 1001 c 0
 257 896 243 784 243 664 c 0
 243 623 245 580 248 537 c 0
EndSplineSet
EndChar

StartChar: R
Encoding: 82 82 50
Width: 1112
GlyphClass: 2
Flags: HMW
HStem: -39 43G 1421 41G
VStem: 57 195 66 210 67 191 74 166 846 188
LayerCount: 2
Fore
SplineSet
277 45 m 0xd2
 277 19 266 -2 243 -17 c 0
 221 -31 195 -39 167 -39 c 0
 165 -39 163 -39 160 -39 c 0
 131 -39 107 -30 89 -13 c 0
 74 1 66 20 66 44 c 0xd2
 66 49 67 55 68 61 c 0
 73 132 76 193 76 243 c 0
 76 293 75 415 74 610 c 0xc6
 74 636 75 692 78 777 c 0
 79 820 80 862 80 902 c 0
 80 942 79 982 78 1020 c 0
 77 1066 73 1129 67 1208 c 0xca
 61 1287 57 1336 57 1352 c 2
 57 1364 l 2xe2
 57 1366 57 1367 57 1369 c 0
 57 1393 66 1414 84 1432 c 0
 101 1453 123 1462 152 1462 c 0
 154 1462 156 1462 158 1462 c 0
 185 1462 207 1457 223 1446 c 1
 336 1441 439 1426 531 1402 c 0
 623 1378 701 1348 762 1313 c 0
 823 1278 876 1237 918 1192 c 0
 960 1147 990 1102 1008 1057 c 0
 1026 1012 1034 966 1034 920 c 0
 1034 886 1030 854 1021 825 c 0
 1012 796 999 772 983 751 c 0
 967 730 946 710 920 694 c 0
 894 678 866 664 837 652 c 0
 808 640 772 631 732 622 c 0
 692 613 652 606 612 601 c 0
 572 596 528 592 479 588 c 1
 617 517 739 434 844 339 c 0
 949 244 1018 163 1051 96 c 0
 1055 84 1057 72 1057 61 c 0
 1057 50 1055 39 1051 29 c 0
 1043 9 1030 -8 1012 -20 c 0
 997 -31 981 -37 964 -37 c 0
 958 -37 951 -36 945 -35 c 0
 921 -30 899 -13 879 14 c 0
 857 43 825 78 785 120 c 0
 745 162 697 208 640 259 c 0
 583 310 518 361 446 411 c 0
 374 461 304 500 236 530 c 1
 240 451 247 358 258 250 c 0xca
 264 192 277 65 277 45 c 0xd2
262 1020 m 0
 262 1005 261 984 259 959 c 0
 257 934 255 912 254 892 c 0
 253 872 250 845 247 810 c 0
 244 775 241 750 240 735 c 1xc6
 256 732 277 731 303 731 c 0
 322 731 344 731 369 733 c 0
 425 736 472 739 510 742 c 0
 548 745 587 751 626 757 c 0
 665 763 696 770 721 778 c 0
 746 786 768 797 788 809 c 0
 808 821 824 836 833 853 c 0
 842 870 846 889 846 911 c 0
 846 949 832 987 804 1022 c 0
 776 1057 740 1089 697 1116 c 0
 654 1143 606 1168 551 1191 c 0
 496 1214 444 1231 394 1245 c 0
 344 1259 297 1270 252 1278 c 1xe2
 256 1178 259 1092 262 1020 c 0
EndSplineSet
EndChar

StartChar: S
Encoding: 83 83 51
Width: 1112
GlyphClass: 2
Flags: HMW
HStem: -59 174<452 496 452 502> 1321 162
VStem: 106 205 868 203
LayerCount: 2
Fore
SplineSet
63 135 m 0
 50 162 44 186 44 206 c 0
 44 213 44 219 46 225 c 0
 52 248 67 267 90 279 c 0
 106 286 119 290 129 293 c 0
 139 296 149 296 161 295 c 0
 173 294 184 289 195 279 c 0
 206 269 217 256 231 238 c 0
 256 201 290 171 333 148 c 0
 376 125 424 115 479 115 c 0
 512 115 547 119 582 128 c 0
 617 137 652 151 686 169 c 0
 720 187 751 208 778 233 c 0
 805 258 828 288 844 321 c 0
 860 354 868 389 868 426 c 0
 868 446 867 465 864 481 c 0
 861 497 857 516 849 535 c 0
 841 554 831 571 818 587 c 0
 805 603 787 618 764 634 c 0
 741 650 713 664 682 676 c 0
 651 688 612 700 567 710 c 0
 522 720 472 728 416 733 c 0
 367 738 322 752 282 772 c 0
 242 792 209 818 184 847 c 0
 159 876 141 907 127 939 c 0
 113 971 106 1003 106 1036 c 0
 106 1082 114 1127 130 1170 c 0
 146 1213 170 1254 203 1292 c 0
 236 1330 276 1364 322 1392 c 0
 368 1420 423 1442 488 1458 c 0
 553 1474 622 1483 696 1483 c 0
 733 1483 784 1480 848 1474 c 0
 912 1468 956 1460 979 1450 c 0
 1005 1440 1023 1425 1035 1405 c 0
 1044 1388 1049 1371 1049 1353 c 0
 1049 1349 1050 1343 1049 1339 c 0
 1048 1323 1042 1310 1032 1300 c 0
 1022 1290 1011 1285 997 1284 c 0
 983 1283 972 1282 961 1283 c 0
 950 1284 938 1286 926 1290 c 0
 923 1290 918 1291 913 1294 c 0
 888 1299 869 1305 855 1308 c 0
 841 1311 817 1314 786 1317 c 0
 755 1320 720 1321 680 1321 c 0
 617 1321 558 1311 503 1293 c 0
 448 1275 402 1247 366 1210 c 0
 330 1173 311 1132 311 1087 c 0
 311 1034 335 989 381 952 c 0
 427 915 493 896 578 893 c 0
 654 889 721 877 780 857 c 0
 839 837 887 813 922 785 c 0
 957 757 987 725 1011 687 c 0
 1035 649 1051 612 1059 575 c 0
 1067 538 1071 501 1071 461 c 0
 1071 398 1060 339 1039 284 c 0
 1018 229 989 180 951 138 c 0
 913 96 870 61 819 31 c 0
 768 1 713 -22 654 -37 c 0
 595 -52 534 -59 471 -59 c 0
 375 -59 291 -41 217 -3 c 0
 143 35 92 80 63 135 c 0
EndSplineSet
EndChar

StartChar: T
Encoding: 84 84 52
Width: 1112
GlyphClass: 2
Flags: HMW
HStem: -27 43G 1272 164
VStem: 458 205 477 211
LayerCount: 2
Fore
SplineSet
688 68 m 0xd0
 685 39 672 16 647 -2 c 0
 624 -18 599 -27 573 -27 c 0
 571 -27 569 -27 567 -27 c 0
 540 -27 518 -17 500 1 c 0
 485 17 477 39 477 67 c 0xd0
 477 71 477 75 477 80 c 0
 478 99 479 132 479 177 c 0
 479 275 476 432 470 650 c 0
 462 926 458 1119 458 1228 c 0
 458 1245 459 1259 459 1272 c 1
 280 1280 177 1286 150 1290 c 0
 49 1306 43 1352 43 1376 c 0
 43 1400 52 1421 68 1440 c 0
 81 1455 99 1463 122 1463 c 0
 130 1463 138 1462 147 1460 c 0
 222 1448 500 1440 979 1436 c 0
 1012 1436 1035 1427 1049 1411 c 0
 1063 1395 1070 1375 1071 1352 c 0
 1071 1325 1064 1300 1048 1280 c 0
 1034 1262 1013 1253 986 1253 c 0
 982 1253 979 1253 975 1253 c 0
 964 1253 861 1257 664 1264 c 1xe0
 665 985 673 587 688 68 c 0xd0
EndSplineSet
EndChar

StartChar: U
Encoding: 85 85 53
Width: 1112
GlyphClass: 2
Flags: HMW
HStem: -59 186 1411 41G
VStem: 33 192 890 191
LayerCount: 2
Fore
SplineSet
1073 532 m 0
 1072 471 1064 413 1050 359 c 0
 1036 305 1017 259 995 219 c 0
 973 179 948 144 919 112 c 0
 890 80 858 53 826 32 c 0
 794 11 760 -6 725 -20 c 0
 690 -34 655 -44 622 -50 c 0
 589 -56 555 -59 522 -59 c 0
 482 -59 442 -54 401 -43 c 0
 360 -32 318 -14 276 13 c 0
 234 40 196 74 163 114 c 0
 130 154 102 206 80 271 c 0
 58 336 46 408 43 489 c 0
 36 744 33 950 33 1105 c 0
 33 1202 34 1278 37 1335 c 0
 37 1372 48 1401 68 1421 c 0
 88 1441 112 1452 139 1452 c 0
 196 1452 225 1418 225 1348 c 0
 225 885 229 605 236 508 c 0
 237 470 241 433 249 399 c 0
 257 365 268 331 283 298 c 0
 298 265 316 235 338 210 c 0
 360 185 388 165 422 150 c 0
 456 135 495 127 539 127 c 0
 637 127 716 159 776 223 c 0
 837 287 873 386 881 520 c 0
 885 577 888 650 889 737 c 0
 890 795 890 850 890 899 c 0
 890 924 890 947 890 970 c 0
 889 1038 889 1109 888 1185 c 0
 887 1261 887 1305 887 1319 c 0
 887 1349 889 1374 894 1394 c 0
 899 1414 906 1428 916 1436 c 0
 926 1444 936 1449 945 1451 c 0
 954 1453 966 1454 981 1454 c 0
 1007 1454 1029 1444 1046 1424 c 0
 1063 1404 1072 1376 1073 1341 c 0
 1078 1235 1081 1114 1081 979 c 0
 1081 844 1078 695 1073 532 c 0
EndSplineSet
EndChar

StartChar: V
Encoding: 86 86 54
Width: 1112
GlyphClass: 2
Flags: HMW
HStem: -25 43G 1414 41G
VStem: 903 199
LayerCount: 2
Fore
SplineSet
666 55 m 0
 652 1 618 -25 566 -25 c 0
 562 -25 559 -25 555 -25 c 0
 496 -25 456 0 436 49 c 0
 379 195 299 422 197 731 c 0
 95 1040 35 1226 20 1292 c 0
 15 1315 12 1336 12 1354 c 0
 12 1401 31 1432 66 1448 c 0
 78 1453 89 1455 101 1455 c 0
 115 1455 128 1452 141 1445 c 0
 166 1432 185 1404 199 1360 c 0
 200 1352 214 1308 239 1229 c 0
 264 1150 288 1071 311 995 c 0
 334 919 361 833 391 737 c 0
 421 641 450 552 477 468 c 0
 504 384 527 315 545 262 c 1
 597 414 669 635 763 924 c 0
 857 1213 903 1359 903 1360 c 0
 917 1402 938 1430 965 1444 c 0
 980 1452 994 1455 1009 1455 c 0
 1021 1455 1032 1453 1044 1448 c 0
 1059 1441 1072 1430 1082 1416 c 0
 1092 1402 1099 1384 1102 1363 c 0
 1102 1359 1103 1355 1103 1351 c 0
 1103 1333 1097 1313 1087 1292 c 0
 1057 1221 988 1027 877 708 c 0
 766 389 696 171 666 55 c 0
EndSplineSet
EndChar

StartChar: W
Encoding: 87 87 55
Width: 1112
GlyphClass: 2
Flags: HMW
HStem: -23 43G 1415 41G
VStem: 17 177 471 215 928 170
LayerCount: 2
Fore
SplineSet
428 53 m 0
 423 33 411 16 393 4 c 0
 375 -8 357 -16 339 -19 c 0
 321 -22 303 -24 285 -23 c 2
 276 -23 l 2
 265 -23 257 -22 249 -21 c 0
 241 -20 231 -19 219 -16 c 0
 207 -13 196 -9 188 -4 c 0
 180 1 173 10 166 22 c 0
 159 34 155 48 152 64 c 0
 152 65 144 107 130 190 c 0
 116 273 105 348 98 414 c 0
 82 571 55 864 18 1294 c 0
 17 1305 17 1316 17 1326 c 0
 17 1394 38 1436 78 1454 c 0
 89 1459 101 1461 115 1460 c 0
 129 1459 142 1455 154 1450 c 0
 166 1445 176 1434 184 1418 c 0
 194 1398 194 1391 194 1357 c 0
 194 1269 216 981 260 492 c 0
 264 446 271 382 281 301 c 0
 291 220 296 172 299 154 c 1
 304 195 314 274 328 391 c 0
 342 508 354 615 366 709 c 0
 378 803 390 904 404 1011 c 0
 418 1118 431 1206 443 1276 c 0
 455 1346 464 1389 471 1407 c 0
 486 1440 525 1456 586 1456 c 0
 589 1456 593 1456 596 1456 c 0
 619 1456 637 1452 653 1444 c 0
 671 1434 682 1421 686 1403 c 0
 691 1380 699 1339 708 1280 c 0
 717 1221 724 1164 731 1109 c 0
 738 1054 747 975 759 873 c 0
 771 771 779 694 786 639 c 0
 796 558 817 425 848 238 c 1
 871 431 893 688 913 1010 c 0
 923 1154 928 1252 928 1304 c 0
 928 1311 928 1330 928 1330 c 0
 928 1370 936 1400 954 1424 c 0
 972 1448 994 1460 1020 1460 c 0
 1021 1460 1023 1460 1024 1460 c 0
 1073 1459 1098 1411 1098 1318 c 0
 1098 1234 1090 1125 1077 989 c 0
 1066 857 1058 761 1053 702 c 0
 1048 643 1039 557 1027 443 c 0
 1015 329 1004 241 994 180 c 0
 984 119 974 77 963 57 c 0
 949 28 927 8 898 -6 c 0
 874 -17 850 -23 828 -23 c 0
 824 -23 819 -23 815 -23 c 0
 755 -23 717 2 702 53 c 0
 669 183 644 357 625 575 c 0
 620 634 610 739 597 889 c 0
 584 1039 574 1142 567 1198 c 1
 547 978 524 750 497 513 c 0
 470 276 447 123 428 53 c 0
EndSplineSet
EndChar

StartChar: X
Encoding: 88 88 56
Width: 1112
GlyphClass: 2
Flags: HW
LayerCount: 2
Fore
SplineSet
207 0 m 0
 191 -22 173 -36 155 -43 c 0
 137 -50 119 -51 105 -46 c 0
 91 -41 77 -32 63 -20 c 0
 42 -1 33 21 33 47 c 0
 33 71 41 99 59 129 c 0
 70 147 127 234 229 391 c 0
 331 548 404 663 446 735 c 1
 94 1266 l 2
 72 1300 61 1329 61 1355 c 0
 61 1380 71 1402 92 1419 c 0
 106 1430 121 1438 138 1443 c 0
 155 1448 175 1446 197 1438 c 0
 219 1430 238 1414 256 1391 c 0
 300 1334 408 1164 580 883 c 1
 738 1167 839 1339 881 1399 c 0
 896 1421 913 1436 931 1444 c 0
 949 1452 966 1455 982 1452 c 0
 998 1449 1012 1444 1024 1434 c 0
 1036 1424 1046 1413 1052 1400 c 0
 1058 1387 1060 1371 1059 1352 c 0
 1058 1333 1050 1313 1038 1294 c 0
 1028 1278 977 1194 883 1042 c 0
 789 890 724 786 690 727 c 2
 687 723 l 2
 685 720 683 718 682 717 c 0
 715 664 775 563 863 415 c 0
 951 267 1009 173 1038 133 c 0
 1056 108 1068 88 1074 70 c 0
 1080 52 1082 37 1080 25 c 0
 1078 13 1073 1 1063 -10 c 0
 1051 -24 1037 -34 1021 -40 c 0
 1005 -46 987 -46 965 -39 c 0
 943 -32 920 -16 895 10 c 0
 869 39 838 83 800 143 c 0
 762 203 718 281 666 375 c 0
 614 469 576 535 553 573 c 1
 509 510 443 403 356 251 c 0
 269 99 219 15 207 0 c 0
EndSplineSet
EndChar

StartChar: Y
Encoding: 89 89 57
Width: 1112
GlyphClass: 2
Flags: HMW
HStem: 1423 41G
VStem: 467 227
LayerCount: 2
Fore
SplineSet
498 -61 m 0
 484 -51 474 -41 466 -27 c 0
 458 -13 454 2 453 20 c 0
 452 38 456 58 467 78 c 1
 467 502 l 1
 441 551 405 614 360 692 c 0
 315 770 284 823 268 852 c 0
 250 885 223 931 187 991 c 0
 151 1051 122 1103 99 1147 c 0
 76 1191 57 1234 41 1278 c 0
 31 1303 27 1325 27 1344 c 0
 27 1349 27 1354 28 1359 c 0
 31 1382 37 1399 47 1413 c 0
 57 1427 70 1437 86 1444 c 0
 98 1449 111 1453 125 1454 c 0
 139 1455 153 1454 168 1449 c 0
 183 1444 197 1433 210 1417 c 0
 223 1401 234 1380 242 1354 c 0
 250 1327 259 1299 270 1272 c 0
 281 1245 290 1222 297 1204 c 0
 304 1186 317 1161 335 1128 c 0
 353 1095 365 1076 369 1068 c 0
 373 1060 386 1037 409 999 c 0
 432 961 442 941 442 940 c 0
 488 859 528 779 561 700 c 1
 565 708 578 736 600 784 c 0
 619 826 652 895 700 991 c 0
 748 1087 784 1161 807 1214 c 0
 814 1230 826 1256 842 1289 c 0
 858 1322 871 1348 879 1366 c 0
 887 1389 897 1408 910 1424 c 0
 923 1440 936 1451 950 1456 c 0
 964 1461 977 1464 990 1464 c 0
 1003 1464 1015 1461 1026 1456 c 0
 1037 1451 1047 1444 1056 1435 c 0
 1065 1426 1072 1415 1079 1401 c 0
 1086 1387 1090 1371 1089 1352 c 0
 1088 1333 1082 1311 1071 1288 c 0
 1064 1272 1051 1244 1031 1205 c 0
 1011 1166 995 1135 983 1110 c 0
 971 1081 946 1030 908 958 c 0
 870 886 840 826 817 780 c 0
 794 729 766 670 733 602 c 0
 698 530 693 417 693 302 c 0
 693 255 694 209 694 164 c 0
 694 15 685 -107 605 -107 c 0
 578 -107 544 -93 498 -61 c 0
EndSplineSet
EndChar

StartChar: Z
Encoding: 90 90 58
Width: 1112
GlyphClass: 2
Flags: HMW
HStem: -7 179 1259 191 1267 159
LayerCount: 2
Fore
SplineSet
1069 71 m 0xa0
 1069 47 1062 26 1048 9 c 0
 1032 -9 1005 -18 965 -18 c 0
 955 -18 891 -16 772 -13 c 0
 653 -10 544 -8 445 -7 c 0
 425 -7 405 -7 385 -7 c 0
 304 -7 219 -8 131 -10 c 0
 106 -10 86 3 69 30 c 0
 52 57 43 81 43 106 c 0
 43 139 71 207 127 309 c 0
 171 387 270 541 426 770 c 0
 582 999 698 1167 776 1272 c 1
 706 1271 599 1269 453 1267 c 0xa0
 307 1265 210 1263 162 1260 c 0
 160 1260 157 1259 155 1259 c 0
 128 1259 108 1268 95 1284 c 0
 81 1302 74 1323 74 1348 c 0
 74 1349 74 1351 74 1352 c 0
 74 1376 86 1398 109 1418 c 0
 134 1439 163 1450 197 1450 c 0xc0
 227 1450 269 1446 322 1438 c 0
 375 1430 419 1425 453 1425 c 0
 513 1425 573 1426 633 1428 c 0
 693 1430 762 1435 839 1440 c 0
 916 1445 959 1448 969 1448 c 0
 970 1448 972 1448 973 1448 c 0
 994 1448 1013 1438 1029 1418 c 0
 1046 1397 1056 1372 1057 1343 c 0
 1057 1332 1048 1316 1031 1294 c 0
 1014 1272 993 1249 968 1222 c 0
 943 1195 926 1173 918 1157 c 0
 876 1089 810 991 722 865 c 0
 634 739 548 613 465 489 c 0
 382 365 315 255 264 158 c 1
 417 168 558 172 686 172 c 0
 814 172 909 168 969 160 c 0
 1007 153 1033 143 1047 130 c 0
 1056 121 1069 104 1069 71 c 0xa0
EndSplineSet
EndChar

StartChar: bracketleft
Encoding: 91 91 59
Width: 1112
GlyphClass: 2
Flags: HMW
HStem: -168 160 1572 167
VStem: 190 201 203 189
LayerCount: 2
Fore
SplineSet
840 -174 m 0xe0
 805 -170 762 -168 712 -168 c 0
 662 -168 615 -169 573 -171 c 0
 531 -173 482 -175 426 -178 c 0
 370 -181 325 -182 291 -182 c 0
 257 -182 230 -176 212 -162 c 0
 194 -148 184 -129 184 -106 c 0
 184 -94 186 -82 190 -68 c 2
 190 -47 l 2xe0
 195 23 201 150 206 334 c 0
 209 433 210 533 210 632 c 0
 210 717 209 802 207 887 c 0
 206 931 204 979 203 1034 c 0
 202 1061 202 1090 202 1118 c 0
 202 1146 202 1175 203 1204 c 0
 204 1263 205 1314 206 1357 c 0
 207 1400 208 1447 209 1500 c 0
 210 1553 211 1583 211 1593 c 2
 211 1606 l 2
 205 1618 199 1638 199 1650 c 0
 199 1672 207 1691 224 1708 c 0
 242 1726 269 1735 303 1735 c 0
 409 1738 506 1739 593 1739 c 0
 680 1739 757 1740 827 1743 c 0
 858 1743 882 1734 897 1718 c 0
 912 1702 921 1682 922 1659 c 0
 922 1648 919 1636 916 1624 c 0
 913 1612 908 1600 901 1589 c 0
 894 1578 884 1570 871 1565 c 0
 858 1560 842 1558 823 1561 c 0
 769 1568 690 1571 584 1571 c 0
 531 1571 472 1571 406 1569 c 1
 406 1540 403 1467 399 1348 c 0
 395 1229 393 1130 392 1051 c 0
 392 1025 392 997 392 967 c 0xd0
 392 908 392 841 393 768 c 0
 394 727 395 671 395 600 c 0
 395 529 394 444 393 343 c 0
 391 209 390 110 390 47 c 0
 390 15 391 -6 391 -20 c 1
 409 -20 428 -21 447 -21 c 0
 514 -21 589 -19 669 -15 c 0
 772 -10 829 -8 840 -8 c 0
 871 -8 893 -15 906 -29 c 0
 919 -43 927 -61 930 -86 c 0
 930 -98 928 -110 925 -120 c 0
 922 -130 916 -141 910 -151 c 0
 904 -161 896 -168 884 -172 c 0
 872 -176 858 -177 840 -174 c 0xe0
EndSplineSet
EndChar

StartChar: backslash
Encoding: 92 92 60
Width: 1112
GlyphClass: 2
Flags: HW
LayerCount: 2
Fore
SplineSet
662 365 m 0
 628 431 529 599 364 871 c 0
 199 1143 98 1314 63 1384 c 0
 51 1408 46 1430 46 1450 c 0
 46 1458 47 1467 49 1474 c 0
 56 1499 71 1518 96 1532 c 0
 114 1539 132 1542 150 1543 c 0
 168 1544 186 1539 205 1527 c 0
 224 1515 239 1499 250 1477 c 0
 350 1278 443 1100 532 944 c 0
 674 689 845 398 1044 70 c 0
 1060 42 1069 12 1069 -20 c 0
 1069 -26 1069 -32 1068 -38 c 0
 1065 -77 1052 -103 1030 -115 c 0
 1017 -123 1004 -127 989 -127 c 0
 975 -127 959 -124 943 -116 c 0
 910 -100 882 -73 860 -35 c 0
 848 -13 817 49 769 150 c 0
 721 251 685 323 662 365 c 0
EndSplineSet
EndChar

StartChar: bracketright
Encoding: 93 93 61
Width: 1112
GlyphClass: 2
Flags: HMW
HStem: -178 157 1571 171
VStem: 707 201 719 187
LayerCount: 2
Fore
SplineSet
928 -106 m 0xd0
 928 -129 919 -148 902 -162 c 0
 885 -176 858 -182 823 -182 c 0
 788 -182 743 -181 688 -178 c 0
 633 -175 585 -173 543 -171 c 0
 501 -169 454 -168 403 -168 c 0
 352 -168 309 -170 272 -174 c 0
 256 -177 241 -176 229 -172 c 0
 217 -168 208 -161 202 -151 c 0
 196 -141 191 -130 189 -120 c 0
 187 -110 186 -98 186 -86 c 0
 187 -63 195 -44 207 -30 c 0
 219 -16 241 -8 272 -8 c 0
 282 -8 339 -10 443 -15 c 0
 524 -19 599 -21 667 -21 c 0
 686 -21 705 -20 723 -20 c 1
 723 21 722 142 720 343 c 0
 719 429 719 505 719 569 c 0xd0
 719 655 719 721 721 768 c 0
 722 823 722 875 722 922 c 0
 722 969 722 1013 721 1052 c 0
 720 1131 717 1229 714 1348 c 0
 711 1467 708 1540 707 1569 c 1
 641 1571 580 1571 527 1571 c 0
 421 1571 342 1568 289 1561 c 0
 271 1558 256 1560 243 1565 c 0
 230 1570 220 1578 212 1589 c 0
 204 1600 199 1611 196 1623 c 0
 193 1635 190 1647 190 1659 c 0
 191 1684 200 1703 214 1719 c 0
 228 1735 252 1743 285 1743 c 0
 356 1742 435 1741 522 1741 c 0
 609 1741 706 1739 811 1735 c 0
 846 1735 873 1726 890 1708 c 0
 906 1692 914 1672 914 1650 c 0
 914 1630 911 1618 905 1606 c 2
 905 1593 l 2
 905 1585 906 1554 907 1501 c 0xe0
 908 1448 909 1400 909 1357 c 0
 909 1314 910 1263 911 1204 c 0
 912 1165 913 1126 913 1089 c 0
 913 1070 912 1052 912 1034 c 0
 911 979 910 931 909 887 c 0
 907 786 906 686 906 585 c 0
 906 501 906 418 908 334 c 0
 911 150 917 23 922 -47 c 2
 922 -68 l 2
 926 -82 928 -94 928 -106 c 0xd0
EndSplineSet
EndChar

StartChar: asciicircum
Encoding: 94 94 62
Width: 1112
GlyphClass: 2
Flags: HW
LayerCount: 2
Fore
SplineSet
236 1319 m 2
 213 1296 l 2
 182 1261 158 1238 143 1228 c 0
 128 1218 111 1217 92 1225 c 0
 81 1230 70 1238 60 1248 c 0
 50 1258 41 1271 33 1285 c 0
 25 1299 22 1316 25 1335 c 0
 28 1354 36 1374 51 1393 c 0
 78 1428 114 1471 158 1522 c 0
 202 1573 250 1630 305 1693 c 0
 360 1756 414 1824 469 1896 c 0
 481 1914 499 1926 523 1931 c 0
 534 1934 546 1935 557 1935 c 0
 569 1935 581 1933 593 1930 c 0
 616 1924 631 1912 641 1894 c 0
 693 1824 738 1766 776 1719 c 0
 814 1672 844 1638 864 1615 c 0
 884 1592 914 1561 954 1520 c 0
 994 1479 1030 1440 1063 1405 c 0
 1079 1387 1089 1369 1091 1350 c 0
 1093 1331 1089 1313 1079 1299 c 0
 1069 1285 1060 1273 1048 1262 c 0
 1036 1251 1024 1242 1012 1237 c 0
 993 1227 974 1228 958 1239 c 0
 942 1250 916 1275 879 1313 c 0
 869 1323 861 1329 856 1333 c 0
 775 1415 720 1474 689 1509 c 0
 658 1544 616 1601 561 1677 c 1
 524 1626 492 1584 463 1551 c 0
 434 1518 411 1494 393 1478 c 0
 375 1462 352 1440 323 1411 c 0
 294 1382 265 1352 236 1319 c 2
EndSplineSet
EndChar

StartChar: underscore
Encoding: 95 95 63
Width: 1112
GlyphClass: 2
Flags: HMW
HStem: -205 174
LayerCount: 2
Fore
SplineSet
133 -31 m 0
 280 -32 398 -33 486 -33 c 0
 574 -33 672 -32 780 -31 c 0
 888 -30 954 -29 979 -29 c 0
 1010 -29 1033 -36 1046 -51 c 0
 1059 -66 1066 -86 1067 -111 c 0
 1067 -170 1038 -199 979 -199 c 0
 948 -199 822 -200 601 -202 c 0
 380 -204 225 -205 135 -205 c 0
 48 -205 47 -141 47 -109 c 0
 47 -57 74 -31 129 -31 c 0
 130 -31 132 -31 133 -31 c 0
EndSplineSet
EndChar

StartChar: grave
Encoding: 96 96 64
Width: 1112
GlyphClass: 2
Flags: HMW
HStem: 1277 381
VStem: 309 495
LayerCount: 2
Fore
SplineSet
643 1298 m 0
 639 1301 619 1312 584 1332 c 0
 549 1352 521 1367 502 1378 c 0
 483 1389 458 1404 429 1422 c 0
 400 1440 375 1459 356 1475 c 0
 341 1487 330 1503 321 1521 c 0
 312 1539 308 1556 309 1572 c 0
 310 1588 314 1602 319 1616 c 0
 333 1636 355 1650 385 1656 c 0
 393 1658 401 1658 408 1658 c 0
 430 1658 450 1651 469 1638 c 0
 473 1634 492 1619 526 1592 c 0
 560 1565 585 1547 599 1536 c 0
 613 1525 633 1511 660 1493 c 0
 687 1475 709 1461 727 1450 c 0
 757 1434 779 1411 793 1383 c 0
 801 1367 805 1352 805 1339 c 0
 805 1330 803 1322 799 1315 c 0
 787 1296 766 1284 737 1279 c 0
 731 1278 725 1277 719 1277 c 0
 695 1277 670 1284 643 1298 c 0
EndSplineSet
EndChar

StartChar: a
Encoding: 97 97 65
Width: 1112
GlyphClass: 2
Flags: HMW
HStem: -78 43G -57 160 465 178 861 183
VStem: 129 852 862 139
LayerCount: 2
Fore
SplineSet
162 848 m 0x78
 180 874 202 899 229 922 c 0
 252 942 282 961 317 978 c 0
 352 995 398 1010 451 1024 c 0
 504 1038 565 1044 633 1044 c 0
 761 1041 846 1009 887 948 c 0
 947 855 978 723 981 551 c 0x78
 981 510 980 423 977 291 c 0
 977 261 983 194 995 92 c 0
 999 62 1001 35 1001 13 c 0
 1001 -48 986 -78 956 -78 c 0
 900 -78 869 -64 862 -37 c 0xb4
 832 82 816 141 815 141 c 0
 770 66 722 13 670 -18 c 0
 628 -44 559 -57 465 -57 c 0
 423 -57 377 -46 326 -23 c 0
 275 0 232 37 195 85 c 0
 158 133 131 182 113 233 c 1
 113 268 117 307 125 348 c 0
 135 392 155 430 186 461 c 0
 228 505 258 531 276 539 c 0
 346 576 387 596 399 600 c 0
 503 629 557 643 561 643 c 0
 631 651 674 658 692 662 c 0
 699 663 732 674 791 696 c 1
 796 714 797 734 793 756 c 0
 792 766 785 778 774 793 c 0
 758 813 739 829 719 840 c 0
 700 851 667 857 621 860 c 0
 614 861 605 861 598 861 c 2
 510 848 l 2
 473 837 443 824 419 809 c 0
 395 794 375 780 360 768 c 0
 346 756 337 746 332 741 c 0
 297 694 261 670 226 670 c 0
 209 670 191 676 174 688 c 0
 144 709 129 734 129 763 c 0
 129 788 140 817 162 848 c 0x78
508 102 m 0
 531 102 555 107 579 115 c 0
 603 123 626 137 651 156 c 0
 676 175 698 197 717 224 c 0
 736 251 752 285 766 327 c 0
 780 369 788 414 791 465 c 1
 523 442 357 376 293 270 c 1
 324 209 357 165 392 140 c 0
 427 115 466 102 508 102 c 0
EndSplineSet
EndChar

StartChar: b
Encoding: 98 98 66
Width: 1112
GlyphClass: 2
Flags: HMW
HStem: -29 176 897 170 1532 41G
VStem: 83 200 832 199
LayerCount: 2
Fore
SplineSet
1030 565 m 0
 1030 559 1030 553 1030 547 c 0
 1030 479 1023 415 1009 355 c 0
 993 290 971 234 942 188 c 0
 913 142 880 103 841 70 c 0
 802 37 761 12 718 -4 c 0
 675 -20 631 -29 586 -29 c 0
 463 -29 359 4 274 68 c 1
 271 35 262 12 246 -1 c 0
 230 -14 209 -22 184 -23 c 0
 182 -23 180 -23 178 -23 c 0
 116 -23 84 15 84 90 c 0
 83 202 83 347 83 524 c 0
 83 612 83 708 83 813 c 0
 84 1127 86 1342 90 1458 c 0
 90 1500 98 1530 114 1546 c 0
 130 1562 151 1572 178 1573 c 0
 182 1573 187 1573 191 1573 c 0
 217 1573 238 1566 256 1551 c 0
 275 1535 285 1507 285 1466 c 0
 285 1463 285 1463 284 1273 c 0
 283 1160 283 1061 283 975 c 1
 373 1036 478 1067 600 1067 c 0
 689 1066 767 1043 833 1000 c 0
 899 957 949 898 982 823 c 0
 1014 751 1030 669 1030 577 c 0
 1030 573 1030 569 1030 565 c 0
555 897 m 0
 550 897 545 897 540 897 c 0
 450 897 364 862 281 791 c 1
 281 616 279 430 276 233 c 1
 306 202 342 180 383 167 c 0
 424 154 472 147 528 147 c 0
 626 147 702 184 755 256 c 0
 806 327 832 421 832 540 c 0
 832 586 826 651 799 718 c 0
 779 769 747 812 705 845 c 0
 663 878 612 896 555 897 c 0
EndSplineSet
EndChar

StartChar: c
Encoding: 99 99 67
Width: 1112
GlyphClass: 2
Flags: HMW
HStem: -64 184 895 184
VStem: 100 208
LayerCount: 2
Fore
SplineSet
983 815 m 0
 989 795 991 777 991 760 c 0
 991 712 969 678 922 659 c 0
 907 654 893 651 880 650 c 0
 867 649 854 651 841 655 c 0
 828 659 816 668 805 681 c 0
 794 694 785 711 778 731 c 0
 777 738 774 749 769 765 c 0
 764 781 761 792 758 800 c 0
 755 808 750 816 745 828 c 0
 740 840 734 849 728 855 c 0
 722 861 715 867 705 874 c 0
 695 881 684 887 672 890 c 0
 660 893 645 895 629 895 c 0
 604 895 579 891 554 882 c 0
 529 873 502 858 474 837 c 0
 446 816 421 789 398 756 c 0
 375 723 356 681 340 628 c 0
 324 575 313 516 309 449 c 0
 308 436 308 423 308 411 c 0
 308 225 387 129 545 121 c 0
 554 121 562 120 570 120 c 0
 631 120 682 129 724 147 c 0
 771 167 800 191 811 217 c 0
 821 240 832 258 844 272 c 0
 856 286 869 295 882 299 c 0
 895 303 908 304 920 303 c 0
 932 302 944 299 958 295 c 0
 996 279 1015 253 1015 218 c 0
 1015 197 1008 172 995 145 c 0
 983 120 965 97 941 74 c 0
 917 51 887 28 849 6 c 0
 811 -16 764 -33 707 -46 c 0
 655 -58 599 -64 539 -64 c 0
 533 -64 526 -63 520 -63 c 0
 453 -62 393 -49 338 -24 c 0
 283 1 239 35 205 77 c 0
 171 119 144 165 126 218 c 0
 109 267 100 317 100 369 c 0
 100 373 100 377 100 381 c 0
 101 474 113 559 134 637 c 0
 155 715 184 781 220 835 c 0
 256 889 299 934 347 971 c 0
 395 1008 448 1035 503 1053 c 0
 558 1071 616 1079 676 1079 c 0
 748 1079 812 1053 869 1000 c 0
 926 947 964 886 983 815 c 0
EndSplineSet
EndChar

StartChar: d
Encoding: 100 100 68
Width: 1112
GlyphClass: 2
Flags: HMW
HStem: -29 182 868 178 1534 41G
VStem: 63 197 815 188 836 197
LayerCount: 2
Fore
SplineSet
958 -18 m 0xf8
 949 -20 940 -21 932 -21 c 0
 904 -21 881 -11 865 11 c 0
 844 39 831 79 827 131 c 1
 812 109 796 90 779 72 c 0
 762 54 742 38 718 22 c 0
 694 6 665 -6 632 -15 c 0
 599 -24 562 -29 524 -29 c 0
 478 -29 432 -21 388 -5 c 0
 344 11 301 35 261 67 c 0
 221 99 186 137 156 183 c 0
 126 229 102 284 86 349 c 0
 71 409 63 473 63 542 c 0
 63 548 63 553 63 559 c 0
 63 562 63 566 63 569 c 0
 63 656 81 736 115 806 c 0
 150 879 202 937 270 980 c 0
 338 1023 418 1046 508 1047 c 0
 632 1047 737 1018 823 961 c 1
 824 1214 829 1376 836 1448 c 0
 843 1533 879 1575 946 1575 c 0
 975 1574 997 1564 1013 1546 c 0
 1026 1531 1033 1505 1033 1468 c 0xf4
 1033 1462 1032 1455 1032 1448 c 0
 1028 1366 1023 1215 1015 996 c 0
 1007 777 1004 611 1004 498 c 0
 1005 422 1009 354 1015 297 c 0
 1021 240 1027 199 1033 175 c 0
 1039 151 1045 131 1048 113 c 0
 1050 100 1051 89 1051 79 c 0
 1051 75 1051 72 1051 68 c 0
 1044 22 1013 -7 958 -18 c 0xf8
543 154 m 0
 566 154 587 156 607 160 c 0
 627 164 644 169 658 174 c 0
 672 179 687 188 701 199 c 0
 715 210 727 219 736 228 c 0
 745 237 755 249 766 264 c 0
 777 279 785 291 790 299 c 2
 811 336 l 2
 814 340 816 343 817 346 c 0
 817 361 817 383 816 410 c 0
 815 437 815 462 815 486 c 0xf8
 815 510 816 533 817 555 c 0
 817 570 817 593 818 624 c 0
 819 655 819 677 819 692 c 0
 788 744 747 787 697 820 c 0
 649 852 599 868 545 868 c 0
 543 868 541 868 539 868 c 0
 482 865 431 848 389 817 c 0
 347 786 315 746 294 698 c 0
 272 648 260 592 260 531 c 0
 260 414 284 322 333 256 c 0
 383 188 453 154 543 154 c 0
EndSplineSet
EndChar

StartChar: e
Encoding: 101 101 69
Width: 1112
GlyphClass: 2
Flags: HMW
HStem: -58 168 907 160
LayerCount: 2
Fore
SplineSet
987 123 m 0
 965 94 943 69 920 49 c 0
 897 29 866 10 831 -8 c 0
 796 -26 752 -39 699 -47 c 0
 654 -54 604 -58 547 -58 c 0
 538 -58 528 -57 518 -57 c 0
 381 -56 276 -7 201 89 c 0
 129 182 92 308 92 468 c 0
 92 474 92 479 92 485 c 0
 93 576 108 659 135 733 c 0
 162 807 200 868 246 916 c 0
 292 964 348 1002 411 1028 c 0
 474 1054 542 1067 616 1067 c 0
 658 1067 705 1055 756 1032 c 0
 807 1009 853 976 897 932 c 0
 941 888 971 842 989 791 c 0
 990 784 991 776 991 768 c 0
 991 740 982 711 962 680 c 0
 937 640 910 610 881 590 c 0
 855 571 822 551 784 531 c 0
 746 511 702 492 653 472 c 0
 604 452 562 436 527 423 c 0
 492 410 449 394 396 376 c 0
 343 358 311 346 297 342 c 1
 302 309 311 280 321 253 c 0
 331 226 344 202 362 181 c 0
 380 160 403 143 431 131 c 0
 459 119 492 112 530 111 c 0
 535 111 539 110 544 110 c 0
 576 110 608 115 640 123 c 0
 676 133 706 145 730 161 c 0
 754 177 773 190 788 202 c 0
 803 214 814 222 819 229 c 0
 854 276 890 300 925 300 c 0
 942 300 960 295 977 283 c 0
 1007 262 1022 237 1022 208 c 0
 1022 183 1010 154 987 123 c 0
573 907 m 0
 550 907 527 903 503 895 c 0
 479 887 455 873 430 854 c 0
 405 835 384 812 365 785 c 0
 346 758 329 725 315 683 c 0
 301 641 294 596 291 547 c 1
 552 611 717 675 788 739 c 1
 757 800 724 844 689 869 c 0
 654 894 615 907 573 907 c 0
EndSplineSet
EndChar

StartChar: f
Encoding: 102 102 70
Width: 1112
GlyphClass: 2
Flags: HMW
HStem: -36 184 825 178 842 168 1389 178<862 907 862 924>
VStem: 317 193 350 181 361 188
LayerCount: 2
Fore
SplineSet
809 -33 m 0xb2
 808 -33 762 -34 671 -35 c 0
 610 -36 552 -36 497 -36 c 0
 469 -36 442 -36 416 -36 c 0
 337 -35 272 -33 223 -29 c 0
 186 -29 160 -19 144 0 c 0
 130 18 123 38 123 61 c 0
 123 80 124 108 146 132 c 0
 161 148 184 156 217 156 c 0
 220 156 222 156 225 156 c 0
 240 155 263 154 293 153 c 0
 323 152 345 152 360 152 c 0
 360 158 361 164 361 170 c 0xb2
 361 188 359 205 356 222 c 0
 352 245 350 271 350 301 c 0xb4
 350 327 349 366 346 418 c 0
 343 470 340 539 335 626 c 0
 330 713 327 779 326 827 c 1
 300 826 265 825 223 825 c 0
 136 825 135 889 135 921 c 0
 135 975 164 1003 221 1004 c 2
 319 1004 l 1
 318 1026 317 1057 317 1098 c 0
 317 1164 328 1223 349 1276 c 0
 370 1329 398 1374 433 1409 c 0
 468 1444 510 1474 559 1498 c 0
 608 1522 661 1539 716 1550 c 0
 771 1561 830 1567 893 1567 c 0
 922 1567 946 1560 964 1546 c 0
 982 1532 991 1512 991 1485 c 0
 991 1458 984 1434 969 1416 c 0
 954 1398 935 1389 913 1389 c 0
 791 1389 695 1360 621 1303 c 0
 547 1246 510 1170 510 1077 c 0xd8
 510 1048 511 1025 512 1006 c 1
 728 1009 850 1010 879 1010 c 0
 910 1010 932 1003 945 989 c 0
 958 975 966 957 967 934 c 0
 967 874 938 844 879 844 c 0
 864 844 838 843 802 842 c 0
 766 841 720 839 664 837 c 0
 608 835 560 834 520 834 c 1
 521 799 525 709 531 568 c 0xb4
 537 427 542 320 545 246 c 0
 546 185 548 151 549 147 c 0
 668 143 756 140 813 139 c 0
 847 139 873 132 889 118 c 0
 905 104 913 84 913 61 c 0
 913 35 905 13 888 -5 c 0
 871 -23 844 -33 809 -33 c 0xb2
EndSplineSet
EndChar

StartChar: g
Encoding: 103 103 71
Width: 1112
GlyphClass: 2
Flags: HMW
HStem: -598 172 -63 180 871 172
VStem: 109 193 827 176
LayerCount: 2
Fore
SplineSet
987 -86 m 0
 980 -154 965 -216 941 -272 c 0
 917 -328 887 -376 851 -416 c 0
 815 -456 773 -489 727 -517 c 0
 681 -545 632 -566 581 -579 c 0
 530 -592 476 -598 420 -598 c 0
 378 -598 335 -592 293 -580 c 0
 251 -568 215 -555 188 -541 c 0
 187 -540 182 -536 174 -532 c 2
 160 -525 l 2
 159 -524 154 -522 148 -518 c 0
 142 -514 138 -511 137 -510 c 0
 136 -509 133 -506 129 -503 c 0
 125 -500 123 -497 122 -494 c 0
 121 -491 120 -487 119 -482 c 0
 118 -477 117 -473 116 -468 c 0
 115 -463 115 -458 115 -451 c 0
 115 -424 123 -401 141 -383 c 0
 155 -369 170 -363 187 -363 c 0
 192 -363 198 -364 203 -365 c 0
 213 -366 227 -372 247 -383 c 0
 267 -394 288 -404 312 -413 c 0
 336 -422 359 -426 381 -426 c 0
 451 -426 517 -412 579 -383 c 0
 641 -354 692 -313 733 -258 c 0
 774 -203 799 -142 809 -74 c 0
 813 -45 816 6 819 78 c 1
 751 -16 642 -63 492 -63 c 0
 358 -60 261 -15 200 72 c 0
 139 159 109 289 109 461 c 0
 110 543 121 617 142 683 c 0
 163 749 192 805 228 849 c 0
 264 893 307 930 356 959 c 0
 405 988 457 1010 511 1023 c 0
 565 1036 623 1042 684 1042 c 0
 756 1042 809 1039 840 1033 c 0
 871 1027 903 1015 934 999 c 0
 946 992 956 983 961 969 c 0
 966 955 969 942 968 928 c 0
 967 914 963 903 958 895 c 0
 958 894 957 891 954 888 c 0
 951 885 949 882 948 881 c 1
 982 873 999 847 999 803 c 0
 999 800 1000 723 1002 573 c 0
 1003 509 1004 449 1004 393 c 0
 1004 319 1003 252 1001 193 c 0
 998 89 994 -4 987 -86 c 0
303 526 m 0
 302 497 302 469 302 442 c 0
 302 428 302 414 302 401 c 0
 303 361 308 324 318 289 c 0
 328 254 341 223 356 197 c 0
 371 171 393 150 420 136 c 0
 445 123 474 117 507 117 c 0
 510 117 513 117 516 117 c 0
 556 118 593 124 626 136 c 0
 659 148 687 163 710 181 c 0
 733 199 752 221 768 246 c 0
 784 271 797 294 806 317 c 0
 815 340 822 364 827 389 c 2
 827 585 l 2
 827 676 828 745 829 791 c 0
 829 807 834 824 842 840 c 1
 829 842 l 1
 765 861 706 871 651 871 c 0
 644 871 638 870 631 870 c 0
 602 869 574 864 546 856 c 0
 518 848 490 834 461 816 c 0
 432 798 407 776 385 751 c 0
 363 726 345 693 330 655 c 0
 315 617 306 574 303 526 c 0
EndSplineSet
EndChar

StartChar: h
Encoding: 104 104 72
Width: 1112
GlyphClass: 2
Flags: HMW
HStem: -43 43G 848 193 1532 41G
VStem: 108 218 123 207 795 213 801 184
LayerCount: 2
Fore
SplineSet
1008 84 m 0xe4
 1008 42 997 10 974 -13 c 0
 953 -34 929 -45 902 -45 c 0
 900 -45 899 -45 897 -45 c 0
 871 -44 847 -32 826 -12 c 0
 805 8 795 35 795 66 c 0xe4
 795 104 796 178 798 289 c 0
 800 400 801 489 801 559 c 0
 800 652 788 723 766 773 c 0
 744 823 713 848 672 848 c 0
 631 848 593 841 558 827 c 0
 523 813 495 796 473 776 c 0
 451 756 431 733 412 707 c 0
 393 681 379 655 370 630 c 0
 361 605 353 580 346 555 c 0
 339 530 335 511 334 497 c 0
 333 483 332 472 332 465 c 1
 332 467 l 1
 332 459 332 445 331 427 c 0
 330 409 330 395 330 385 c 2
 330 288 l 2xea
 330 249 330 219 329 199 c 0
 328 179 327 154 326 127 c 0
 325 100 322 74 319 49 c 0
 316 20 304 -2 279 -19 c 0
 256 -35 231 -43 205 -43 c 0
 203 -43 201 -43 199 -43 c 0
 172 -43 149 -33 131 -15 c 0
 116 1 108 22 108 49 c 0xf0
 108 53 109 57 109 61 c 0
 113 117 118 216 123 357 c 0
 127 451 128 526 128 580 c 0
 128 607 128 630 127 647 c 0
 121 781 119 929 119 1091 c 0
 119 1207 120 1330 123 1460 c 0
 123 1497 134 1525 154 1544 c 0
 174 1563 198 1573 227 1573 c 0
 229 1573 232 1573 234 1573 c 0
 261 1573 284 1565 302 1549 c 0
 322 1532 332 1505 332 1468 c 0
 332 1316 333 1106 334 834 c 1
 349 861 367 885 389 908 c 0
 411 931 438 953 470 974 c 0
 502 995 542 1011 589 1023 c 0
 636 1035 686 1040 741 1040 c 0
 786 1040 825 1030 858 1010 c 0
 891 990 917 961 935 924 c 0
 953 887 966 846 974 800 c 0
 982 754 985 704 985 651 c 0xea
 985 569 988 466 996 341 c 0
 1004 216 1008 130 1008 84 c 0xe4
EndSplineSet
EndChar

StartChar: i
Encoding: 105 105 73
Width: 1112
GlyphClass: 2
Flags: HMW
HStem: -35 176 827 180 1140 316
VStem: 387 332<1283 1321> 487 191
LayerCount: 2
Fore
SplineSet
557 1141 m 0xf0
 551 1141 546 1140 541 1140 c 0
 498 1140 462 1155 434 1184 c 0
 403 1217 387 1255 387 1300 c 0
 387 1341 404 1377 439 1407 c 0
 474 1437 513 1453 557 1456 c 0
 559 1456 561 1456 563 1456 c 0
 608 1456 645 1442 674 1414 c 0
 704 1385 719 1349 719 1305 c 0
 719 1261 704 1224 675 1194 c 0
 646 1164 606 1146 557 1141 c 0xf0
942 -25 m 0
 919 -25 801 -27 588 -30 c 0
 375 -33 236 -35 172 -35 c 0
 139 -35 116 -26 103 -8 c 0
 91 8 86 27 86 50 c 0
 86 72 87 98 105 119 c 0
 118 134 141 141 174 141 c 2
 492 141 l 1
 492 204 490 257 489 301 c 0
 488 336 487 371 487 404 c 0
 487 437 487 477 488 521 c 0
 489 565 489 596 490 614 c 0
 491 632 493 670 495 728 c 0
 497 786 498 819 498 827 c 0
 489 829 472 830 448 830 c 0
 430 830 407 829 381 828 c 0
 344 827 313 827 287 827 c 0
 270 827 255 826 242 827 c 0
 216 827 195 835 181 851 c 0
 160 874 160 896 160 912 c 0
 160 934 166 953 178 969 c 0
 192 987 213 995 240 995 c 0
 340 1002 432 1006 516 1006 c 0
 540 1006 563 1007 586 1006 c 0
 608 1006 626 1001 641 992 c 0
 656 983 667 971 673 956 c 0
 679 941 683 928 686 916 c 0
 689 904 690 895 690 887 c 0
 683 801 679 714 678 626 c 0
 677 591 677 557 677 526 c 0
 677 479 678 437 679 399 c 0xe8
 681 336 685 250 690 141 c 1
 948 141 l 2
 979 141 1001 134 1012 120 c 0
 1023 106 1028 86 1028 61 c 0
 1027 4 998 -25 942 -25 c 0
EndSplineSet
EndChar

StartChar: j
Encoding: 106 106 74
Width: 1112
GlyphClass: 2
Flags: HMW
HStem: -588 184 813 176 1133 315
VStem: 635 328<1287 1318 1273 1331> 713 186
LayerCount: 2
Fore
SplineSet
799 1133 m 0xf0
 747 1133 707 1151 678 1186 c 0
 649 1221 635 1263 635 1311 c 0
 635 1352 651 1384 683 1409 c 0
 715 1434 754 1447 799 1448 c 0
 801 1448 803 1448 805 1448 c 0
 850 1448 887 1434 916 1406 c 0
 947 1377 963 1339 963 1295 c 0
 963 1251 947 1213 916 1181 c 0
 885 1149 847 1133 799 1133 c 0xf0
723 -29 m 0
 723 -18 721 34 716 128 c 0
 711 222 708 316 707 412 c 0
 707 431 706 452 706 474 c 0
 706 563 709 675 713 813 c 1
 694 812 657 811 602 811 c 0
 547 811 487 811 419 812 c 0
 351 813 309 813 291 813 c 0
 260 813 234 824 216 844 c 0
 199 863 190 884 190 908 c 0
 190 921 190 944 217 967 c 0
 235 982 259 989 289 989 c 0
 337 992 421 995 541 998 c 0
 627 1000 697 1002 753 1002 c 0
 775 1002 795 1001 813 1001 c 0
 833 1001 851 997 866 987 c 0
 881 977 892 965 899 951 c 0
 906 937 910 924 913 912 c 0
 916 900 918 891 918 883 c 0
 917 869 913 850 909 827 c 0
 905 804 902 785 901 770 c 0
 900 755 899 738 899 719 c 0xe8
 899 685 902 573 907 385 c 0
 912 197 915 50 915 -55 c 0
 915 -112 908 -166 894 -216 c 0
 880 -266 861 -309 836 -344 c 0
 811 -379 781 -411 746 -440 c 0
 711 -469 675 -492 637 -510 c 0
 599 -528 557 -543 513 -555 c 0
 469 -567 425 -576 382 -581 c 0
 339 -586 294 -588 248 -588 c 0
 219 -588 195 -580 177 -566 c 0
 159 -552 150 -532 150 -506 c 0
 150 -479 158 -454 176 -434 c 0
 194 -414 214 -403 236 -403 c 0
 287 -403 335 -399 381 -390 c 0
 427 -381 471 -367 513 -348 c 0
 555 -329 591 -305 622 -276 c 0
 653 -247 677 -212 695 -170 c 0
 713 -128 723 -81 723 -29 c 0
EndSplineSet
EndChar

StartChar: k
Encoding: 107 107 75
Width: 1112
GlyphClass: 2
Flags: HMW
HStem: -46 43G 1532 41G
VStem: 102 209
LayerCount: 2
Fore
SplineSet
305 66 m 0
 304 24 292 -7 270 -24 c 0
 251 -39 229 -46 202 -46 c 0
 198 -46 193 -45 188 -45 c 0
 161 -44 138 -34 118 -17 c 0
 101 -2 92 20 92 49 c 0
 92 53 92 57 92 61 c 0
 97 122 101 222 103 359 c 0
 105 496 107 625 107 745 c 0
 107 865 105 1006 104 1168 c 0
 103 1330 102 1430 102 1470 c 0
 102 1504 113 1530 135 1547 c 0
 157 1564 183 1573 213 1573 c 0
 242 1573 266 1564 284 1548 c 0
 302 1532 311 1507 311 1473 c 0
 311 1297 307 1019 299 639 c 1
 375 709 472 791 587 887 c 0
 702 983 766 1037 778 1049 c 0
 797 1068 816 1080 834 1086 c 0
 852 1092 867 1094 880 1090 c 0
 893 1086 904 1078 915 1067 c 0
 930 1050 939 1032 939 1012 c 0
 939 986 925 958 899 926 c 0
 872 895 773 804 604 655 c 1
 631 606 681 535 751 442 c 0
 821 349 883 268 938 198 c 0
 993 128 1021 88 1022 78 c 0
 1022 73 1023 69 1023 64 c 0
 1023 25 1007 -6 975 -27 c 0
 960 -37 945 -42 931 -44 c 0
 917 -46 901 -43 885 -35 c 0
 869 -27 854 -12 840 8 c 0
 833 19 811 47 773 93 c 2
 660 230 l 2
 622 276 585 328 547 386 c 0
 509 444 481 492 465 532 c 1
 299 385 l 2
 298 384 296 383 295 383 c 0
 295 372 294 360 294 348 c 0
 294 306 296 258 300 204 c 0
 304 150 306 110 306 84 c 0
 306 77 305 71 305 66 c 0
EndSplineSet
EndChar

StartChar: l
Encoding: 108 108 76
Width: 1112
GlyphClass: 2
Flags: HMW
HStem: -84 176 4 133
VStem: 248 197
LayerCount: 2
Fore
SplineSet
852 6 m 0x60
 779 -22 703 -72 600 -72 c 0
 597 -72 595 -72 592 -72 c 0
 540 -71 526 -73 482 -56 c 0
 438 -39 399 -16 364 13 c 0
 329 42 301 81 281 127 c 0
 261 173 249 226 248 285 c 0
 247 300 246 319 246 344 c 0
 246 357 247 371 247 386 c 0
 248 432 248 462 248 478 c 0
 248 494 249 522 251 564 c 0
 253 606 254 633 255 646 c 0
 256 659 258 685 261 725 c 0
 272 897 276 978 276 1051 c 0
 276 1141 268 1272 268 1293 c 0
 268 1313 273 1331 285 1349 c 0
 299 1369 317 1378 340 1378 c 0
 365 1378 391 1370 420 1352 c 0
 449 1334 464 1315 467 1296 c 0
 474 1230 478 1193 478 1133 c 0
 478 1055 472 941 456 675 c 0
 453 617 451 577 450 557 c 0
 449 537 447 502 445 452 c 0
 443 415 443 388 443 374 c 0
 443 369 443 366 443 364 c 0
 444 355 444 333 444 299 c 0
 447 239 467 191 505 153 c 0
 543 115 559 106 623 104 c 0xa0
 625 104 627 104 629 104 c 0
 711 104 776 156 852 188 c 0
 872 196 891 195 907 184 c 0
 923 173 935 154 942 127 c 0
 943 122 943 118 943 113 c 0
 943 93 936 73 922 55 c 0
 904 33 881 17 852 6 c 0x60
EndSplineSet
EndChar

StartChar: m
Encoding: 109 109 77
Width: 1112
GlyphClass: 2
Flags: HMW
HStem: -47 43G 852 193
VStem: 48 193 53 199 479 177 870 195
LayerCount: 2
Fore
SplineSet
252 61 m 0xec
 252 39 249 21 243 5 c 0
 237 -11 229 -22 219 -30 c 0
 209 -38 199 -42 188 -44 c 0
 177 -46 166 -47 154 -47 c 0
 127 -46 104 -38 88 -23 c 0
 72 -8 63 20 63 61 c 0
 63 73 62 92 61 116 c 0
 60 140 58 170 56 207 c 0
 54 244 53 275 53 301 c 0xdc
 50 386 48 482 48 589 c 0xec
 48 696 50 814 53 942 c 0
 53 988 65 1022 89 1044 c 0
 111 1065 137 1075 165 1075 c 0
 167 1075 168 1075 170 1075 c 0
 197 1075 218 1064 234 1044 c 0
 246 1029 252 1006 252 977 c 0xdc
 252 967 251 956 250 944 c 0
 249 933 246 916 241 893 c 0
 236 870 232 853 231 842 c 1
 296 977 386 1044 502 1044 c 0
 503 1044 505 1044 506 1044 c 0
 533 1044 558 1026 578 989 c 0
 598 952 616 903 631 840 c 1
 705 977 807 1044 938 1044 c 0
 939 1044 941 1044 942 1044 c 0
 975 1044 1000 1025 1018 985 c 0
 1036 945 1048 892 1054 826 c 0
 1060 760 1064 685 1065 601 c 0
 1065 573 1066 544 1066 516 c 0
 1066 459 1065 402 1063 344 c 0
 1062 309 1061 275 1061 240 c 0
 1061 188 1063 137 1065 86 c 0
 1065 59 1063 35 1060 17 c 0
 1057 -1 1050 -15 1041 -24 c 0
 1032 -33 1024 -38 1014 -41 c 0
 1004 -44 994 -45 983 -45 c 0
 969 -45 957 -44 946 -42 c 0
 935 -40 924 -35 912 -26 c 0
 900 -17 892 -3 884 15 c 0
 876 33 871 57 870 86 c 0
 868 123 867 165 867 213 c 0
 867 225 867 237 867 250 c 0
 868 313 869 380 870 451 c 0
 871 522 872 587 872 646 c 0
 872 705 870 755 865 794 c 0
 860 833 853 852 842 852 c 0
 841 852 839 852 838 852 c 0
 801 852 767 833 736 793 c 0
 704 752 676 699 653 633 c 1
 655 600 656 563 656 521 c 0
 656 465 654 401 651 328 c 0
 647 243 646 176 646 128 c 0
 646 104 646 85 647 70 c 0
 648 45 647 24 643 8 c 0
 639 -8 632 -20 621 -28 c 0
 610 -36 599 -40 589 -43 c 0
 579 -46 568 -46 557 -45 c 0
 531 -45 511 -38 495 -23 c 0
 479 -8 469 24 465 70 c 0
 464 83 464 99 464 119 c 0
 464 163 466 223 470 299 c 0
 476 408 479 494 479 555 c 2
 479 602 l 2
 479 704 477 772 474 804 c 0
 471 836 457 852 434 852 c 0
 401 852 367 829 331 784 c 0
 295 739 265 686 242 625 c 0
 242 610 241 592 241 569 c 0
 241 523 242 461 244 383 c 0
 244 335 245 274 248 199 c 0
 251 124 252 77 252 61 c 0xec
EndSplineSet
EndChar

StartChar: n
Encoding: 110 110 78
Width: 1112
GlyphClass: 2
Flags: HMW
HStem: -46 43G 854 190
VStem: 90 200 115 201<61 67> 774 188
LayerCount: 2
Fore
SplineSet
315 61 m 0xd8
 315 21 305 -7 283 -24 c 0
 264 -39 241 -46 215 -46 c 0
 211 -46 207 -45 203 -45 c 0
 178 -44 157 -34 141 -18 c 0
 125 -2 116 24 115 61 c 0xd8
 115 72 111 106 104 161 c 0
 97 216 93 263 92 301 c 0
 91 326 90 354 90 385 c 0
 90 462 94 556 101 666 c 0
 111 820 118 909 119 934 c 0
 119 976 131 1007 155 1027 c 0
 177 1046 203 1055 232 1055 c 0
 234 1055 236 1055 238 1055 c 0
 267 1055 289 1045 306 1027 c 0
 321 1011 328 987 328 953 c 0
 328 948 328 942 328 936 c 0
 325 907 322 884 319 868 c 1
 352 919 399 961 458 994 c 0
 517 1027 588 1044 670 1044 c 0
 764 1044 836 1010 884 941 c 0
 932 872 959 775 963 651 c 0
 966 568 975 462 993 333 c 0
 1004 255 1024 104 1024 68 c 0
 1024 31 1016 3 1001 -15 c 0
 985 -35 963 -45 936 -45 c 0
 934 -45 932 -45 930 -45 c 0
 902 -45 878 -36 857 -18 c 0
 834 1 822 33 819 78 c 2
 798 271 l 2
 785 388 777 484 774 559 c 0
 769 675 757 754 740 794 c 0
 723 834 690 854 641 854 c 0
 607 854 574 849 543 838 c 0
 512 827 484 813 459 796 c 0
 434 779 411 758 389 734 c 0
 367 710 350 688 336 667 c 0
 322 646 309 623 295 600 c 1
 292 542 290 486 290 434 c 0xe8
 290 417 291 400 291 383 c 0
 291 335 295 275 303 202 c 0
 311 129 315 81 315 61 c 0xd8
260 502 m 1
 260 506 l 1
 260 502 l 1
EndSplineSet
EndChar

StartChar: o
Encoding: 111 111 79
Width: 1112
GlyphClass: 2
Flags: HMW
HStem: -55 174 911 160
VStem: 86 208 820 207
LayerCount: 2
Fore
SplineSet
518 -55 m 0
 451 -54 390 -38 335 -7 c 0
 280 24 234 64 198 115 c 0
 162 166 134 223 114 288 c 0
 95 349 86 412 86 478 c 0
 86 483 86 487 86 492 c 0
 86 574 97 650 118 720 c 0
 139 790 170 851 211 903 c 0
 252 955 304 996 367 1026 c 0
 430 1056 501 1071 580 1071 c 0
 629 1071 676 1065 720 1051 c 0
 764 1037 807 1015 847 984 c 0
 887 953 921 914 948 868 c 0
 975 822 997 763 1011 693 c 0
 1022 638 1027 579 1027 515 c 0
 1027 497 1027 478 1026 459 c 0
 1021 376 1007 303 986 241 c 0
 965 179 935 125 895 79 c 0
 855 33 803 -1 740 -23 c 0
 677 -45 603 -55 518 -55 c 0
563 119 m 0
 566 119 569 119 572 119 c 0
 609 119 644 127 674 143 c 0
 707 161 733 187 753 221 c 0
 773 255 788 295 799 341 c 0
 810 387 816 438 819 494 c 0
 820 509 820 523 820 537 c 0
 820 660 799 751 756 811 c 0
 708 878 640 911 553 911 c 0
 472 911 411 875 369 802 c 0
 327 729 302 627 295 496 c 0
 295 483 294 470 294 458 c 0
 294 428 296 400 298 375 c 0
 301 340 310 305 322 273 c 0
 334 241 350 215 370 194 c 0
 390 173 415 155 447 142 c 0
 479 129 518 122 563 119 c 0
EndSplineSet
EndChar

StartChar: p
Encoding: 112 112 80
Width: 1112
GlyphClass: 2
Flags: HMW
HStem: -608 43G -64 168 870 172
VStem: 104 189 799 213
LayerCount: 2
Fore
SplineSet
317 -504 m 0
 317 -538 308 -564 290 -582 c 0
 272 -600 250 -608 225 -608 c 0
 159 -605 124 -570 119 -502 c 0
 114 -378 109 -165 106 135 c 0
 104 335 104 507 104 651 c 0
 104 723 104 788 104 846 c 0
 104 962 110 1034 121 1061 c 0
 132 1083 148 1099 171 1110 c 0
 189 1119 206 1123 224 1123 c 0
 228 1123 234 1123 238 1122 c 0
 260 1119 278 1110 294 1092 c 0
 310 1074 314 1055 309 1036 c 0
 304 1013 299 982 295 942 c 1
 392 1009 490 1042 588 1042 c 0
 641 1042 688 1037 730 1027 c 0
 772 1017 810 998 844 971 c 0
 878 944 907 907 932 862 c 0
 957 817 975 760 989 691 c 0
 1003 622 1011 540 1012 446 c 0
 1012 401 1006 355 994 308 c 0
 982 261 965 216 942 172 c 0
 919 128 890 89 857 54 c 0
 824 19 784 -9 738 -30 c 0
 692 -51 643 -62 588 -63 c 0
 579 -63 570 -64 561 -64 c 0
 445 -64 361 -55 309 -39 c 1
 309 -105 310 -191 313 -299 c 0
 316 -407 317 -475 317 -504 c 0
293 725 m 2
 293 700 294 651 295 577 c 0
 296 503 298 425 300 345 c 0
 302 265 303 191 303 121 c 1
 330 111 369 105 418 104 c 0
 434 104 451 104 467 104 c 2
 565 106 l 2
 607 107 645 121 676 146 c 0
 707 171 733 204 751 244 c 0
 769 284 781 326 789 371 c 0
 795 409 799 448 799 489 c 0
 799 496 799 504 799 512 c 0
 796 569 790 620 780 663 c 0
 770 706 759 740 746 766 c 0
 733 792 718 813 700 829 c 0
 682 845 664 857 646 862 c 0
 628 867 607 870 582 870 c 0
 536 870 486 859 433 836 c 0
 380 813 334 784 293 750 c 1
 293 725 l 2
EndSplineSet
EndChar

StartChar: q
Encoding: 113 113 81
Width: 1112
GlyphClass: 2
Flags: HMW
HStem: -606 43G -64 170 881 184
VStem: 84 213 768 199 791 182
LayerCount: 2
Fore
SplineSet
948 -492 m 0xf8
 944 -529 931 -557 908 -577 c 0
 885 -597 861 -606 834 -606 c 0
 808 -606 786 -597 769 -577 c 0
 754 -560 747 -536 747 -506 c 0
 747 -501 748 -497 748 -492 c 0
 756 -390 763 -235 768 -27 c 1xf8
 711 -52 634 -64 536 -64 c 0
 526 -64 516 -63 506 -63 c 0
 453 -62 402 -51 356 -31 c 0
 310 -11 271 16 239 49 c 0
 207 82 179 120 154 162 c 0
 129 204 111 248 100 293 c 0
 89 338 84 382 84 426 c 0
 85 519 97 602 119 676 c 0
 141 750 170 810 205 858 c 0
 240 906 283 946 333 977 c 0
 383 1008 434 1030 489 1044 c 0
 544 1058 602 1065 662 1065 c 0
 734 1065 800 1053 860 1030 c 0
 920 1007 965 977 995 942 c 0
 1009 926 1019 909 1024 892 c 0
 1029 875 1031 860 1029 848 c 0
 1027 836 1023 825 1016 817 c 0
 1005 805 991 795 973 788 c 1
 973 544 l 2xf4
 973 397 972 295 971 236 c 0
 970 177 968 90 967 -24 c 0
 966 -138 964 -231 961 -304 c 0
 958 -377 953 -440 948 -492 c 0xf8
532 106 m 0
 543 106 554 106 564 106 c 0
 650 106 721 122 776 152 c 1
 779 237 784 468 791 848 c 1xf4
 766 862 742 871 719 875 c 0
 696 879 661 881 616 881 c 0
 591 881 567 877 541 869 c 0
 515 861 488 848 459 829 c 0
 430 810 405 787 383 759 c 0
 361 731 342 693 326 647 c 0
 310 601 300 549 297 492 c 0
 297 485 297 479 297 472 c 0
 297 433 300 394 307 357 c 0
 315 314 328 275 344 237 c 0
 360 199 386 168 419 144 c 0
 452 120 490 107 532 106 c 0
EndSplineSet
EndChar

StartChar: r
Encoding: 114 114 82
Width: 1112
GlyphClass: 2
Flags: HMW
HStem: -47 43G 629 408 860 176 1014 41G
VStem: 128 202 156 199 158 209 785 199
LayerCount: 2
Fore
SplineSet
354 41 m 0xa5
 354 -18 324 -47 262 -47 c 0
 258 -47 254 -47 250 -47 c 0
 223 -46 200 -39 184 -26 c 0
 168 -13 159 11 156 45 c 0xa5
 156 49 151 83 143 146 c 0
 135 209 130 261 129 301 c 0
 128 318 128 337 128 357 c 0xa9
 128 437 132 535 141 654 c 0
 152 802 158 896 158 936 c 0
 159 978 171 1009 194 1027 c 0
 217 1045 243 1055 274 1055 c 0x93
 303 1055 326 1045 344 1027 c 0
 359 1011 367 987 367 954 c 0
 367 949 367 943 367 938 c 2
 354 813 l 1
 369 839 393 865 424 891 c 0
 455 917 495 942 542 965 c 0
 589 988 645 1006 709 1019 c 0
 767 1031 828 1036 893 1036 c 0
 900 1036 906 1036 913 1036 c 0
 928 1033 941 1019 952 992 c 0
 963 965 971 935 976 902 c 0
 981 869 983 835 984 800 c 0
 984 797 984 793 984 790 c 0
 984 760 981 736 975 717 c 0
 971 692 961 673 947 659 c 0
 933 645 914 636 891 631 c 0
 885 630 879 629 873 629 c 0xc3
 855 629 839 635 824 647 c 0
 804 663 794 684 791 709 c 0
 788 723 786 741 785 764 c 0
 784 787 782 806 778 821 c 0
 774 836 768 849 758 860 c 1
 713 860 669 852 625 835 c 0
 581 818 543 796 511 771 c 0
 479 746 450 718 423 688 c 0
 396 658 375 631 360 607 c 0
 345 583 336 563 332 547 c 0
 330 500 329 460 329 427 c 0
 329 411 330 396 330 383 c 0xa9
 330 332 334 265 342 182 c 0
 347 127 354 57 354 41 c 0xa5
EndSplineSet
EndChar

StartChar: s
Encoding: 115 115 83
Width: 1112
GlyphClass: 2
Flags: HMW
HStem: -72 178 883 180
VStem: 92 211 145 205
LayerCount: 2
Fore
SplineSet
100 135 m 0xd0
 95 157 92 176 92 194 c 0
 92 238 109 269 143 287 c 0
 162 294 183 297 203 298 c 0
 223 299 243 291 261 277 c 0
 279 263 293 244 303 219 c 0xe0
 311 200 319 186 324 177 c 0
 329 168 336 158 345 147 c 0
 354 136 363 129 373 124 c 0
 383 119 396 115 413 112 c 0
 430 109 449 106 469 106 c 0
 507 106 552 116 605 135 c 0
 658 154 706 180 748 212 c 0
 790 244 814 277 819 311 c 0
 820 330 813 347 795 361 c 0
 777 375 751 388 717 398 c 0
 683 408 647 418 609 427 c 0
 571 436 528 447 478 459 c 0
 428 471 384 484 344 496 c 0
 265 522 212 550 185 580 c 0
 158 610 145 654 145 713 c 0
 145 822 207 908 329 970 c 0
 451 1032 631 1063 870 1063 c 0
 886 1063 901 1044 915 1005 c 0
 929 966 939 929 945 894 c 0
 951 859 955 833 956 815 c 2
 956 767 l 2
 956 751 952 737 942 723 c 0
 932 709 918 699 899 694 c 0
 888 691 879 690 869 690 c 0
 854 690 838 693 825 701 c 0
 803 714 788 731 780 750 c 0
 761 794 746 838 735 883 c 1
 695 883 653 879 609 872 c 0
 565 865 522 856 482 842 c 0
 442 828 409 810 383 787 c 0
 362 768 351 749 351 727 c 0
 351 722 351 718 352 713 c 0
 356 682 428 652 567 623 c 0
 623 612 673 600 716 588 c 0
 759 576 802 561 844 543 c 0
 886 525 920 505 946 484 c 0
 972 463 992 438 1006 408 c 0
 1017 383 1023 356 1023 327 c 0
 1023 321 1022 315 1022 309 c 0
 1012 231 981 163 926 104 c 0
 871 45 802 1 719 -28 c 0
 636 -57 544 -72 446 -72 c 0
 393 -72 343 -65 297 -51 c 0
 251 -37 209 -15 173 17 c 0
 137 49 112 89 100 135 c 0xd0
EndSplineSet
EndChar

StartChar: t
Encoding: 116 116 84
Width: 1112
GlyphClass: 2
Flags: HMW
HStem: -58 176 31 133 821 168 827 178
VStem: 267 197 299 189
LayerCount: 2
Fore
SplineSet
922 -18 m 0x68
 853 -44 771 -58 675 -58 c 0
 666 -58 656 -57 647 -57 c 0
 595 -56 547 -47 503 -30 c 0
 459 -13 419 11 384 40 c 0
 349 69 321 108 301 154 c 0
 281 200 269 252 268 311 c 0
 267 326 267 346 267 371 c 0x88
 267 384 267 398 267 413 c 0
 268 459 268 489 268 505 c 0
 268 521 269 549 271 591 c 0
 273 633 274 660 275 673 c 0
 276 686 279 712 282 752 c 0
 285 792 288 816 289 827 c 1
 186 827 l 2
 130 827 102 853 102 906 c 0
 102 910 102 914 102 918 c 0
 102 977 131 1006 188 1006 c 0
 232 1006 268 1005 297 1004 c 1
 298 1033 299 1062 299 1092 c 0
 299 1162 296 1237 289 1313 c 0
 289 1317 288 1320 288 1324 c 0
 288 1342 294 1359 305 1375 c 0
 319 1395 337 1405 360 1405 c 0
 385 1405 411 1396 440 1378 c 0
 469 1360 484 1342 487 1323 c 0
 490 1298 492 1258 492 1204 c 0
 492 1150 490 1082 487 999 c 1x94
 531 998 585 996 648 994 c 0
 711 992 764 990 804 989 c 0
 844 988 873 987 889 987 c 0
 948 987 977 957 977 897 c 0
 976 874 968 856 955 842 c 0
 942 828 920 821 888 821 c 0
 856 821 720 822 481 825 c 1
 481 800 479 759 476 701 c 0
 473 643 471 604 470 584 c 0
 469 564 468 528 466 478 c 0
 464 441 464 415 464 401 c 0
 464 396 464 392 464 390 c 0
 465 381 465 360 465 326 c 0
 468 266 487 217 525 179 c 0
 563 141 614 122 678 119 c 0
 685 119 691 118 697 118 c 0
 775 118 850 134 922 164 c 0
 942 172 961 171 977 160 c 0
 993 149 1005 129 1012 102 c 0
 1013 97 1013 93 1013 88 c 0
 1013 68 1005 49 991 31 c 0
 973 9 951 -7 922 -18 c 0x68
EndSplineSet
EndChar

StartChar: u
Encoding: 117 117 85
Width: 1112
GlyphClass: 2
Flags: HMW
HStem: -35 190 991 41G
VStem: 109 203 797 205
LayerCount: 2
Fore
SplineSet
918 -47 m 0
 913 -47 908 -48 904 -48 c 0
 877 -48 855 -41 836 -26 c 0
 814 -9 803 21 803 63 c 2
 803 121 l 1
 769 92 731 66 689 43 c 0
 647 20 599 0 542 -16 c 0
 500 -28 458 -35 417 -35 c 0
 403 -35 390 -34 377 -33 c 0
 329 -29 285 -11 245 20 c 0
 205 51 172 89 149 133 c 0
 126 177 114 220 111 262 c 0
 105 340 102 430 102 530 c 0
 102 550 102 571 102 592 c 0
 102 636 103 696 106 774 c 0
 108 826 109 867 109 897 c 0
 109 912 109 924 109 934 c 0
 109 967 117 992 135 1008 c 0
 153 1024 176 1032 203 1032 c 0
 232 1032 257 1024 279 1007 c 0
 301 990 311 965 311 934 c 0
 311 922 309 877 305 799 c 0
 302 741 301 689 301 644 c 0
 301 629 301 615 301 602 c 0
 301 461 307 355 319 281 c 0
 322 254 327 231 334 214 c 0
 341 197 350 184 362 176 c 0
 374 168 387 163 401 160 c 0
 415 157 433 156 455 156 c 0
 514 156 574 170 635 197 c 0
 696 224 753 257 805 297 c 1
 806 341 806 388 806 439 c 0
 806 490 806 543 805 600 c 0
 805 752 802 864 797 936 c 0
 797 965 805 988 822 1005 c 0
 839 1022 860 1031 885 1032 c 0
 914 1032 939 1024 962 1007 c 0
 985 990 995 966 995 936 c 0
 998 916 1000 871 1001 803 c 0
 1002 735 1005 694 1006 682 c 0
 1010 562 1012 357 1012 66 c 0
 1012 26 1003 -2 985 -19 c 0
 967 -36 945 -46 918 -47 c 0
EndSplineSet
EndChar

StartChar: v
Encoding: 118 118 86
Width: 1112
GlyphClass: 2
Flags: HMW
HStem: -55 43G 992 41G
LayerCount: 2
Fore
SplineSet
645 -14 m 0
 637 -32 621 -44 596 -50 c 0
 584 -53 572 -55 561 -55 c 0
 548 -55 536 -53 523 -49 c 0
 499 -42 482 -30 471 -12 c 0
 304 297 172 582 74 846 c 0
 66 869 61 890 60 909 c 0
 59 928 63 944 69 958 c 0
 75 972 82 983 92 991 c 0
 102 999 112 1007 123 1012 c 0
 135 1019 149 1022 163 1023 c 0
 177 1024 192 1021 206 1014 c 0
 220 1007 234 995 248 979 c 0
 262 963 272 941 279 915 c 0
 289 882 299 849 311 815 c 0
 323 781 334 750 344 723 c 0
 354 696 366 664 380 628 c 0
 394 592 406 563 414 543 c 0
 422 523 435 493 451 455 c 0
 467 417 478 391 484 377 c 0
 490 363 502 336 520 296 c 0
 538 256 549 231 553 223 c 1
 694 493 795 730 858 932 c 0
 872 977 893 1007 920 1021 c 0
 935 1029 949 1033 963 1033 c 0
 975 1033 987 1030 999 1024 c 0
 1014 1017 1026 1007 1035 994 c 0
 1044 981 1050 963 1053 939 c 0
 1054 934 1054 929 1054 923 c 0
 1054 903 1049 880 1042 856 c 0
 1024 801 1002 743 973 680 c 0
 944 617 896 515 828 373 c 0
 760 231 700 102 645 -14 c 0
EndSplineSet
EndChar

StartChar: w
Encoding: 119 119 87
Width: 1112
GlyphClass: 2
Flags: HMW
HStem: -74 43G
VStem: 469 209
LayerCount: 2
Fore
SplineSet
395 -6 m 0
 388 -28 376 -44 358 -56 c 0
 340 -68 322 -74 303 -74 c 0
 281 -74 261 -67 242 -55 c 0
 223 -43 210 -23 203 6 c 0
 98 350 34 650 12 905 c 0
 11 913 11 920 11 927 c 0
 11 951 17 969 28 983 c 0
 42 1001 63 1011 90 1014 c 0
 97 1015 103 1015 109 1015 c 0
 130 1015 149 1010 166 999 c 0
 188 985 202 961 207 926 c 0
 223 754 260 500 317 164 c 1
 325 210 340 295 362 418 c 0
 384 541 405 648 424 739 c 0
 443 830 458 898 469 942 c 0
 483 995 518 1022 572 1022 c 0
 575 1022 577 1022 580 1022 c 0
 602 1021 621 1015 637 1003 c 0
 653 991 667 970 678 940 c 0
 679 935 687 885 701 791 c 0
 715 697 735 587 758 462 c 0
 781 337 801 236 819 160 c 1
 846 291 883 546 928 926 c 0
 932 963 944 987 964 1000 c 0
 978 1009 993 1014 1010 1014 c 0
 1017 1014 1024 1014 1032 1012 c 0
 1079 1002 1103 968 1103 910 c 0
 1103 903 1103 895 1102 887 c 0
 1086 749 1060 592 1027 416 c 0
 994 240 963 107 934 20 c 0
 917 -31 878 -55 815 -55 c 0
 812 -55 808 -55 805 -55 c 0
 778 -55 754 -50 734 -40 c 0
 714 -30 698 -11 686 18 c 0
 664 75 646 145 630 226 c 0
 614 307 600 404 587 517 c 0
 574 630 565 698 561 723 c 1
 549 672 534 602 518 513 c 0
 502 424 484 334 464 245 c 0
 444 156 421 72 395 -6 c 0
EndSplineSet
EndChar

StartChar: x
Encoding: 120 120 88
Width: 1112
GlyphClass: 2
Flags: HMW
HStem: 995 41G
LayerCount: 2
Fore
SplineSet
233 0 m 0
 217 -22 200 -36 183 -43 c 0
 166 -50 150 -51 136 -46 c 0
 122 -41 107 -32 92 -20 c 0
 71 -1 61 21 61 47 c 0
 61 71 70 99 88 129 c 0
 104 155 134 189 176 232 c 0
 218 275 264 324 314 377 c 0
 364 430 405 479 438 524 c 1
 396 577 340 640 271 710 c 0
 202 780 157 827 137 852 c 0
 121 875 110 896 105 916 c 0
 100 936 102 954 109 968 c 0
 116 982 124 995 135 1006 c 0
 149 1017 164 1024 181 1027 c 0
 198 1030 218 1029 239 1021 c 0
 260 1013 281 999 301 977 c 0
 331 946 374 896 430 830 c 0
 486 764 534 702 575 645 c 1
 593 668 618 701 650 745 c 0
 682 789 707 823 725 846 c 0
 743 869 762 894 782 921 c 0
 802 948 822 968 840 983 c 0
 867 1012 892 1029 917 1034 c 0
 924 1035 931 1036 937 1036 c 0
 954 1036 969 1031 983 1020 c 0
 995 1010 1005 998 1013 984 c 0
 1021 970 1023 953 1021 934 c 0
 1019 915 1009 897 993 881 c 2
 690 506 l 1
 684 500 l 1
 719 452 759 405 801 359 c 0
 843 313 884 271 922 233 c 0
 960 195 990 162 1010 133 c 0
 1028 108 1040 88 1046 70 c 0
 1052 52 1054 37 1051 25 c 0
 1048 13 1042 1 1032 -10 c 0
 1020 -24 1006 -34 991 -40 c 0
 976 -46 957 -46 934 -38 c 0
 911 -30 887 -15 862 10 c 0
 740 141 638 263 553 375 c 1
 513 324 454 254 374 164 c 0
 294 74 247 19 233 0 c 0
EndSplineSet
EndChar

StartChar: y
Encoding: 121 121 89
Width: 1112
GlyphClass: 2
Flags: HMW
HStem: 1006 41G
LayerCount: 2
Fore
SplineSet
342 -594 m 0
 330 -620 311 -637 284 -646 c 0
 276 -649 267 -650 258 -650 c 0
 240 -650 222 -644 203 -631 c 0
 189 -621 179 -610 171 -596 c 0
 163 -582 159 -567 158 -549 c 0
 157 -531 161 -513 172 -494 c 2
 438 27 l 1
 270 342 141 619 51 858 c 0
 41 883 37 904 37 924 c 0
 37 929 37 935 38 940 c 0
 41 963 47 981 57 995 c 0
 67 1009 80 1019 96 1024 c 0
 108 1031 121 1035 135 1036 c 0
 149 1037 163 1035 177 1030 c 0
 191 1025 205 1014 219 998 c 0
 233 982 243 962 250 936 c 0
 273 862 304 779 342 686 c 0
 380 593 412 519 438 463 c 0
 464 407 500 333 545 240 c 1
 687 528 794 764 866 948 c 0
 874 971 885 991 898 1007 c 0
 911 1023 924 1033 938 1038 c 0
 952 1043 965 1047 978 1047 c 0
 991 1047 1004 1043 1016 1038 c 0
 1027 1033 1037 1026 1046 1017 c 0
 1055 1008 1062 997 1068 983 c 0
 1074 969 1077 953 1076 933 c 0
 1075 913 1071 892 1061 870 c 0
 1028 792 979 686 915 552 c 0
 851 418 789 291 729 172 c 0
 669 53 573 -137 442 -399 c 0
 398 -484 365 -549 342 -594 c 0
EndSplineSet
EndChar

StartChar: z
Encoding: 122 122 90
Width: 1112
GlyphClass: 2
Flags: HMW
HStem: -7 179 829 173
LayerCount: 2
Fore
SplineSet
1016 71 m 0
 1016 47 1008 26 994 9 c 0
 978 -9 950 -18 909 -18 c 0
 898 -18 843 -16 745 -13 c 0
 647 -10 556 -8 472 -7 c 0
 455 -7 438 -7 420 -7 c 0
 349 -7 272 -8 188 -10 c 0
 163 -10 143 3 125 30 c 0
 107 57 98 81 98 106 c 0
 98 116 100 126 103 136 c 0
 106 146 117 162 135 185 c 0
 153 208 178 235 211 268 c 0
 233 290 286 341 369 422 c 0
 452 503 532 581 610 658 c 0
 688 735 744 795 778 836 c 1
 668 832 572 829 490 829 c 0
 367 829 275 834 215 844 c 0
 156 854 127 883 127 932 c 0
 127 934 127 937 127 939 c 0
 127 964 133 987 146 1004 c 0
 158 1020 177 1027 201 1027 c 0
 206 1027 211 1027 217 1026 c 0
 371 1010 522 1002 670 1002 c 0
 752 1002 833 1005 913 1010 c 0
 914 1010 916 1010 917 1010 c 0
 939 1010 958 1000 974 979 c 0
 991 957 1000 932 1001 905 c 0
 1001 904 1002 904 1002 903 c 0
 1002 878 979 830 934 760 c 0
 894 701 849 644 796 587 c 0
 743 530 695 482 651 444 c 0
 607 406 556 360 495 305 c 0
 434 250 383 202 342 160 c 1
 474 168 589 172 684 172 c 0
 779 172 855 168 913 160 c 0
 951 153 978 143 993 130 c 0
 1015 111 1016 87 1016 71 c 0
EndSplineSet
EndChar

StartChar: braceleft
Encoding: 123 123 91
Width: 1112
GlyphClass: 2
Flags: HW
LayerCount: 2
Fore
SplineSet
1006 -113 m 0
 1006 -136 998 -157 983 -176 c 0
 968 -195 943 -205 909 -205 c 0
 843 -205 782 -198 723 -185 c 0
 664 -172 611 -154 564 -130 c 0
 517 -106 480 -75 452 -36 c 0
 424 3 410 47 410 96 c 0
 410 134 414 172 422 207 c 0
 430 242 441 274 453 302 c 0
 465 330 476 358 488 385 c 0
 500 412 510 441 518 471 c 0
 526 501 530 531 530 561 c 0
 530 565 526 572 517 580 c 0
 508 588 494 596 475 605 c 0
 456 614 435 622 410 629 c 0
 385 636 354 642 318 647 c 0
 282 652 245 655 207 655 c 0
 178 655 154 666 134 689 c 0
 114 712 104 737 104 766 c 0
 104 795 112 818 126 835 c 0
 140 852 161 860 190 860 c 0
 227 860 260 861 289 863 c 0
 318 865 347 868 376 873 c 0
 405 878 430 884 450 892 c 0
 470 900 486 910 499 924 c 0
 512 938 518 954 518 973 c 0
 518 984 513 1000 501 1020 c 0
 489 1040 477 1062 464 1085 c 0
 451 1108 439 1142 427 1184 c 0
 415 1226 410 1272 410 1321 c 0
 410 1449 454 1552 543 1628 c 0
 632 1704 753 1743 909 1743 c 0
 936 1743 960 1735 980 1720 c 0
 1000 1705 1010 1687 1010 1667 c 0
 1010 1644 997 1622 972 1601 c 0
 947 1580 923 1569 901 1569 c 0
 808 1569 735 1548 682 1507 c 0
 629 1466 602 1411 602 1343 c 0
 602 1310 609 1274 621 1233 c 0
 633 1192 647 1156 662 1126 c 0
 677 1096 690 1067 702 1039 c 0
 714 1011 721 991 721 979 c 0
 721 952 713 926 697 902 c 0
 681 878 660 858 632 841 c 0
 604 824 575 809 545 797 c 0
 515 785 484 775 451 768 c 1
 529 745 593 715 644 678 c 0
 695 641 721 608 721 577 c 0
 721 546 718 514 710 483 c 0
 702 452 693 423 681 396 c 0
 669 369 658 342 646 314 c 0
 634 286 624 255 616 220 c 0
 608 185 604 150 604 113 c 0
 604 90 614 68 633 49 c 0
 652 30 677 15 706 4 c 0
 735 -7 767 -16 801 -22 c 0
 835 -28 868 -31 901 -31 c 0
 930 -31 955 -38 975 -53 c 0
 995 -68 1006 -88 1006 -113 c 0
EndSplineSet
EndChar

StartChar: bar
Encoding: 124 124 92
Width: 1112
GlyphClass: 2
Flags: HMW
VStem: 460 181 479 176
LayerCount: 2
Fore
SplineSet
655 1610 m 0x40
 655 1599 652 1310 644 745 c 0
 640 418 638 164 638 -15 c 0
 638 -146 639 -237 641 -289 c 0
 638 -319 626 -342 606 -359 c 0
 587 -375 566 -383 541 -383 c 0
 539 -383 537 -383 535 -383 c 0
 509 -383 489 -374 476 -356 c 0
 465 -341 460 -322 460 -296 c 0x80
 460 -291 461 -285 461 -279 c 0
 465 -224 468 -63 471 203 c 0
 474 469 475 754 476 1057 c 0
 477 1360 478 1543 479 1604 c 0
 480 1678 508 1714 563 1714 c 0
 565 1714 568 1714 570 1714 c 0
 627 1714 655 1680 655 1610 c 0x40
EndSplineSet
EndChar

StartChar: braceright
Encoding: 125 125 93
Width: 1112
GlyphClass: 2
Flags: HW
LayerCount: 2
Fore
SplineSet
702 217 m 0
 702 89 658 -14 569 -90 c 0
 480 -166 359 -205 203 -205 c 0
 176 -205 152 -197 133 -182 c 0
 114 -167 104 -149 104 -129 c 0
 104 -106 116 -83 141 -62 c 0
 166 -41 189 -31 211 -31 c 0
 305 -31 378 -10 430 31 c 0
 482 72 508 127 508 195 c 0
 508 228 501 265 489 308 c 0
 477 351 464 389 450 422 c 0
 436 455 422 486 410 517 c 0
 398 548 391 570 391 582 c 0
 391 609 400 634 416 657 c 0
 432 680 453 701 480 719 c 0
 507 737 535 752 566 764 c 0
 597 776 629 786 662 793 c 1
 584 816 519 846 468 883 c 0
 417 920 391 953 391 984 c 0
 391 1015 395 1045 403 1074 c 0
 411 1103 421 1131 432 1156 c 0
 443 1181 454 1207 466 1233 c 0
 478 1259 487 1288 495 1321 c 0
 503 1354 506 1388 506 1425 c 0
 506 1448 496 1470 478 1489 c 0
 460 1508 436 1523 407 1534 c 0
 378 1545 345 1554 311 1560 c 0
 277 1566 244 1569 211 1569 c 0
 182 1569 157 1576 137 1591 c 0
 117 1606 107 1626 107 1651 c 0
 107 1674 114 1695 129 1714 c 0
 144 1733 169 1743 203 1743 c 0
 269 1743 330 1736 389 1723 c 0
 448 1710 501 1692 548 1668 c 0
 595 1644 632 1613 660 1574 c 0
 688 1535 702 1491 702 1442 c 0
 702 1404 698 1367 689 1333 c 0
 680 1299 670 1269 658 1243 c 0
 646 1217 636 1191 624 1166 c 0
 612 1141 602 1114 594 1085 c 0
 586 1056 582 1028 582 999 c 0
 582 994 586 988 595 980 c 0
 604 972 618 964 637 955 c 0
 656 946 677 939 702 931 c 0
 727 923 758 917 794 912 c 0
 830 907 867 905 905 905 c 0
 932 905 957 894 978 871 c 0
 999 848 1010 824 1010 795 c 0
 1010 766 1002 743 987 725 c 0
 972 707 951 698 922 698 c 0
 885 698 852 697 823 696 c 0
 794 695 765 692 735 687 c 0
 705 682 680 676 660 668 c 0
 640 660 624 649 612 635 c 0
 600 621 594 606 594 588 c 0
 594 577 599 560 611 537 c 0
 623 514 635 489 648 464 c 0
 661 439 673 403 685 358 c 0
 697 313 702 266 702 217 c 0
EndSplineSet
EndChar

StartChar: asciitilde
Encoding: 126 126 94
Width: 1112
GlyphClass: 2
Flags: HMW
HStem: 541 215 870 217
LayerCount: 2
Fore
SplineSet
1044 1047 m 0
 1056 1042 1066 1032 1071 1019 c 0
 1076 1006 1078 990 1076 971 c 0
 1074 952 1071 933 1066 915 c 0
 1061 897 1054 877 1044 854 c 0
 959 645 858 541 741 541 c 0
 712 541 687 545 663 554 c 0
 639 563 616 577 596 597 c 0
 576 617 558 637 543 658 c 0
 528 679 512 706 494 737 c 0
 490 744 483 755 474 771 c 0
 465 787 459 797 456 802 c 0
 453 807 447 814 440 825 c 0
 433 836 428 843 424 846 c 0
 420 849 415 853 407 858 c 0
 399 863 392 867 385 868 c 0
 378 869 370 870 360 870 c 0
 349 870 340 868 332 865 c 0
 324 862 315 856 307 846 c 0
 299 836 292 827 286 818 c 0
 280 809 272 794 264 774 c 0
 256 754 249 736 244 721 c 0
 239 706 230 682 219 651 c 0
 209 624 190 600 161 579 c 0
 138 562 117 553 99 553 c 0
 94 553 90 554 86 555 c 0
 71 559 58 572 47 594 c 0
 40 607 37 622 37 637 c 0
 37 646 38 656 41 666 c 0
 75 797 122 900 181 975 c 0
 240 1050 298 1087 354 1087 c 0
 377 1087 397 1086 412 1084 c 0
 427 1082 443 1078 461 1072 c 0
 479 1066 494 1056 508 1043 c 0
 522 1030 536 1013 552 993 c 0
 568 973 584 946 600 915 c 0
 604 907 610 896 618 880 c 0
 626 864 633 853 636 845 c 0
 639 837 644 828 652 816 c 0
 660 804 666 796 671 791 c 0
 676 786 681 779 688 773 c 0
 695 767 702 763 710 760 c 0
 718 757 725 756 733 756 c 2
 743 756 l 2
 755 756 765 756 770 757 c 0
 775 758 783 759 793 762 c 0
 803 765 810 769 815 775 c 0
 820 781 828 790 837 802 c 0
 846 814 854 829 863 847 c 0
 872 865 883 887 895 913 c 0
 902 929 910 947 920 964 c 0
 930 981 940 997 953 1013 c 0
 966 1029 981 1040 997 1047 c 0
 1013 1054 1029 1054 1044 1047 c 0
EndSplineSet
EndChar

StartChar: lambda
Encoding: 955 955 95
Width: 1112
GlyphClass: 2
Flags: HMW
HStem: -67 43G
LayerCount: 2
Fore
SplineSet
342 1574 m 0
 365 1529 398 1464 442 1379 c 0
 573 1117 669 927 729 808 c 0
 789 689 851 562 915 428 c 0
 979 294 1028 187 1061 109 c 0
 1071 87 1075 67 1076 47 c 0
 1077 27 1074 11 1068 -3 c 0
 1062 -17 1055 -28 1046 -37 c 0
 1037 -46 1027 -53 1016 -58 c 0
 1004 -63 991 -67 978 -67 c 0
 965 -67 952 -63 938 -58 c 0
 924 -53 911 -43 898 -27 c 0
 885 -11 874 9 866 32 c 0
 794 216 687 452 545 740 c 1
 500 647 464 573 438 517 c 0
 412 461 380 387 342 294 c 0
 304 201 273 118 250 44 c 0
 243 18 233 -3 219 -19 c 0
 205 -35 191 -45 177 -50 c 0
 163 -55 149 -57 135 -56 c 0
 121 -55 108 -51 96 -44 c 0
 80 -39 67 -29 57 -15 c 0
 47 -1 41 17 38 40 c 0
 37 45 37 51 37 56 c 0
 37 76 41 97 51 122 c 0
 141 361 270 638 438 953 c 1
 172 1473 l 2
 161 1492 157 1511 158 1529 c 0
 159 1547 163 1562 171 1576 c 0
 179 1590 189 1601 203 1611 c 0
 222 1624 240 1630 258 1630 c 0
 267 1630 276 1629 284 1626 c 0
 311 1617 330 1600 342 1574 c 0
EndSplineSet
EndChar
